{
.appVersion = "1075";
copyright = "Copyright 2018 The Jacques Francois Shadow Project Authors (https://github.com/cyrealtype/Jacques-Francois-Shadow)";
customParameters = (
{
name = license;
value = "This Font Software is licensed under the SIL Open Font License, Version 1.1. This license is available with a FAQ at: http://scripts.sil.org/OFL";
},
{
name = licenseURL;
value = "http://scripts.sil.org/OFL";
},
{
name = fsType;
value = (
);
},
{
name = "Use Typo Metrics";
value = 1;
},
{
name = "Disable Last Change";
value = 1;
},
{
name = "Use Line Breaks";
value = 1;
}
);
date = "2018-02-12 12:12:15 +0000";
designer = "Alexei Vanyashin, Nikita Kanarev (i@xarsok.ru)";
designerURL = "http://cyreal.org";
disablesAutomaticAlignment = 1;
familyName = "Jacques Francois Shadow";
featurePrefixes = (
{
automatic = 1;
code = "languagesystem DFLT dflt;
";
name = Languagesystems;
}
);
features = (
{
automatic = 1;
code = "feature sups;
feature frac;
feature ordn;
";
name = aalt;
},
{
automatic = 1;
code = "sub one by onesuperior;
sub two by twosuperior;
sub three by threesuperior;
sub four by foursuperior;
";
name = sups;
},
{
automatic = 1;
code = "sub one slash four by onequarter;
sub one slash two by onehalf;
sub three slash four by threequarters;
";
name = frac;
},
{
automatic = 1;
code = "sub [zero one two three four five six seven eight nine] [A a]' by ordfeminine;
sub [zero one two three four five six seven eight nine] [O o]' by ordmasculine;
";
name = ordn;
}
);
fontMaster = (
{
alignmentZones = (
"{739, 21}",
"{454, 10}",
"{0, 0}",
"{-283, -12}"
);
ascender = 766;
capHeight = 739;
customParameters = (
{
name = typoDescender;
value = 296;
},
{
name = typoLineGap;
value = 0;
},
{
name = hheaLineGap;
value = 0;
},
{
name = hheaAscender;
value = 1023;
},
{
name = typoAscender;
value = 1023;
},
{
name = hheaDescender;
value = -295;
},
{
name = winDescent;
value = 296;
},
{
name = winAscent;
value = 1023;
}
);
descender = -283;
horizontalStems = (
21,
24,
35,
39,
44
);

glyphs = (
{
glyphname = A;
layers = (
{
layerId = UUID0;
paths = (
{
closed = 1;
nodes = (
"424 295 OFFCURVE",
"446 295 OFFCURVE",
"472 296 CURVE",
"379 536 LINE",
"377 536 LINE",
"284 297 LINE",
"330 295 OFFCURVE",
"366 295 OFFCURVE",
"401 295 CURVE SMOOTH"
);
},
{
closed = 1;
nodes = (
"378 485 LINE",
"443 315 LINE",
"399 314 OFFCURVE",
"358 314 OFFCURVE",
"313 316 CURVE"
);
},
{
closed = 1;
nodes = (
"764 24 OFFCURVE",
"681 28 OFFCURVE",
"666 65 CURVE SMOOTH",
"396 732 LINE",
"390 731 OFFCURVE",
"384 728 OFFCURVE",
"380 725 CURVE",
"377 681 OFFCURVE",
"367 654 OFFCURVE",
"343 628 CURVE",
"354 599 LINE",
"148 81 LINE SMOOTH",
"131 38 OFFCURVE",
"79 26 OFFCURVE",
"28 20 CURVE",
"25 14 OFFCURVE",
"25 2 OFFCURVE",
"28 -4 CURVE",
"83 -2 OFFCURVE",
"130 0 OFFCURVE",
"164 0 CURVE SMOOTH",
"206 0 OFFCURVE",
"255 -2 OFFCURVE",
"323 -4 CURVE",
"326 2 OFFCURVE",
"326 14 OFFCURVE",
"323 20 CURVE",
"272 25 OFFCURVE",
"178 30 OFFCURVE",
"196 76 CURVE SMOOTH",
"267 255 LINE",
"321 256 OFFCURVE",
"361 257 OFFCURVE",
"401 257 CURVE SMOOTH",
"428 257 OFFCURVE",
"456 257 OFFCURVE",
"488 256 CURVE",
"559 74 LINE SMOOTH",
"571 27 OFFCURVE",
"498 25 OFFCURVE",
"462 20 CURVE",
"459 14 OFFCURVE",
"459 2 OFFCURVE",
"462 -4 CURVE",
"587 1 OFFCURVE",
"703 0 OFFCURVE",
"820 -4 CURVE",
"823 2 OFFCURVE",
"823 14 OFFCURVE",
"820 20 CURVE"
);
},
{
closed = 1;
nodes = (
"843 19 OFFCURVE",
"842 -4 OFFCURVE",
"834 -24 CURVE",
"447 -24 LINE",
"440 -4 OFFCURVE",
"439 19 OFFCURVE",
"447 38 CURVE",
"513 42 OFFCURVE",
"547 50 OFFCURVE",
"537 75 CURVE SMOOTH",
"473 237 LINE",
"408 239 OFFCURVE",
"345 238 OFFCURVE",
"280 235 CURVE",
"217 73 LINE SMOOTH",
"208 51 OFFCURVE",
"263 41 OFFCURVE",
"338 38 CURVE",
"346 19 OFFCURVE",
"345 -4 OFFCURVE",
"337 -24 CURVE",
"227 -20 OFFCURVE",
"126 -20 OFFCURVE",
"14 -24 CURVE",
"6 -4 OFFCURVE",
"5 19 OFFCURVE",
"13 38 CURVE",
"64 44 OFFCURVE",
"116 54 OFFCURVE",
"127 82 CURVE SMOOTH",
"333 600 LINE",
"329 611 OFFCURVE",
"321 629 OFFCURVE",
"319 636 CURVE",
"346 664 OFFCURVE",
"358 692 OFFCURVE",
"361 736 CURVE",
"392 751 OFFCURVE",
"425 758 OFFCURVE",
"462 760 CURVE",
"736 80 LINE SMOOTH",
"749 47 OFFCURVE",
"774 43 OFFCURVE",
"835 38 CURVE"
);
}
);
width = 858;
}
);
unicode = 0041;
},
{
glyphname = AE;
layers = (
{
background = {
paths = (
{
closed = 1;
nodes = (
"518 652 LINE",
"356 373 LINE",
"525 373 LINE",
"525 375 LINE SMOOTH",
"525 465 OFFCURVE",
"524 560 OFFCURVE",
"520 652 CURVE"
);
},
{
closed = 1;
nodes = (
"633 0 LINE",
"567 0 OFFCURVE",
"469 -1 OFFCURVE",
"406 -3 CURVE",
"405 0 OFFCURVE",
"404 4 OFFCURVE",
"404 7 CURVE SMOOTH",
"404 11 OFFCURVE",
"405 15 OFFCURVE",
"406 20 CURVE",
"448 24 OFFCURVE",
"518 31 OFFCURVE",
"519 67 CURVE SMOOTH",
"522 158 OFFCURVE",
"524 250 OFFCURVE",
"525 343 CURVE",
"338 343 LINE",
"179 71 LINE",
"177 66 OFFCURVE",
"174 57 OFFCURVE",
"174 55 CURVE SMOOTH",
"174 24 OFFCURVE",
"234 25 OFFCURVE",
"273 20 CURVE",
"274 16 OFFCURVE",
"275 11 OFFCURVE",
"275 7 CURVE SMOOTH",
"275 4 OFFCURVE",
"274 0 OFFCURVE",
"273 -4 CURVE",
"218 -2 OFFCURVE",
"184 0 OFFCURVE",
"150 0 CURVE SMOOTH",
"116 0 OFFCURVE",
"69 -2 OFFCURVE",
"14 -4 CURVE",
"13 -1 OFFCURVE",
"12 5 OFFCURVE",
"12 8 CURVE SMOOTH",
"12 12 OFFCURVE",
"13 17 OFFCURVE",
"14 20 CURVE",
"65 26 OFFCURVE",
"110 40 OFFCURVE",
"128 70 CURVE SMOOTH",
"488 680 LINE",
"464 689 OFFCURVE",
"431 692 OFFCURVE",
"407 695 CURVE",
"406 699 OFFCURVE",
"405 703 OFFCURVE",
"405 707 CURVE SMOOTH",
"405 711 OFFCURVE",
"406 714 OFFCURVE",
"407 718 CURVE",
"462 716 OFFCURVE",
"520 714 OFFCURVE",
"578 714 CURVE SMOOTH",
"634 714 LINE SMOOTH",
"770 715 OFFCURVE",
"886 714 OFFCURVE",
"1022 718 CURVE",
"1031 645 OFFCURVE",
"1064 584 OFFCURVE",
"1094 532 CURVE",
"1091 526 OFFCURVE",
"1085 522 OFFCURVE",
"1077 519 CURVE",
"1033 601 OFFCURVE",
"948 671 OFFCURVE",
"749 684 CURVE",
"634 684 LINE",
"630 557 OFFCURVE",
"628 465 OFFCURVE",
"628 373 CURVE",
"747 373 LINE SMOOTH",
"834 373 OFFCURVE",
"859 442 OFFCURVE",
"902 524 CURVE",
"910 521 OFFCURVE",
"918 517 OFFCURVE",
"921 511 CURVE",
"894 464 OFFCURVE",
"872 398 OFFCURVE",
"872 358 CURVE SMOOTH",
"872 304 OFFCURVE",
"894 251 OFFCURVE",
"921 205 CURVE",
"918 199 OFFCURVE",
"910 195 OFFCURVE",
"902 192 CURVE",
"860 268 OFFCURVE",
"834 343 OFFCURVE",
"747 343 CURVE SMOOTH",
"628 343 LINE",
"628 339 LINE SMOOTH",
"628 249 OFFCURVE",
"630 158 OFFCURVE",
"633 30 CURVE",
"769 30 LINE",
"968 43 OFFCURVE",
"1053 113 OFFCURVE",
"1097 195 CURVE",
"1105 192 OFFCURVE",
"1111 188 OFFCURVE",
"1114 182 CURVE",
"1084 126 OFFCURVE",
"1051 73 OFFCURVE",
"1042 0 CURVE"
);
},
{
closed = 1;
nodes = (
"1095 -20 LINE",
"1105 57 OFFCURVE",
"1130 105 OFFCURVE",
"1156 152 CURVE",
"1171 182 LINE",
"1162 201 OFFCURVE",
"1145 212 OFFCURVE",
"1123 220 CURVE",
"1115 206 LINE",
"1107 212 OFFCURVE",
"1098 216 OFFCURVE",
"1088 220 CURVE",
"1043 137 OFFCURVE",
"948 65 OFFCURVE",
"768 50 CURVE",
"687 50 LINE",
"684 170 OFFCURVE",
"683 240 OFFCURVE",
"683 323 CURVE",
"747 323 LINE SMOOTH",
"810 323 OFFCURVE",
"837 271 OFFCURVE",
"868 213 CURVE SMOOTH",
"873 203 OFFCURVE",
"888 177 OFFCURVE",
"894 167 CURVE",
"903 170 OFFCURVE",
"913 174 OFFCURVE",
"921 180 CURVE",
"929 167 LINE",
"949 174 OFFCURVE",
"969 185 OFFCURVE",
"979 205 CURVE",
"950 254 OFFCURVE",
"927 309 OFFCURVE",
"927 358 CURVE SMOOTH",
"927 394 OFFCURVE",
"950 461 OFFCURVE",
"979 511 CURVE",
"970 530 OFFCURVE",
"949 541 OFFCURVE",
"927 549 CURVE",
"920 536 LINE",
"912 541 OFFCURVE",
"902 545 OFFCURVE",
"892 549 CURVE",
"871 508 LINE SMOOTH",
"839 445 OFFCURVE",
"812 393 OFFCURVE",
"747 393 CURVE SMOOTH",
"683 393 LINE",
"683 476 OFFCURVE",
"685 559 OFFCURVE",
"688 664 CURVE",
"748 664 LINE",
"928 650 OFFCURVE",
"1023 576 OFFCURVE",
"1068 494 CURVE",
"1078 498 OFFCURVE",
"1087 502 OFFCURVE",
"1095 507 CURVE",
"1103 494 LINE",
"1126 503 OFFCURVE",
"1143 514 OFFCURVE",
"1152 532 CURVE",
"1121 586 OFFCURVE",
"1086 651 OFFCURVE",
"1075 739 CURVE",
"1063 738 OFFCURVE",
"1052 738 OFFCURVE",
"1040 738 CURVE",
"1040 739 LINE",
"954 736 OFFCURVE",
"863 735 OFFCURVE",
"780 735 CURVE SMOOTH",
"744 735 LINE SMOOTH",
"720 735 OFFCURVE",
"694 734 OFFCURVE",
"669 734 CURVE SMOOTH",
"586 734 LINE SMOOTH",
"533 734 OFFCURVE",
"474 737 OFFCURVE",
"428 739 CURVE",
"428 738 OFFCURVE",
"427 738 OFFCURVE",
"427 737 CURVE",
"393 739 LINE",
"385 719 OFFCURVE",
"385 713 OFFCURVE",
"385 707 CURVE SMOOTH",
"385 703 OFFCURVE",
"388 689 OFFCURVE",
"392 675 CURVE",
"395 675 OFFCURVE",
"408 674 OFFCURVE",
"414 674 CURVE",
"428 672 OFFCURVE",
"444 671 OFFCURVE",
"458 668 CURVE",
"111 80 LINE",
"96 57 OFFCURVE",
"51 45 OFFCURVE",
"-1 39 CURVE",
"-5 28 OFFCURVE",
"-8 15 OFFCURVE",
"-8 8 CURVE SMOOTH",
"-8 4 OFFCURVE",
"-4 -12 OFFCURVE",
"0 -24 CURVE",
"8 -24 OFFCURVE",
"24 -23 OFFCURVE",
"34 -23 CURVE SMOOTH",
"34 -23 OFFCURVE",
"35 -23 OFFCURVE",
"35 -24 CURVE",
"44 -24 OFFCURVE",
"66 -23 OFFCURVE",
"75 -23 CURVE SMOOTH",
"107 -21 OFFCURVE",
"135 -20 OFFCURVE",
"159 -20 CURVE SMOOTH",
"180 -20 OFFCURVE",
"200 -21 OFFCURVE",
"227 -22 CURVE SMOOTH",
"288 -24 LINE",
"288 -23 LINE",
"323 -24 LINE",
"326 -10 OFFCURVE",
"330 4 OFFCURVE",
"330 7 CURVE SMOOTH",
"330 11 OFFCURVE",
"326 26 OFFCURVE",
"323 40 CURVE",
"316 40 OFFCURVE",
"296 42 OFFCURVE",
"288 42 CURVE SMOOTH",
"260 44 OFFCURVE",
"229 47 OFFCURVE",
"229 55 CURVE SMOOTH",
"229 54 OFFCURVE",
"231 60 OFFCURVE",
"233 64 CURVE SMOOTH",
"231 61 LINE SMOOTH",
"283 149 OFFCURVE",
"332 235 OFFCURVE",
"384 323 CURVE",
"505 323 LINE",
"504 230 OFFCURVE",
"502 159 OFFCURVE",
"499 68 CURVE SMOOTH",
"498 49 OFFCURVE",
"431 43 OFFCURVE",
"391 39 CURVE",
"384 18 OFFCURVE",
"384 12 OFFCURVE",
"384 7 CURVE SMOOTH",
"384 2 OFFCURVE",
"388 -11 OFFCURVE",
"392 -23 CURVE",
"402 -22 OFFCURVE",
"414 -22 OFFCURVE",
"426 -22 CURVE SMOOTH",
"426 -22 OFFCURVE",
"427 -22 OFFCURVE",
"427 -23 CURVE",
"480 -21 OFFCURVE",
"567 -20 OFFCURVE",
"633 -20 CURVE"
);
},
{
closed = 1;
nodes = (
"503 395 LINE SMOOTH",
"474 395 OFFCURVE",
"450 394 OFFCURVE",
"425 394 CURVE",
"504 529 LINE",
"505 484 OFFCURVE",
"505 439 OFFCURVE",
"505 395 CURVE"
);
}
);
};
hints = (
{
place = "{664, -86}";
},
{
place = "{851, 33}";
},
{
place = "{983, 34}";
},
{
horizontal = 1;
place = "{700, -39}";
},
{
horizontal = 1;
place = "{335, 39}";
},
{
horizontal = 1;
place = "{211, 39}";
},
{
horizontal = 1;
place = "{0, 39}";
}
);
layerId = UUID0;
paths = (
{
closed = 1;
nodes = (
"505 323 LINE",
"504 237 OFFCURVE",
"502 153 OFFCURVE",
"499 68 CURVE SMOOTH",
"498 49 OFFCURVE",
"431 43 OFFCURVE",
"391 39 CURVE",
"383 12 OFFCURVE",
"385 -1 OFFCURVE",
"392 -23 CURVE",
"455 -21 OFFCURVE",
"613 -20 OFFCURVE",
"679 -20 CURVE SMOOTH",
"1084 -20 LINE",
"1094 57 OFFCURVE",
"1115 107 OFFCURVE",
"1160 182 CURVE",
"1151 201 OFFCURVE",
"1130 212 OFFCURVE",
"1108 220 CURVE",
"1063 137 OFFCURVE",
"969 50 OFFCURVE",
"788 50 CURVE SMOOTH",
"687 50 LINE",
"684 166 OFFCURVE",
"683 233 OFFCURVE",
"683 313 CURVE",
"771 313 LINE",
"831 310 OFFCURVE",
"858 264 OFFCURVE",
"888 213 CURVE SMOOTH",
"893 203 OFFCURVE",
"908 177 OFFCURVE",
"914 167 CURVE",
"934 174 OFFCURVE",
"954 185 OFFCURVE",
"964 205 CURVE",
"935 254 OFFCURVE",
"912 309 OFFCURVE",
"912 358 CURVE SMOOTH",
"912 394 OFFCURVE",
"935 461 OFFCURVE",
"964 511 CURVE",
"955 530 OFFCURVE",
"934 541 OFFCURVE",
"912 549 CURVE",
"891 508 LINE SMOOTH",
"860 446 OFFCURVE",
"833 394 OFFCURVE",
"772 394 CURVE SMOOTH",
"743 394 OFFCURVE",
"714 394 OFFCURVE",
"683 395 CURVE",
"683 478 OFFCURVE",
"685 559 OFFCURVE",
"688 664 CURVE",
"768 664 LINE SMOOTH",
"949 664 OFFCURVE",
"1043 577 OFFCURVE",
"1088 494 CURVE",
"1110 502 OFFCURVE",
"1131 513 OFFCURVE",
"1140 532 CURVE",
"1095 607 OFFCURVE",
"1074 657 OFFCURVE",
"1064 734 CURVE",
"592 734 LINE SMOOTH",
"529 734 OFFCURVE",
"453 737 OFFCURVE",
"393 739 CURVE",
"384 715 OFFCURVE",
"385 699 OFFCURVE",
"391 676 CURVE",
"410 674 OFFCURVE",
"436 672 OFFCURVE",
"458 668 CURVE",
"111 80 LINE SMOOTH",
"97 56 OFFCURVE",
"51 45 OFFCURVE",
"-1 39 CURVE",
"-10 20 OFFCURVE",
"-10 -4 OFFCURVE",
"0 -24 CURVE",
"100 -20 OFFCURVE",
"190 -20 OFFCURVE",
"288 -24 CURVE",
"295 -3 OFFCURVE",
"295 20 OFFCURVE",
"288 40 CURVE",
"230 43 OFFCURVE",
"188 47 OFFCURVE",
"204 74 CURVE SMOOTH",
"349 323 LINE"
);
},
{
closed = 1;
nodes = (
"518 652 LINE",
"356 373 LINE",
"525 373 LINE",
"525 465 OFFCURVE",
"524 560 OFFCURVE",
"520 652 CURVE"
);
},
{
closed = 1;
nodes = (
"338 343 LINE",
"179 71 LINE SMOOTH",
"151 23 OFFCURVE",
"243 24 OFFCURVE",
"273 20 CURVE",
"274 16 OFFCURVE",
"275 11 OFFCURVE",
"275 7 CURVE SMOOTH",
"275 4 OFFCURVE",
"274 0 OFFCURVE",
"273 -4 CURVE",
"183 2 OFFCURVE",
"99 1 OFFCURVE",
"14 -4 CURVE",
"13 -1 OFFCURVE",
"12 5 OFFCURVE",
"12 8 CURVE SMOOTH",
"12 12 OFFCURVE",
"13 17 OFFCURVE",
"14 20 CURVE",
"65 26 OFFCURVE",
"110 40 OFFCURVE",
"128 70 CURVE SMOOTH",
"488 680 LINE",
"464 689 OFFCURVE",
"431 693 OFFCURVE",
"407 695 CURVE",
"407 718 LINE",
"462 716 OFFCURVE",
"520 714 OFFCURVE",
"578 714 CURVE SMOOTH",
"824 714 LINE SMOOTH",
"991 714 OFFCURVE",
"1052 657 OFFCURVE",
"1114 532 CURVE",
"1111 526 OFFCURVE",
"1105 522 OFFCURVE",
"1097 519 CURVE",
"1053 601 OFFCURVE",
"968 684 OFFCURVE",
"769 684 CURVE SMOOTH",
"614 684 LINE",
"610 557 OFFCURVE",
"608 468 OFFCURVE",
"608 376 CURVE",
"662 374 OFFCURVE",
"715 374 OFFCURVE",
"767 374 CURVE SMOOTH",
"854 374 OFFCURVE",
"879 442 OFFCURVE",
"922 524 CURVE",
"930 521 OFFCURVE",
"938 517 OFFCURVE",
"941 511 CURVE",
"914 464 OFFCURVE",
"892 398 OFFCURVE",
"892 358 CURVE SMOOTH",
"892 304 OFFCURVE",
"914 251 OFFCURVE",
"941 205 CURVE",
"938 199 OFFCURVE",
"930 195 OFFCURVE",
"922 192 CURVE",
"880 268 OFFCURVE",
"854 343 OFFCURVE",
"767 343 CURVE SMOOTH",
"608 342 LINE",
"608 248 OFFCURVE",
"610 158 OFFCURVE",
"613 30 CURVE",
"789 30 LINE SMOOTH",
"988 30 OFFCURVE",
"1073 113 OFFCURVE",
"1117 195 CURVE",
"1125 192 OFFCURVE",
"1131 188 OFFCURVE",
"1134 182 CURVE",
"1072 57 OFFCURVE",
"1011 0 OFFCURVE",
"844 0 CURVE SMOOTH",
"633 0 LINE SMOOTH",
"567 0 OFFCURVE",
"469 -1 OFFCURVE",
"406 -3 CURVE",
"403 5 OFFCURVE",
"405 12 OFFCURVE",
"406 20 CURVE",
"448 24 OFFCURVE",
"518 31 OFFCURVE",
"519 67 CURVE SMOOTH",
"523 159 OFFCURVE",
"525 250 OFFCURVE",
"525 343 CURVE"
);
},
{
closed = 1;
nodes = (
"505 395 LINE",
"390 394 LINE",
"504 588 LINE"
);
}
);
width = 1174;
}
);
unicode = 00C6;
},
{
glyphname = B;
layers = (
{
hints = (
{
place = "{165, 135}";
},
{
place = "{484, 146}";
},
{
place = "{571, 156}";
},
{
place = "{306, -141}";
},
{
horizontal = 1;
place = "{-6, 21}";
},
{
horizontal = 1;
place = "{-5, 21}";
},
{
horizontal = 1;
place = "{0, -20}";
target = down;
type = TopGhost;
}
);
layerId = UUID0;
paths = (
{
closed = 1;
nodes = (
"251 405 LINE",
"406 405 OFFCURVE",
"470 462 OFFCURVE",
"470 557 CURVE SMOOTH",
"470 651 OFFCURVE",
"404 686 OFFCURVE",
"319 686 CURVE SMOOTH",
"309 686 OFFCURVE",
"284 685 OFFCURVE",
"257 683 CURVE"
);
},
{
closed = 1;
nodes = (
"256 33 LINE",
"400 33 OFFCURVE",
"556 49 OFFCURVE",
"556 218 CURVE SMOOTH",
"556 334 OFFCURVE",
"458 378 OFFCURVE",
"327 378 CURVE SMOOTH",
"301 378 OFFCURVE",
"277 377 OFFCURVE",
"251 375 CURVE",
"251 339 LINE"
);
},
{
closed = 1;
nodes = (
"326 339 LINE",
"326 357 LINE",
"418 366 OFFCURVE",
"536 324 OFFCURVE",
"536 218 CURVE SMOOTH",
"536 88 OFFCURVE",
"437 60 OFFCURVE",
"331 54 CURVE"
);
},
{
closed = 1;
nodes = (
"331 665 LINE",
"401 661 OFFCURVE",
"450 630 OFFCURVE",
"450 557 CURVE SMOOTH",
"450 488 OFFCURVE",
"413 441 OFFCURVE",
"327 428 CURVE"
);
},
{
closed = 1;
nodes = (
"47 5 OFFCURVE",
"46 13 OFFCURVE",
"49 20 CURVE",
"91 24 OFFCURVE",
"161 31 OFFCURVE",
"162 67 CURVE SMOOTH",
"166 169 OFFCURVE",
"168 272 OFFCURVE",
"168 375 CURVE SMOOTH",
"168 465 OFFCURVE",
"167 556 OFFCURVE",
"163 648 CURVE SMOOTH",
"162 684 OFFCURVE",
"92 691 OFFCURVE",
"50 695 CURVE",
"48 702 OFFCURVE",
"47 711 OFFCURVE",
"50 718 CURVE",
"211 710 OFFCURVE",
"272 718 OFFCURVE",
"340 718 CURVE SMOOTH",
"439 718 OFFCURVE",
"584 703 OFFCURVE",
"584 557 CURVE SMOOTH",
"584 480 OFFCURVE",
"526 435 OFFCURVE",
"457 413 CURVE",
"457 409 LINE",
"566 392 OFFCURVE",
"665 328 OFFCURVE",
"665 220 CURVE SMOOTH",
"665 13 OFFCURVE",
"417 0 OFFCURVE",
"276 0 CURVE SMOOTH",
"210 0 OFFCURVE",
"112 -1 OFFCURVE",
"49 -3 CURVE"
);
},
{
closed = 1;
nodes = (
"28 713 OFFCURVE",
"28 699 OFFCURVE",
"34 676 CURVE",
"74 672 OFFCURVE",
"142 666 OFFCURVE",
"143 647 CURVE SMOOTH",
"147 555 OFFCURVE",
"148 465 OFFCURVE",
"148 375 CURVE SMOOTH",
"148 272 OFFCURVE",
"146 170 OFFCURVE",
"142 68 CURVE SMOOTH",
"141 49 OFFCURVE",
"75 43 OFFCURVE",
"35 39 CURVE",
"25 14 OFFCURVE",
"27 -1 OFFCURVE",
"35 -24 CURVE",
"115 -22 OFFCURVE",
"187 -20 OFFCURVE",
"311 -20 CURVE SMOOTH",
"466 -20 OFFCURVE",
"740 -6 OFFCURVE",
"740 220 CURVE SMOOTH",
"740 322 OFFCURVE",
"662 388 OFFCURVE",
"563 417 CURVE",
"614 445 OFFCURVE",
"659 489 OFFCURVE",
"659 557 CURVE SMOOTH",
"659 721 OFFCURVE",
"490 738 OFFCURVE",
"375 738 CURVE SMOOTH",
"293 738 OFFCURVE",
"196 733 OFFCURVE",
"36 739 CURVE"
);
}
);
width = 775;
}
);
unicode = 0042;
},
{
glyphname = C;
layers = (
{
background = {
paths = (
{
closed = 1;
nodes = (
"75 646 OFFCURVE",
"301 734 OFFCURVE",
"445 734 CURVE SMOOTH",
"569 734 OFFCURVE",
"635 703 OFFCURVE",
"720 693 CURVE",
"708 628 OFFCURVE",
"713 552 OFFCURVE",
"740 481 CURVE",
"738 475 OFFCURVE",
"729 471 OFFCURVE",
"722 470 CURVE",
"676 572 OFFCURVE",
"613 699 OFFCURVE",
"445 699 CURVE SMOOTH",
"247 699 OFFCURVE",
"184 506 OFFCURVE",
"184 356 CURVE SMOOTH",
"184 190 OFFCURVE",
"275 40 OFFCURVE",
"487 40 CURVE SMOOTH",
"576 40 OFFCURVE",
"652 68 OFFCURVE",
"702 129 CURVE",
"712 129 OFFCURVE",
"720 122 OFFCURVE",
"720 114 CURVE",
"656 20 OFFCURVE",
"533 -20 OFFCURVE",
"445 -20 CURVE SMOOTH",
"301 -20 OFFCURVE",
"75 66 OFFCURVE",
"75 356 CURVE SMOOTH"
);
},
{
closed = 1;
nodes = (
"730 451 OFFCURVE",
"752 462 OFFCURVE",
"762 483 CURVE",
"732 571 OFFCURVE",
"724 630 OFFCURVE",
"747 710 CURVE",
"630 725 OFFCURVE",
"592 754 OFFCURVE",
"465 754 CURVE SMOOTH",
"298 754 OFFCURVE",
"55 672 OFFCURVE",
"55 356 CURVE SMOOTH",
"55 51 OFFCURVE",
"293 -40 OFFCURVE",
"445 -40 CURVE SMOOTH",
"538 -40 OFFCURVE",
"670 4 OFFCURVE",
"740 107 CURVE",
"740 129 OFFCURVE",
"719 149 OFFCURVE",
"693 149 CURVE",
"647 93 OFFCURVE",
"581 64 OFFCURVE",
"506 60 CURVE",
"333 68 OFFCURVE",
"259 205 OFFCURVE",
"259 356 CURVE SMOOTH",
"259 492 OFFCURVE",
"308 667 OFFCURVE",
"464 678 CURVE",
"605 668 OFFCURVE",
"666 546 OFFCURVE",
"710 448 CURVE"
);
}
);
};
hints = (
{
place = "{70, 151}";
},
{
horizontal = 1;
place = "{5, 54}";
},
{
horizontal = 1;
place = "{740, 22}";
}
);
layerId = UUID0;
paths = (
{
closed = 1;
nodes = (
"75 646 OFFCURVE",
"301 734 OFFCURVE",
"445 734 CURVE SMOOTH",
"580 734 OFFCURVE",
"688 689 OFFCURVE",
"740 481 CURVE",
"738 475 OFFCURVE",
"729 471 OFFCURVE",
"722 470 CURVE",
"676 572 OFFCURVE",
"613 699 OFFCURVE",
"445 699 CURVE SMOOTH",
"247 699 OFFCURVE",
"184 506 OFFCURVE",
"184 356 CURVE SMOOTH",
"184 190 OFFCURVE",
"275 40 OFFCURVE",
"487 40 CURVE SMOOTH",
"576 40 OFFCURVE",
"652 68 OFFCURVE",
"702 129 CURVE",
"712 129 OFFCURVE",
"720 122 OFFCURVE",
"720 114 CURVE",
"656 20 OFFCURVE",
"533 -20 OFFCURVE",
"445 -20 CURVE SMOOTH",
"301 -20 OFFCURVE",
"75 66 OFFCURVE",
"75 356 CURVE SMOOTH"
);
},
{
closed = 1;
nodes = (
"730 451 OFFCURVE",
"752 462 OFFCURVE",
"762 483 CURVE",
"732 571 OFFCURVE",
"724 630 OFFCURVE",
"747 710 CURVE",
"630 725 OFFCURVE",
"592 754 OFFCURVE",
"465 754 CURVE SMOOTH",
"298 754 OFFCURVE",
"55 672 OFFCURVE",
"55 356 CURVE SMOOTH",
"55 51 OFFCURVE",
"293 -40 OFFCURVE",
"445 -40 CURVE",
"538 -40 OFFCURVE",
"670 4 OFFCURVE",
"740 107 CURVE",
"740 129 OFFCURVE",
"719 149 OFFCURVE",
"693 149 CURVE",
"647 93 OFFCURVE",
"581 64 OFFCURVE",
"506 60 CURVE",
"333 68 OFFCURVE",
"259 205 OFFCURVE",
"259 356 CURVE SMOOTH",
"259 492 OFFCURVE",
"308 667 OFFCURVE",
"464 678 CURVE",
"605 668 OFFCURVE",
"666 546 OFFCURVE",
"710 448 CURVE"
);
}
);
width = 810;
}
);
unicode = 0043;
},
{
glyphname = Ccedilla;
layers = (
{
hints = (
{
place = "{70, 151}";
},
{
horizontal = 1;
place = "{5, 54}";
},
{
horizontal = 1;
place = "{740, 22}";
}
);
layerId = UUID0;
paths = (
{
closed = 1;
nodes = (
"453 -165 OFFCURVE",
"447 -174 OFFCURVE",
"436 -178 CURVE",
"423 -175 OFFCURVE",
"408 -167 OFFCURVE",
"391 -149 CURVE",
"412 -143 OFFCURVE",
"428 -139 OFFCURVE",
"440 -137 CURVE",
"448 -140 OFFCURVE",
"453 -146 OFFCURVE",
"453 -155 CURVE SMOOTH"
);
},
{
closed = 1;
nodes = (
"421 -85 LINE",
"432 -83 OFFCURVE",
"451 -83 OFFCURVE",
"466 -83 CURVE SMOOTH",
"507 -83 OFFCURVE",
"534 -107 OFFCURVE",
"534 -153 CURVE SMOOTH",
"534 -197 OFFCURVE",
"501 -239 OFFCURVE",
"437 -239 CURVE SMOOTH",
"398 -239 OFFCURVE",
"363 -224 OFFCURVE",
"343 -193 CURVE",
"356 -178 LINE",
"375 -198 OFFCURVE",
"401 -201 OFFCURVE",
"420 -201 CURVE SMOOTH",
"453 -201 OFFCURVE",
"473 -181 OFFCURVE",
"473 -155 CURVE SMOOTH",
"473 -128 OFFCURVE",
"455 -115 OFFCURVE",
"426 -115 CURVE SMOOTH",
"410 -115 OFFCURVE",
"397 -117 OFFCURVE",
"379 -122 CURVE",
"411 -19 LINE",
"268 -7 OFFCURVE",
"75 87 OFFCURVE",
"75 356 CURVE SMOOTH",
"75 646 OFFCURVE",
"301 734 OFFCURVE",
"445 734 CURVE SMOOTH",
"580 734 OFFCURVE",
"688 689 OFFCURVE",
"740 481 CURVE",
"738 475 OFFCURVE",
"729 471 OFFCURVE",
"722 470 CURVE",
"676 572 OFFCURVE",
"613 699 OFFCURVE",
"445 699 CURVE SMOOTH",
"247 699 OFFCURVE",
"184 506 OFFCURVE",
"184 356 CURVE SMOOTH",
"184 190 OFFCURVE",
"275 40 OFFCURVE",
"487 40 CURVE SMOOTH",
"576 40 OFFCURVE",
"652 68 OFFCURVE",
"702 129 CURVE",
"712 129 OFFCURVE",
"720 122 OFFCURVE",
"720 114 CURVE",
"656 20 OFFCURVE",
"533 -20 OFFCURVE",
"445 -20 CURVE SMOOTH",
"442 -20 LINE"
);
},
{
closed = 1;
nodes = (
"318 -192 LINE",
"347 -237 OFFCURVE",
"388 -259 OFFCURVE",
"472 -259 CURVE SMOOTH",
"558 -259 OFFCURVE",
"603 -207 OFFCURVE",
"603 -153 CURVE SMOOTH",
"603 -94 OFFCURVE",
"562 -63 OFFCURVE",
"497 -63 CURVE",
"506 -34 LINE",
"589 -19 OFFCURVE",
"684 26 OFFCURVE",
"740 107 CURVE",
"740 129 OFFCURVE",
"719 149 OFFCURVE",
"693 149 CURVE",
"647 93 OFFCURVE",
"581 64 OFFCURVE",
"506 60 CURVE",
"333 68 OFFCURVE",
"259 205 OFFCURVE",
"259 356 CURVE SMOOTH",
"259 492 OFFCURVE",
"308 667 OFFCURVE",
"464 678 CURVE",
"605 668 OFFCURVE",
"666 546 OFFCURVE",
"710 448 CURVE",
"730 451 OFFCURVE",
"752 462 OFFCURVE",
"762 483 CURVE",
"732 571 OFFCURVE",
"724 630 OFFCURVE",
"747 710 CURVE",
"630 725 OFFCURVE",
"592 754 OFFCURVE",
"465 754 CURVE SMOOTH",
"298 754 OFFCURVE",
"55 672 OFFCURVE",
"55 356 CURVE SMOOTH",
"55 90 OFFCURVE",
"236 -13 OFFCURVE",
"384 -35 CURVE",
"350 -151 LINE"
);
}
);
width = 810;
}
);
unicode = 00C7;
},
{
glyphname = D;
layers = (
{
hints = (
{
place = "{155, 135}";
},
{
place = "{685, 156}";
},
{
place = "{295, -140}";
},
{
horizontal = 1;
place = "{772, -20}";
target = down;
type = TopGhost;
},
{
horizontal = 1;
place = "{771, -20}";
target = down;
type = TopGhost;
}
);
layerId = UUID0;
paths = (
{
closed = 1;
nodes = (
"252 546 OFFCURVE",
"251 443 OFFCURVE",
"251 339 CURVE SMOOTH",
"251 249 OFFCURVE",
"253 158 OFFCURVE",
"256 36 CURVE",
"283 35 OFFCURVE",
"311 35 OFFCURVE",
"336 35 CURVE SMOOTH",
"551 35 OFFCURVE",
"658 171 OFFCURVE",
"658 361 CURVE SMOOTH",
"658 501 OFFCURVE",
"596 683 OFFCURVE",
"369 683 CURVE SMOOTH",
"334 683 OFFCURVE",
"292 681 OFFCURVE",
"257 677 CURVE"
);
},
{
closed = 1;
nodes = (
"572 -20 OFFCURVE",
"842 56 OFFCURVE",
"842 360 CURVE SMOOTH",
"842 678 OFFCURVE",
"618 738 OFFCURVE",
"410 738 CURVE SMOOTH",
"268 738 OFFCURVE",
"157 737 OFFCURVE",
"36 739 CURVE",
"28 713 OFFCURVE",
"28 699 OFFCURVE",
"34 676 CURVE",
"74 672 OFFCURVE",
"142 666 OFFCURVE",
"143 647 CURVE SMOOTH",
"147 555 OFFCURVE",
"148 465 OFFCURVE",
"148 375 CURVE SMOOTH",
"148 272 OFFCURVE",
"146 170 OFFCURVE",
"142 68 CURVE SMOOTH",
"141 49 OFFCURVE",
"75 43 OFFCURVE",
"35 39 CURVE",
"25 14 OFFCURVE",
"27 -1 OFFCURVE",
"35 -24 CURVE",
"157 -21 OFFCURVE",
"216 -20 OFFCURVE",
"362 -20 CURVE SMOOTH"
);
},
{
closed = 1;
nodes = (
"347 661 OFFCURVE",
"363 662 OFFCURVE",
"378 662 CURVE SMOOTH",
"581 657 OFFCURVE",
"638 490 OFFCURVE",
"638 361 CURVE SMOOTH",
"638 187 OFFCURVE",
"543 61 OFFCURVE",
"330 55 CURVE",
"327 177 OFFCURVE",
"326 249 OFFCURVE",
"326 339 CURVE SMOOTH",
"326 443 OFFCURVE",
"328 545 OFFCURVE",
"332 659 CURVE"
);
},
{
closed = 1;
nodes = (
"46 5 OFFCURVE",
"46 13 OFFCURVE",
"49 20 CURVE",
"91 24 OFFCURVE",
"161 31 OFFCURVE",
"162 67 CURVE SMOOTH",
"166 169 OFFCURVE",
"168 272 OFFCURVE",
"168 375 CURVE SMOOTH",
"168 465 OFFCURVE",
"167 556 OFFCURVE",
"163 648 CURVE SMOOTH",
"162 684 OFFCURVE",
"92 691 OFFCURVE",
"50 695 CURVE",
"48 702 OFFCURVE",
"47 711 OFFCURVE",
"50 718 CURVE",
"157 711 OFFCURVE",
"268 718 OFFCURVE",
"375 718 CURVE SMOOTH",
"563 718 OFFCURVE",
"767 661 OFFCURVE",
"767 361 CURVE SMOOTH",
"767 72 OFFCURVE",
"519 0 OFFCURVE",
"327 0 CURVE",
"218 0 OFFCURVE",
"119 -1 OFFCURVE",
"49 -3 CURVE"
);
}
);
width = 892;
}
);
unicode = 0044;
},
{
glyphname = Eth;
layers = (
{
background = {
paths = (
{
closed = 1;
nodes = (
"276 36 LINE",
"297 35 OFFCURVE",
"317 35 OFFCURVE",
"336 35 CURVE SMOOTH",
"551 35 OFFCURVE",
"658 171 OFFCURVE",
"658 361 CURVE SMOOTH",
"658 501 OFFCURVE",
"596 683 OFFCURVE",
"369 683 CURVE SMOOTH",
"340 683 OFFCURVE",
"306 681 OFFCURVE",
"277 677 CURVE",
"273 557 OFFCURVE",
"271 466 OFFCURVE",
"271 374 CURVE",
"326 374 OFFCURVE",
"381 375 OFFCURVE",
"436 378 CURVE",
"436 331 LINE",
"381 332 OFFCURVE",
"326 334 OFFCURVE",
"271 334 CURVE",
"271 245 OFFCURVE",
"273 156 OFFCURVE",
"276 67 CURVE"
);
},
{
closed = 1;
nodes = (
"91 24 OFFCURVE",
"161 31 OFFCURVE",
"162 67 CURVE SMOOTH",
"165 155 OFFCURVE",
"167 244 OFFCURVE",
"168 333 CURVE",
"129 333 OFFCURVE",
"90 332 OFFCURVE",
"52 331 CURVE",
"52 378 LINE",
"90 376 OFFCURVE",
"129 375 OFFCURVE",
"168 374 CURVE",
"168 375 LINE",
"168 465 OFFCURVE",
"167 556 OFFCURVE",
"163 648 CURVE SMOOTH",
"162 684 OFFCURVE",
"92 691 OFFCURVE",
"50 695 CURVE",
"49 699 OFFCURVE",
"48 703 OFFCURVE",
"48 707 CURVE SMOOTH",
"48 711 OFFCURVE",
"49 714 OFFCURVE",
"50 718 CURVE",
"105 716 OFFCURVE",
"163 714 OFFCURVE",
"221 714 CURVE SMOOTH",
"225 714 LINE SMOOTH",
"286 716 OFFCURVE",
"311 718 OFFCURVE",
"375 718 CURVE SMOOTH",
"573 718 OFFCURVE",
"787 661 OFFCURVE",
"787 361 CURVE",
"769 73 OFFCURVE",
"528 0 OFFCURVE",
"327 0 CURVE SMOOTH",
"276 0 LINE SMOOTH",
"210 0 OFFCURVE",
"112 -1 OFFCURVE",
"49 -3 CURVE",
"48 0 OFFCURVE",
"47 4 OFFCURVE",
"47 7 CURVE SMOOTH",
"47 11 OFFCURVE",
"48 15 OFFCURVE",
"49 20 CURVE"
);
},
{
closed = 1;
nodes = (
"29 20 LINE",
"29 19 OFFCURVE",
"28 19 OFFCURVE",
"28 18 CURVE",
"29 23 LINE SMOOTH",
"27 15 OFFCURVE",
"27 10 OFFCURVE",
"27 7 CURVE SMOOTH",
"27 2 OFFCURVE",
"31 -11 OFFCURVE",
"35 -23 CURVE",
"45 -22 OFFCURVE",
"57 -22 OFFCURVE",
"69 -22 CURVE SMOOTH",
"69 -22 OFFCURVE",
"70 -22 OFFCURVE",
"70 -23 CURVE",
"133 -21 OFFCURVE",
"245 -20 OFFCURVE",
"311 -20 CURVE SMOOTH",
"327 -20 LINE",
"343 -20 LINE",
"362 -20 LINE SMOOTH",
"572 -20 OFFCURVE",
"823 57 OFFCURVE",
"842 360 CURVE",
"842 678 OFFCURVE",
"618 738 OFFCURVE",
"410 738 CURVE SMOOTH",
"390 738 LINE",
"375 738 LINE SMOOTH",
"329 738 OFFCURVE",
"302 737 OFFCURVE",
"270 736 CURVE SMOOTH",
"226 734 LINE",
"174 734 OFFCURVE",
"117 737 OFFCURVE",
"71 739 CURVE",
"71 738 OFFCURVE",
"70 738 OFFCURVE",
"70 737 CURVE",
"36 739 LINE",
"28 719 OFFCURVE",
"28 713 OFFCURVE",
"28 707 CURVE SMOOTH",
"28 700 OFFCURVE",
"31 688 OFFCURVE",
"34 676 CURVE",
"74 672 OFFCURVE",
"142 666 OFFCURVE",
"143 647 CURVE SMOOTH",
"147 562 OFFCURVE",
"148 479 OFFCURVE",
"148 395 CURVE",
"120 396 OFFCURVE",
"93 397 OFFCURVE",
"67 399 CURVE",
"67 397 LINE",
"55 397 OFFCURVE",
"43 398 OFFCURVE",
"32 399 CURVE",
"32 310 LINE",
"67 311 LINE",
"67 310 LINE",
"148 312 LINE",
"147 223 OFFCURVE",
"145 155 OFFCURVE",
"142 68 CURVE SMOOTH",
"141 49 OFFCURVE",
"82 43 OFFCURVE",
"47 40 CURVE"
);
},
{
closed = 1;
nodes = (
"331 67 LINE",
"328 149 OFFCURVE",
"326 232 OFFCURVE",
"326 314 CURVE",
"342 313 OFFCURVE",
"357 312 OFFCURVE",
"380 312 CURVE SMOOTH",
"398 312 OFFCURVE",
"438 311 OFFCURVE",
"456 311 CURVE SMOOTH",
"491 311 LINE",
"491 399 LINE",
"480 398 OFFCURVE",
"468 397 OFFCURVE",
"456 397 CURVE",
"456 399 LINE",
"417 396 OFFCURVE",
"370 394 OFFCURVE",
"326 394 CURVE",
"326 484 OFFCURVE",
"327 544 OFFCURVE",
"331 659 CURVE",
"346 661 OFFCURVE",
"362 662 OFFCURVE",
"377 662 CURVE SMOOTH",
"581 658 OFFCURVE",
"638 490 OFFCURVE",
"638 361 CURVE SMOOTH",
"638 183 OFFCURVE",
"538 55 OFFCURVE",
"336 55 CURVE SMOOTH",
"331 55 LINE"
);
}
);
};
hints = (
{
place = "{172, 98}";
},
{
place = "{753, 113}";
},
{
place = "{155, 135}";
},
{
place = "{685, 156}";
},
{
place = "{295, -140}";
},
{
horizontal = 1;
place = "{0, 44}";
},
{
horizontal = 1;
place = "{383, 44}";
},
{
horizontal = 1;
place = "{747, 44}";
},
{
horizontal = 1;
place = "{772, -20}";
target = down;
type = TopGhost;
},
{
horizontal = 1;
place = "{771, -20}";
target = down;
type = TopGhost;
}
);
layerId = UUID0;
paths = (
{
closed = 1;
nodes = (
"327 480 OFFCURVE",
"329 564 OFFCURVE",
"332 659 CURVE",
"347 661 OFFCURVE",
"363 662 OFFCURVE",
"378 662 CURVE SMOOTH",
"581 657 OFFCURVE",
"638 490 OFFCURVE",
"638 361 CURVE SMOOTH",
"638 187 OFFCURVE",
"543 61 OFFCURVE",
"330 55 CURVE",
"327 167 OFFCURVE",
"326 234 OFFCURVE",
"326 314 CURVE",
"373 311 OFFCURVE",
"415 311 OFFCURVE",
"491 311 CURVE",
"491 399 LINE",
"417 396 OFFCURVE",
"370 394 OFFCURVE",
"326 394 CURVE"
);
},
{
closed = 1;
nodes = (
"168 464 OFFCURVE",
"167 556 OFFCURVE",
"163 648 CURVE SMOOTH",
"162 684 OFFCURVE",
"92 691 OFFCURVE",
"50 695 CURVE",
"48 702 OFFCURVE",
"47 711 OFFCURVE",
"50 718 CURVE",
"157 711 OFFCURVE",
"268 718 OFFCURVE",
"375 718 CURVE SMOOTH",
"563 718 OFFCURVE",
"767 661 OFFCURVE",
"767 361 CURVE SMOOTH",
"767 72 OFFCURVE",
"519 0 OFFCURVE",
"327 0 CURVE SMOOTH",
"218 0 OFFCURVE",
"119 -1 OFFCURVE",
"49 -3 CURVE",
"46 5 OFFCURVE",
"46 13 OFFCURVE",
"49 20 CURVE",
"91 24 OFFCURVE",
"161 31 OFFCURVE",
"162 67 CURVE SMOOTH",
"166 169 OFFCURVE",
"168 230 OFFCURVE",
"168 333 CURVE",
"129 333 OFFCURVE",
"90 332 OFFCURVE",
"52 331 CURVE",
"52 378 LINE",
"90 376 OFFCURVE",
"129 375 OFFCURVE",
"168 374 CURVE"
);
},
{
closed = 1;
nodes = (
"315 374 OFFCURVE",
"402 375 OFFCURVE",
"466 378 CURVE",
"466 331 LINE",
"402 332 OFFCURVE",
"315 334 OFFCURVE",
"251 334 CURVE",
"251 244 OFFCURVE",
"253 158 OFFCURVE",
"256 36 CURVE",
"283 35 OFFCURVE",
"311 35 OFFCURVE",
"336 35 CURVE SMOOTH",
"551 35 OFFCURVE",
"658 171 OFFCURVE",
"658 361 CURVE SMOOTH",
"658 501 OFFCURVE",
"596 683 OFFCURVE",
"369 683 CURVE SMOOTH",
"334 683 OFFCURVE",
"292 681 OFFCURVE",
"257 677 CURVE",
"252 546 OFFCURVE",
"251 478 OFFCURVE",
"251 374 CURVE"
);
},
{
closed = 1;
nodes = (
"120 396 OFFCURVE",
"93 397 OFFCURVE",
"67 399 CURVE",
"32 399 LINE",
"32 310 LINE",
"67 310 LINE",
"148 312 LINE",
"148 230 OFFCURVE",
"145 149 OFFCURVE",
"142 68 CURVE SMOOTH",
"141 49 OFFCURVE",
"75 43 OFFCURVE",
"35 39 CURVE",
"25 14 OFFCURVE",
"27 -1 OFFCURVE",
"35 -24 CURVE",
"157 -21 OFFCURVE",
"216 -20 OFFCURVE",
"362 -20 CURVE SMOOTH",
"572 -20 OFFCURVE",
"842 56 OFFCURVE",
"842 360 CURVE SMOOTH",
"842 678 OFFCURVE",
"618 738 OFFCURVE",
"410 738 CURVE SMOOTH",
"268 738 OFFCURVE",
"157 737 OFFCURVE",
"36 739 CURVE",
"28 713 OFFCURVE",
"28 699 OFFCURVE",
"34 676 CURVE",
"74 672 OFFCURVE",
"142 666 OFFCURVE",
"143 647 CURVE SMOOTH",
"147 561 OFFCURVE",
"148 479 OFFCURVE",
"148 395 CURVE"
);
}
);
width = 892;
}
);
unicode = 00D0;
},
{
glyphname = E;
layers = (
{
background = {
paths = (
{
closed = 1;
nodes = (
"1017 0 LINE",
"951 0 OFFCURVE",
"853 -1 OFFCURVE",
"790 -3 CURVE",
"787 5 OFFCURVE",
"789 12 OFFCURVE",
"790 20 CURVE",
"832 24 OFFCURVE",
"902 31 OFFCURVE",
"903 67 CURVE SMOOTH",
"907 169 OFFCURVE",
"909 272 OFFCURVE",
"909 375 CURVE SMOOTH",
"909 465 OFFCURVE",
"908 556 OFFCURVE",
"904 648 CURVE SMOOTH",
"903 684 OFFCURVE",
"833 691 OFFCURVE",
"791 695 CURVE",
"791 718 LINE",
"846 716 OFFCURVE",
"904 714 OFFCURVE",
"962 714 CURVE SMOOTH",
"1154 714 OFFCURVE",
"1290 714 OFFCURVE",
"1426 718 CURVE",
"1435 645 OFFCURVE",
"1468 584 OFFCURVE",
"1498 532 CURVE",
"1495 526 OFFCURVE",
"1489 522 OFFCURVE",
"1481 519 CURVE",
"1437 601 OFFCURVE",
"1352 671 OFFCURVE",
"1153 684 CURVE",
"1018 684 LINE",
"1014 557 OFFCURVE",
"1012 465 OFFCURVE",
"1012 373 CURVE",
"1151 373 LINE SMOOTH",
"1238 373 OFFCURVE",
"1263 442 OFFCURVE",
"1306 524 CURVE",
"1314 521 OFFCURVE",
"1322 517 OFFCURVE",
"1325 511 CURVE",
"1298 464 OFFCURVE",
"1276 398 OFFCURVE",
"1276 358 CURVE SMOOTH",
"1276 304 OFFCURVE",
"1298 251 OFFCURVE",
"1325 205 CURVE",
"1322 199 OFFCURVE",
"1314 195 OFFCURVE",
"1306 192 CURVE",
"1264 268 OFFCURVE",
"1238 343 OFFCURVE",
"1151 343 CURVE SMOOTH",
"1012 343 LINE",
"1012 339 LINE SMOOTH",
"1012 249 OFFCURVE",
"1014 158 OFFCURVE",
"1017 30 CURVE",
"1173 30 LINE",
"1372 43 OFFCURVE",
"1457 113 OFFCURVE",
"1501 195 CURVE",
"1509 192 OFFCURVE",
"1515 188 OFFCURVE",
"1518 182 CURVE",
"1488 126 OFFCURVE",
"1455 73 OFFCURVE",
"1446 0 CURVE"
);
},
{
closed = 1;
nodes = (
"444 344 LINE",
"383 344 OFFCURVE",
"310 343 OFFCURVE",
"250 342 CURVE",
"250 254 OFFCURVE",
"252 155 OFFCURVE",
"255 67 CURVE SMOOTH",
"256 31 OFFCURVE",
"356 24 OFFCURVE",
"418 20 CURVE",
"420 12 OFFCURVE",
"421 4 OFFCURVE",
"418 -3 CURVE",
"354 -1 OFFCURVE",
"284 0 OFFCURVE",
"218 0 CURVE SMOOTH",
"160 0 OFFCURVE",
"103 -1 OFFCURVE",
"48 -3 CURVE",
"46 5 OFFCURVE",
"45 13 OFFCURVE",
"48 20 CURVE",
"90 24 OFFCURVE",
"160 31 OFFCURVE",
"161 67 CURVE SMOOTH",
"165 169 OFFCURVE",
"167 272 OFFCURVE",
"167 375 CURVE SMOOTH",
"167 465 OFFCURVE",
"166 556 OFFCURVE",
"162 648 CURVE SMOOTH",
"161 684 OFFCURVE",
"91 691 OFFCURVE",
"49 695 CURVE",
"47 702 OFFCURVE",
"46 711 OFFCURVE",
"49 718 CURVE",
"104 716 OFFCURVE",
"161 714 OFFCURVE",
"219 714 CURVE SMOOTH",
"285 714 OFFCURVE",
"355 716 OFFCURVE",
"419 718 CURVE",
"421 710 OFFCURVE",
"422 703 OFFCURVE",
"419 695 CURVE",
"357 691 OFFCURVE",
"257 684 OFFCURVE",
"256 648 CURVE",
"251 558 OFFCURVE",
"250 468 OFFCURVE",
"250 376 CURVE",
"310 374 OFFCURVE",
"383 374 OFFCURVE",
"444 374 CURVE"
);
},
{
closed = 1;
nodes = (
"444 394 LINE",
"400 393 OFFCURVE",
"343 394 OFFCURVE",
"325 395 CURVE",
"325 487 OFFCURVE",
"327 557 OFFCURVE",
"331 647 CURVE SMOOTH",
"332 666 OFFCURVE",
"400 672 OFFCURVE",
"440 676 CURVE",
"446 701 OFFCURVE",
"446 714 OFFCURVE",
"439 736 CURVE",
"358 736 OFFCURVE",
"303 734 OFFCURVE",
"254 734 CURVE SMOOTH",
"196 734 OFFCURVE",
"122 738 OFFCURVE",
"35 739 CURVE",
"27 713 OFFCURVE",
"27 699 OFFCURVE",
"33 676 CURVE",
"73 672 OFFCURVE",
"141 666 OFFCURVE",
"142 647 CURVE SMOOTH",
"146 555 OFFCURVE",
"147 465 OFFCURVE",
"147 375 CURVE SMOOTH",
"147 272 OFFCURVE",
"145 170 OFFCURVE",
"141 68 CURVE SMOOTH",
"140 49 OFFCURVE",
"74 43 OFFCURVE",
"34 39 CURVE",
"24 14 OFFCURVE",
"26 -1 OFFCURVE",
"34 -24 CURVE",
"113 -22 OFFCURVE",
"168 -20 OFFCURVE",
"218 -20 CURVE SMOOTH",
"275 -20 OFFCURVE",
"347 -22 OFFCURVE",
"437 -24 CURVE",
"445 1 OFFCURVE",
"446 15 OFFCURVE",
"440 36 CURVE",
"398 42 OFFCURVE",
"330 49 OFFCURVE",
"330 68 CURVE",
"327 147 OFFCURVE",
"325 234 OFFCURVE",
"325 313 CURVE",
"345 313 OFFCURVE",
"373 314 OFFCURVE",
"444 314 CURVE"
);
}
);
};
layerId = UUID0;
paths = (
{
closed = 1;
nodes = (
"220 714 LINE",
"162 714 OFFCURVE",
"104 716 OFFCURVE",
"49 718 CURVE",
"49 695 LINE",
"91 691 OFFCURVE",
"161 684 OFFCURVE",
"162 648 CURVE SMOOTH",
"166 556 OFFCURVE",
"167 465 OFFCURVE",
"167 375 CURVE SMOOTH",
"167 272 OFFCURVE",
"165 169 OFFCURVE",
"161 67 CURVE",
"160 31 OFFCURVE",
"90 24 OFFCURVE",
"48 20 CURVE",
"47 12 OFFCURVE",
"45 5 OFFCURVE",
"48 -3 CURVE",
"111 -1 OFFCURVE",
"209 0 OFFCURVE",
"275 0 CURVE",
"486 0 LINE SMOOTH",
"653 0 OFFCURVE",
"714 57 OFFCURVE",
"776 182 CURVE",
"773 188 OFFCURVE",
"767 192 OFFCURVE",
"759 195 CURVE",
"715 113 OFFCURVE",
"630 30 OFFCURVE",
"431 30 CURVE SMOOTH",
"255 30 LINE",
"252 158 OFFCURVE",
"250 248 OFFCURVE",
"250 342 CURVE",
"409 343 LINE",
"496 343 OFFCURVE",
"522 268 OFFCURVE",
"564 192 CURVE",
"572 195 OFFCURVE",
"580 199 OFFCURVE",
"583 205 CURVE",
"556 251 OFFCURVE",
"534 304 OFFCURVE",
"534 358 CURVE SMOOTH",
"534 398 OFFCURVE",
"556 464 OFFCURVE",
"583 511 CURVE",
"580 517 OFFCURVE",
"572 521 OFFCURVE",
"564 524 CURVE",
"521 442 OFFCURVE",
"496 374 OFFCURVE",
"409 374 CURVE",
"357 374 OFFCURVE",
"304 374 OFFCURVE",
"250 376 CURVE",
"250 468 OFFCURVE",
"252 557 OFFCURVE",
"256 684 CURVE",
"411 684 LINE SMOOTH",
"610 684 OFFCURVE",
"695 601 OFFCURVE",
"739 519 CURVE",
"747 522 OFFCURVE",
"753 526 OFFCURVE",
"756 532 CURVE",
"694 657 OFFCURVE",
"633 714 OFFCURVE",
"466 714 CURVE SMOOTH"
);
},
{
closed = 1;
nodes = (
"554 549 LINE",
"576 541 OFFCURVE",
"597 530 OFFCURVE",
"606 511 CURVE",
"577 461 OFFCURVE",
"554 394 OFFCURVE",
"554 358 CURVE SMOOTH",
"554 309 OFFCURVE",
"577 254 OFFCURVE",
"606 205 CURVE",
"596 185 OFFCURVE",
"576 174 OFFCURVE",
"556 167 CURVE",
"550 177 OFFCURVE",
"535 203 OFFCURVE",
"530 213 CURVE SMOOTH",
"500 264 OFFCURVE",
"473 310 OFFCURVE",
"413 313 CURVE",
"325 313 LINE",
"325 233 OFFCURVE",
"326 166 OFFCURVE",
"329 50 CURVE",
"430 50 LINE SMOOTH",
"611 50 OFFCURVE",
"705 137 OFFCURVE",
"750 220 CURVE",
"772 212 OFFCURVE",
"793 201 OFFCURVE",
"802 182 CURVE",
"757 107 OFFCURVE",
"736 57 OFFCURVE",
"726 -20 CURVE",
"321 -20 LINE SMOOTH",
"255 -20 OFFCURVE",
"97 -21 OFFCURVE",
"34 -23 CURVE",
"27 -1 OFFCURVE",
"25 12 OFFCURVE",
"33 39 CURVE",
"73 43 OFFCURVE",
"140 49 OFFCURVE",
"141 68 CURVE SMOOTH",
"145 170 OFFCURVE",
"147 272 OFFCURVE",
"147 375 CURVE SMOOTH",
"147 465 OFFCURVE",
"146 555 OFFCURVE",
"142 647 CURVE SMOOTH",
"141 666 OFFCURVE",
"73 672 OFFCURVE",
"33 676 CURVE",
"27 699 OFFCURVE",
"26 715 OFFCURVE",
"35 739 CURVE",
"95 737 OFFCURVE",
"171 734 OFFCURVE",
"234 734 CURVE SMOOTH",
"706 734 LINE",
"716 657 OFFCURVE",
"737 607 OFFCURVE",
"782 532 CURVE",
"773 513 OFFCURVE",
"752 502 OFFCURVE",
"730 494 CURVE",
"685 577 OFFCURVE",
"591 664 OFFCURVE",
"410 664 CURVE SMOOTH",
"330 664 LINE",
"327 559 OFFCURVE",
"325 478 OFFCURVE",
"325 395 CURVE",
"356 394 OFFCURVE",
"385 394 OFFCURVE",
"414 394 CURVE SMOOTH",
"475 394 OFFCURVE",
"502 446 OFFCURVE",
"533 508 CURVE"
);
}
);
width = 837;
}
);
unicode = 0045;
},
{
glyphname = F;
layers = (
{
background = {
paths = (
{
closed = 1;
nodes = (
"166 169 OFFCURVE",
"168 272 OFFCURVE",
"168 375 CURVE SMOOTH",
"168 465 OFFCURVE",
"167 556 OFFCURVE",
"163 648 CURVE SMOOTH",
"162 684 OFFCURVE",
"92 690 OFFCURVE",
"50 694 CURVE",
"49 698 OFFCURVE",
"48 702 OFFCURVE",
"48 706 CURVE SMOOTH",
"48 710 OFFCURVE",
"49 713 OFFCURVE",
"50 717 CURVE",
"105 715 OFFCURVE",
"163 714 OFFCURVE",
"221 714 CURVE SMOOTH",
"277 714 LINE SMOOTH",
"413 715 OFFCURVE",
"538 714 OFFCURVE",
"674 718 CURVE",
"683 645 OFFCURVE",
"716 584 OFFCURVE",
"746 532 CURVE",
"743 526 OFFCURVE",
"737 522 OFFCURVE",
"729 519 CURVE",
"685 601 OFFCURVE",
"600 671 OFFCURVE",
"401 684 CURVE",
"277 684 LINE",
"273 554 OFFCURVE",
"271 460 OFFCURVE",
"271 365 CURVE",
"410 365 LINE SMOOTH",
"485 365 OFFCURVE",
"507 433 OFFCURVE",
"545 515 CURVE",
"552 512 OFFCURVE",
"562 509 OFFCURVE",
"564 503 CURVE",
"546 457 OFFCURVE",
"535 403 OFFCURVE",
"535 350 CURVE SMOOTH",
"535 296 OFFCURVE",
"546 243 OFFCURVE",
"564 197 CURVE",
"561 191 OFFCURVE",
"553 187 OFFCURVE",
"545 184 CURVE",
"512 264 OFFCURVE",
"485 335 OFFCURVE",
"410 335 CURVE SMOOTH",
"271 335 LINE",
"271 246 OFFCURVE",
"273 156 OFFCURVE",
"276 67 CURVE SMOOTH",
"277 31 OFFCURVE",
"347 24 OFFCURVE",
"389 20 CURVE",
"390 15 OFFCURVE",
"391 11 OFFCURVE",
"391 7 CURVE SMOOTH",
"391 4 OFFCURVE",
"390 0 OFFCURVE",
"389 -3 CURVE",
"334 -1 OFFCURVE",
"276 0 OFFCURVE",
"219 0 CURVE SMOOTH",
"161 0 OFFCURVE",
"104 -1 OFFCURVE",
"49 -3 CURVE",
"48 0 OFFCURVE",
"47 4 OFFCURVE",
"47 7 CURVE SMOOTH",
"47 11 OFFCURVE",
"48 15 OFFCURVE",
"49 20 CURVE",
"91 24 OFFCURVE",
"162 31 OFFCURVE",
"162 67 CURVE"
);
},
{
closed = 1;
nodes = (
"142 67 LINE",
"142 49 OFFCURVE",
"74 43 OFFCURVE",
"34 39 CURVE",
"27 18 OFFCURVE",
"27 12 OFFCURVE",
"27 7 CURVE SMOOTH",
"27 2 OFFCURVE",
"31 -12 OFFCURVE",
"35 -24 CURVE",
"69 -22 LINE",
"69 -23 OFFCURVE",
"70 -23 OFFCURVE",
"70 -24 CURVE",
"114 -22 OFFCURVE",
"168 -20 OFFCURVE",
"218 -20 CURVE",
"219 -20 LINE",
"254 -20 LINE SMOOTH",
"303 -20 OFFCURVE",
"359 -22 OFFCURVE",
"403 -24 CURVE",
"403 -22 LINE",
"438 -24 LINE",
"442 -12 OFFCURVE",
"446 2 OFFCURVE",
"446 7 CURVE SMOOTH",
"446 11 OFFCURVE",
"446 16 OFFCURVE",
"441 36 CURVE",
"399 42 OFFCURVE",
"331 49 OFFCURVE",
"331 68 CURVE",
"328 150 OFFCURVE",
"326 233 OFFCURVE",
"326 315 CURVE",
"414 315 LINE",
"472 311 OFFCURVE",
"501 239 OFFCURVE",
"534 158 CURVE",
"544 162 OFFCURVE",
"554 166 OFFCURVE",
"563 172 CURVE",
"569 158 LINE",
"591 166 OFFCURVE",
"612 177 OFFCURVE",
"621 196 CURVE",
"602 245 OFFCURVE",
"590 299 OFFCURVE",
"590 350 CURVE SMOOTH",
"590 400 OFFCURVE",
"602 454 OFFCURVE",
"621 503 CURVE",
"611 526 OFFCURVE",
"600 529 OFFCURVE",
"589 534 CURVE",
"588 534 OFFCURVE",
"567 535 OFFCURVE",
"566 535 CURVE",
"563 529 LINE",
"554 534 LINE",
"553 534 OFFCURVE",
"532 535 OFFCURVE",
"531 535 CURVE",
"515 497 LINE",
"516 498 LINE SMOOTH",
"487 436 OFFCURVE",
"465 387 OFFCURVE",
"414 385 CURVE",
"326 385 LINE",
"326 470 OFFCURVE",
"328 557 OFFCURVE",
"331 664 CURVE",
"400 664 LINE",
"580 650 OFFCURVE",
"675 576 OFFCURVE",
"720 494 CURVE",
"730 498 OFFCURVE",
"739 502 OFFCURVE",
"747 507 CURVE",
"755 494 LINE",
"778 503 OFFCURVE",
"795 514 OFFCURVE",
"804 532 CURVE",
"773 586 OFFCURVE",
"738 651 OFFCURVE",
"727 739 CURVE",
"715 738 OFFCURVE",
"704 738 OFFCURVE",
"692 738 CURVE",
"692 739 LINE",
"595 736 OFFCURVE",
"485 735 OFFCURVE",
"391 735 CURVE SMOOTH",
"389 735 LINE SMOOTH",
"365 735 OFFCURVE",
"340 734 OFFCURVE",
"314 734 CURVE SMOOTH",
"312 734 LINE",
"221 734 LINE SMOOTH",
"171 734 OFFCURVE",
"115 736 OFFCURVE",
"71 738 CURVE",
"71 737 OFFCURVE",
"70 737 OFFCURVE",
"70 736 CURVE",
"36 738 LINE",
"28 718 OFFCURVE",
"28 712 OFFCURVE",
"28 706 CURVE SMOOTH",
"28 699 OFFCURVE",
"31 687 OFFCURVE",
"34 675 CURVE",
"75 671 OFFCURVE",
"143 666 OFFCURVE",
"143 647 CURVE",
"147 555 OFFCURVE",
"148 465 OFFCURVE",
"148 375 CURVE SMOOTH",
"148 272 OFFCURVE",
"146 170 OFFCURVE",
"142 68 CURVE"
);
}
);
};
layerId = UUID0;
paths = (
{
closed = 1;
nodes = (
"394 313 LINE",
"454 310 OFFCURVE",
"481 264 OFFCURVE",
"511 213 CURVE SMOOTH",
"516 203 OFFCURVE",
"530 177 OFFCURVE",
"537 167 CURVE",
"557 174 OFFCURVE",
"577 185 OFFCURVE",
"587 205 CURVE",
"558 254 OFFCURVE",
"535 309 OFFCURVE",
"535 358 CURVE SMOOTH",
"535 394 OFFCURVE",
"559 461 OFFCURVE",
"587 511 CURVE",
"578 530 OFFCURVE",
"557 541 OFFCURVE",
"535 549 CURVE",
"514 508 LINE SMOOTH",
"483 446 OFFCURVE",
"456 394 OFFCURVE",
"395 394 CURVE SMOOTH",
"372 394 OFFCURVE",
"350 394 OFFCURVE",
"326 395 CURVE",
"326 478 OFFCURVE",
"328 559 OFFCURVE",
"331 664 CURVE",
"391 664 LINE SMOOTH",
"572 664 OFFCURVE",
"666 577 OFFCURVE",
"711 494 CURVE",
"733 502 OFFCURVE",
"754 513 OFFCURVE",
"763 532 CURVE",
"718 607 OFFCURVE",
"697 657 OFFCURVE",
"687 734 CURVE",
"235 734 LINE SMOOTH",
"172 734 OFFCURVE",
"96 737 OFFCURVE",
"36 739 CURVE",
"27 715 OFFCURVE",
"28 699 OFFCURVE",
"34 676 CURVE",
"74 672 OFFCURVE",
"142 666 OFFCURVE",
"143 647 CURVE SMOOTH",
"147 555 OFFCURVE",
"148 465 OFFCURVE",
"148 375 CURVE",
"148 272 OFFCURVE",
"147 170 OFFCURVE",
"142 68 CURVE SMOOTH",
"141 49 OFFCURVE",
"75 43 OFFCURVE",
"35 39 CURVE",
"25 14 OFFCURVE",
"27 -1 OFFCURVE",
"35 -24 CURVE",
"114 -22 OFFCURVE",
"169 -20 OFFCURVE",
"219 -20 CURVE SMOOTH",
"276 -20 OFFCURVE",
"348 -22 OFFCURVE",
"438 -24 CURVE",
"446 1 OFFCURVE",
"447 15 OFFCURVE",
"441 36 CURVE",
"399 42 OFFCURVE",
"332 49 OFFCURVE",
"331 67 CURVE SMOOTH",
"328 145 OFFCURVE",
"326 243 OFFCURVE",
"326 313 CURVE"
);
},
{
closed = 1;
nodes = (
"251 342 LINE",
"251 260 OFFCURVE",
"252 159 OFFCURVE",
"256 67 CURVE SMOOTH",
"258 31 OFFCURVE",
"357 24 OFFCURVE",
"419 20 CURVE",
"421 12 OFFCURVE",
"422 4 OFFCURVE",
"419 -3 CURVE",
"355 -1 OFFCURVE",
"285 0 OFFCURVE",
"219 0 CURVE SMOOTH",
"161 0 OFFCURVE",
"104 -1 OFFCURVE",
"49 -3 CURVE",
"47 5 OFFCURVE",
"46 13 OFFCURVE",
"49 20 CURVE",
"91 24 OFFCURVE",
"161 31 OFFCURVE",
"162 67 CURVE SMOOTH",
"166 169 OFFCURVE",
"168 272 OFFCURVE",
"168 375 CURVE",
"168 465 OFFCURVE",
"167 556 OFFCURVE",
"163 648 CURVE SMOOTH",
"162 684 OFFCURVE",
"92 691 OFFCURVE",
"50 695 CURVE",
"50 718 LINE",
"105 716 OFFCURVE",
"163 714 OFFCURVE",
"221 714 CURVE",
"447 714 LINE SMOOTH",
"614 714 OFFCURVE",
"675 657 OFFCURVE",
"737 532 CURVE",
"734 526 OFFCURVE",
"728 522 OFFCURVE",
"720 519 CURVE",
"676 601 OFFCURVE",
"591 684 OFFCURVE",
"392 684 CURVE SMOOTH",
"257 684 LINE",
"253 557 OFFCURVE",
"251 468 OFFCURVE",
"251 376 CURVE",
"299 374 OFFCURVE",
"344 374 OFFCURVE",
"390 374 CURVE SMOOTH",
"477 374 OFFCURVE",
"502 442 OFFCURVE",
"545 524 CURVE",
"553 521 OFFCURVE",
"562 517 OFFCURVE",
"564 511 CURVE",
"537 464 OFFCURVE",
"515 398 OFFCURVE",
"515 358 CURVE SMOOTH",
"515 304 OFFCURVE",
"538 251 OFFCURVE",
"564 205 CURVE",
"561 199 OFFCURVE",
"553 195 OFFCURVE",
"545 192 CURVE",
"503 268 OFFCURVE",
"477 343 OFFCURVE",
"390 343 CURVE SMOOTH"
);
}
);
width = 786;
}
);
unicode = 0046;
},
{
glyphname = G;
layers = (
{
hints = (
{
place = "{70, 151}";
},
{
place = "{594, 140}";
},
{
horizontal = 1;
place = "{698, -20}";
target = down;
type = TopGhost;
}
);
layerId = UUID0;
paths = (
{
closed = 1;
nodes = (
"590 734 OFFCURVE",
"698 689 OFFCURVE",
"750 481 CURVE",
"748 475 OFFCURVE",
"739 471 OFFCURVE",
"732 470 CURVE",
"686 572 OFFCURVE",
"623 699 OFFCURVE",
"455 699 CURVE",
"257 699 OFFCURVE",
"184 506 OFFCURVE",
"184 356 CURVE SMOOTH",
"184 206 OFFCURVE",
"257 15 OFFCURVE",
"455 15 CURVE SMOOTH",
"507 15 OFFCURVE",
"569 23 OFFCURVE",
"604 63 CURVE",
"604 261 LINE SMOOTH",
"604 297 OFFCURVE",
"533 304 OFFCURVE",
"491 308 CURVE",
"489 316 OFFCURVE",
"489 324 OFFCURVE",
"491 331 CURVE",
"546 329 OFFCURVE",
"603 327 OFFCURVE",
"661 327 CURVE SMOOTH",
"727 327 OFFCURVE",
"797 329 OFFCURVE",
"861 331 CURVE",
"864 324 OFFCURVE",
"864 315 OFFCURVE",
"861 308 CURVE",
"800 304 OFFCURVE",
"698 297 OFFCURVE",
"698 261 CURVE SMOOTH",
"698 189 LINE SMOOTH",
"698 115 OFFCURVE",
"706 75 OFFCURVE",
"720 37 CURVE",
"632 2 OFFCURVE",
"561 -20 OFFCURVE",
"455 -20 CURVE SMOOTH",
"311 -20 OFFCURVE",
"75 56 OFFCURVE",
"75 356 CURVE SMOOTH",
"75 656 OFFCURVE",
"311 734 OFFCURVE",
"455 734 CURVE SMOOTH"
);
},
{
closed = 1;
nodes = (
"740 451 OFFCURVE",
"762 462 OFFCURVE",
"772 483 CURVE",
"742 571 OFFCURVE",
"734 630 OFFCURVE",
"757 710 CURVE",
"640 725 OFFCURVE",
"590 754 OFFCURVE",
"451 754 CURVE",
"299 754 OFFCURVE",
"55 672 OFFCURVE",
"55 356 CURVE SMOOTH",
"55 40 OFFCURVE",
"303 -40 OFFCURVE",
"455 -40 CURVE",
"629 -40 OFFCURVE",
"693 -15 OFFCURVE",
"801 25 CURVE",
"783 73 OFFCURVE",
"773 118 OFFCURVE",
"773 189 CURVE SMOOTH",
"773 261 LINE SMOOTH",
"773 279 OFFCURVE",
"841 285 OFFCURVE",
"882 289 CURVE",
"888 307 OFFCURVE",
"888 331 OFFCURVE",
"881 349 CURVE",
"751 347 OFFCURVE",
"603 346 OFFCURVE",
"477 352 CURVE",
"468 334 OFFCURVE",
"468 308 OFFCURVE",
"475 289 CURVE",
"516 285 OFFCURVE",
"584 279 OFFCURVE",
"584 261 CURVE",
"584 71 LINE",
"558 45 OFFCURVE",
"518 35 OFFCURVE",
"478 35 CURVE SMOOTH",
"319 35 OFFCURVE",
"259 218 OFFCURVE",
"259 356 CURVE SMOOTH",
"259 493 OFFCURVE",
"315 670 OFFCURVE",
"474 678 CURVE",
"615 668 OFFCURVE",
"676 546 OFFCURVE",
"720 448 CURVE"
);
}
);
width = 900;
}
);
unicode = 0047;
},
{
glyphname = H;
layers = (
{
background = {
paths = (
{
closed = 1;
nodes = (
"610 155 OFFCURVE",
"612 244 OFFCURVE",
"613 331 CURVE",
"553 333 OFFCURVE",
"493 334 OFFCURVE",
"433 334 CURVE SMOOTH",
"378 334 OFFCURVE",
"323 333 OFFCURVE",
"269 332 CURVE",
"269 244 OFFCURVE",
"271 155 OFFCURVE",
"274 67 CURVE SMOOTH",
"275 31 OFFCURVE",
"345 24 OFFCURVE",
"387 20 CURVE",
"388 15 OFFCURVE",
"389 11 OFFCURVE",
"389 7 CURVE SMOOTH",
"389 4 OFFCURVE",
"388 0 OFFCURVE",
"387 -3 CURVE",
"332 -1 OFFCURVE",
"274 0 OFFCURVE",
"217 0 CURVE SMOOTH",
"159 0 OFFCURVE",
"102 -1 OFFCURVE",
"47 -3 CURVE",
"46 0 OFFCURVE",
"45 4 OFFCURVE",
"45 7 CURVE SMOOTH",
"45 11 OFFCURVE",
"45 15 OFFCURVE",
"47 20 CURVE",
"89 24 OFFCURVE",
"159 31 OFFCURVE",
"160 67 CURVE SMOOTH",
"164 169 OFFCURVE",
"166 272 OFFCURVE",
"166 375 CURVE SMOOTH",
"166 465 OFFCURVE",
"165 556 OFFCURVE",
"161 648 CURVE SMOOTH",
"160 684 OFFCURVE",
"90 691 OFFCURVE",
"48 695 CURVE",
"47 699 OFFCURVE",
"46 703 OFFCURVE",
"46 707 CURVE SMOOTH",
"46 711 OFFCURVE",
"47 715 OFFCURVE",
"48 718 CURVE",
"103 716 OFFCURVE",
"160 714 OFFCURVE",
"218 714 CURVE SMOOTH",
"275 714 OFFCURVE",
"333 716 OFFCURVE",
"388 718 CURVE",
"389 714 OFFCURVE",
"390 711 OFFCURVE",
"390 707 CURVE SMOOTH",
"390 703 OFFCURVE",
"389 699 OFFCURVE",
"388 695 CURVE",
"346 691 OFFCURVE",
"276 684 OFFCURVE",
"275 648 CURVE SMOOTH",
"271 558 OFFCURVE",
"269 468 OFFCURVE",
"269 376 CURVE",
"323 374 OFFCURVE",
"378 374 OFFCURVE",
"433 374 CURVE SMOOTH",
"493 374 OFFCURVE",
"553 375 OFFCURVE",
"613 377 CURVE",
"612 467 OFFCURVE",
"611 558 OFFCURVE",
"608 648 CURVE SMOOTH",
"607 684 OFFCURVE",
"537 691 OFFCURVE",
"495 695 CURVE",
"494 699 OFFCURVE",
"493 703 OFFCURVE",
"493 707 CURVE SMOOTH",
"493 711 OFFCURVE",
"494 714 OFFCURVE",
"495 718 CURVE",
"550 716 OFFCURVE",
"607 714 OFFCURVE",
"665 714 CURVE SMOOTH",
"722 714 OFFCURVE",
"780 716 OFFCURVE",
"835 718 CURVE",
"836 714 OFFCURVE",
"837 711 OFFCURVE",
"837 707 CURVE SMOOTH",
"837 703 OFFCURVE",
"836 699 OFFCURVE",
"835 695 CURVE",
"793 691 OFFCURVE",
"723 684 OFFCURVE",
"722 648 CURVE SMOOTH",
"718 551 OFFCURVE",
"717 454 OFFCURVE",
"717 357 CURVE SMOOTH",
"717 261 OFFCURVE",
"718 164 OFFCURVE",
"722 67 CURVE SMOOTH",
"723 31 OFFCURVE",
"793 24 OFFCURVE",
"835 20 CURVE",
"836 16 OFFCURVE",
"837 11 OFFCURVE",
"837 7 CURVE SMOOTH",
"837 4 OFFCURVE",
"836 0 OFFCURVE",
"835 -3 CURVE",
"780 -1 OFFCURVE",
"722 0 OFFCURVE",
"665 0 CURVE SMOOTH",
"607 0 OFFCURVE",
"550 -1 OFFCURVE",
"495 -3 CURVE",
"494 0 OFFCURVE",
"493 4 OFFCURVE",
"493 7 CURVE SMOOTH",
"493 11 OFFCURVE",
"493 15 OFFCURVE",
"495 20 CURVE",
"537 24 OFFCURVE",
"608 31 OFFCURVE",
"608 67 CURVE"
);
}
);
};
layerId = UUID0;
paths = (
{
closed = 1;
nodes = (
"610 155 OFFCURVE",
"612 254 OFFCURVE",
"613 341 CURVE",
"553 343 OFFCURVE",
"503 344 OFFCURVE",
"443 344 CURVE SMOOTH",
"382 344 OFFCURVE",
"309 343 OFFCURVE",
"249 342 CURVE",
"249 254 OFFCURVE",
"251 155 OFFCURVE",
"254 67 CURVE",
"255 31 OFFCURVE",
"355 24 OFFCURVE",
"417 20 CURVE",
"419 12 OFFCURVE",
"420 4 OFFCURVE",
"417 -3 CURVE",
"353 -1 OFFCURVE",
"283 0 OFFCURVE",
"217 0 CURVE SMOOTH",
"159 0 OFFCURVE",
"102 -1 OFFCURVE",
"47 -3 CURVE",
"45 5 OFFCURVE",
"44 13 OFFCURVE",
"47 20 CURVE",
"89 24 OFFCURVE",
"159 31 OFFCURVE",
"160 67 CURVE",
"164 169 OFFCURVE",
"166 272 OFFCURVE",
"166 375 CURVE SMOOTH",
"166 465 OFFCURVE",
"165 556 OFFCURVE",
"161 648 CURVE",
"160 684 OFFCURVE",
"90 691 OFFCURVE",
"48 695 CURVE",
"46 702 OFFCURVE",
"45 711 OFFCURVE",
"48 718 CURVE",
"103 716 OFFCURVE",
"160 714 OFFCURVE",
"218 714 CURVE SMOOTH",
"284 714 OFFCURVE",
"354 716 OFFCURVE",
"418 718 CURVE",
"420 710 OFFCURVE",
"421 703 OFFCURVE",
"418 695 CURVE",
"356 691 OFFCURVE",
"256 684 OFFCURVE",
"255 648 CURVE",
"250 558 OFFCURVE",
"249 468 OFFCURVE",
"249 376 CURVE",
"309 374 OFFCURVE",
"382 374 OFFCURVE",
"443 374 CURVE SMOOTH",
"503 374 OFFCURVE",
"553 375 OFFCURVE",
"613 377 CURVE",
"612 467 OFFCURVE",
"611 558 OFFCURVE",
"608 648 CURVE",
"607 684 OFFCURVE",
"537 691 OFFCURVE",
"495 695 CURVE",
"493 704 OFFCURVE",
"493 709 OFFCURVE",
"495 718 CURVE",
"550 716 OFFCURVE",
"607 714 OFFCURVE",
"665 714 CURVE SMOOTH",
"731 714 OFFCURVE",
"801 716 OFFCURVE",
"865 718 CURVE",
"868 711 OFFCURVE",
"868 703 OFFCURVE",
"865 695 CURVE",
"803 691 OFFCURVE",
"703 684 OFFCURVE",
"702 648 CURVE",
"698 551 OFFCURVE",
"697 454 OFFCURVE",
"697 357 CURVE SMOOTH",
"697 261 OFFCURVE",
"698 164 OFFCURVE",
"702 67 CURVE",
"703 31 OFFCURVE",
"803 24 OFFCURVE",
"865 20 CURVE",
"867 13 OFFCURVE",
"868 4 OFFCURVE",
"865 -3 CURVE",
"801 -1 OFFCURVE",
"731 0 OFFCURVE",
"665 0 CURVE SMOOTH",
"607 0 OFFCURVE",
"550 -1 OFFCURVE",
"495 -3 CURVE",
"493 5 OFFCURVE",
"492 13 OFFCURVE",
"495 20 CURVE",
"537 24 OFFCURVE",
"608 31 OFFCURVE",
"608 67 CURVE"
);
},
{
closed = 1;
nodes = (
"588 49 OFFCURVE",
"521 43 OFFCURVE",
"481 39 CURVE",
"471 14 OFFCURVE",
"473 -1 OFFCURVE",
"481 -24 CURVE",
"571 -22 OFFCURVE",
"642 -20 OFFCURVE",
"700 -20 CURVE SMOOTH",
"750 -20 OFFCURVE",
"805 -22 OFFCURVE",
"884 -24 CURVE",
"892 2 OFFCURVE",
"892 15 OFFCURVE",
"886 39 CURVE",
"846 43 OFFCURVE",
"778 49 OFFCURVE",
"777 68 CURVE SMOOTH",
"773 165 OFFCURVE",
"772 261 OFFCURVE",
"772 357 CURVE SMOOTH",
"772 454 OFFCURVE",
"773 550 OFFCURVE",
"777 647 CURVE SMOOTH",
"778 666 OFFCURVE",
"846 672 OFFCURVE",
"886 676 CURVE",
"891 695 OFFCURVE",
"891 718 OFFCURVE",
"885 736 CURVE",
"797 736 OFFCURVE",
"728 734 OFFCURVE",
"673 734 CURVE SMOOTH",
"594 734 OFFCURVE",
"552 734 OFFCURVE",
"481 739 CURVE",
"472 715 OFFCURVE",
"473 699 OFFCURVE",
"479 676 CURVE",
"519 672 OFFCURVE",
"587 666 OFFCURVE",
"588 647 CURVE SMOOTH",
"591 560 OFFCURVE",
"592 483 OFFCURVE",
"593 396 CURVE",
"443 394 LINE SMOOTH",
"399 393 OFFCURVE",
"342 394 OFFCURVE",
"324 395 CURVE",
"324 487 OFFCURVE",
"326 557 OFFCURVE",
"330 647 CURVE SMOOTH",
"331 666 OFFCURVE",
"399 672 OFFCURVE",
"439 676 CURVE",
"445 701 OFFCURVE",
"445 714 OFFCURVE",
"438 736 CURVE",
"357 736 OFFCURVE",
"302 734 OFFCURVE",
"253 734 CURVE SMOOTH",
"195 734 OFFCURVE",
"121 738 OFFCURVE",
"34 739 CURVE",
"26 713 OFFCURVE",
"26 699 OFFCURVE",
"32 676 CURVE",
"72 672 OFFCURVE",
"140 666 OFFCURVE",
"141 647 CURVE SMOOTH",
"145 555 OFFCURVE",
"146 465 OFFCURVE",
"146 375 CURVE SMOOTH",
"146 272 OFFCURVE",
"144 170 OFFCURVE",
"140 68 CURVE SMOOTH",
"139 49 OFFCURVE",
"73 43 OFFCURVE",
"33 39 CURVE",
"23 14 OFFCURVE",
"25 -1 OFFCURVE",
"33 -24 CURVE",
"112 -22 OFFCURVE",
"167 -20 OFFCURVE",
"217 -20 CURVE SMOOTH",
"274 -20 OFFCURVE",
"346 -22 OFFCURVE",
"436 -24 CURVE",
"444 1 OFFCURVE",
"445 15 OFFCURVE",
"439 36 CURVE",
"397 42 OFFCURVE",
"329 49 OFFCURVE",
"329 68 CURVE",
"326 147 OFFCURVE",
"324 234 OFFCURVE",
"324 313 CURVE",
"344 313 OFFCURVE",
"372 314 OFFCURVE",
"443 314 CURVE SMOOTH",
"491 314 OFFCURVE",
"545 313 OFFCURVE",
"593 312 CURVE",
"592 225 OFFCURVE",
"590 155 OFFCURVE",
"588 67 CURVE SMOOTH"
);
}
);
width = 914;
}
);
unicode = 0048;
},
{
glyphname = I;
layers = (
{
background = {
paths = (
{
closed = 1;
nodes = (
"167 169 OFFCURVE",
"169 272 OFFCURVE",
"169 375 CURVE SMOOTH",
"169 465 OFFCURVE",
"168 556 OFFCURVE",
"164 648 CURVE SMOOTH",
"163 684 OFFCURVE",
"93 691 OFFCURVE",
"51 695 CURVE",
"50 699 OFFCURVE",
"49 703 OFFCURVE",
"49 707 CURVE SMOOTH",
"49 711 OFFCURVE",
"50 715 OFFCURVE",
"51 718 CURVE",
"106 716 OFFCURVE",
"163 714 OFFCURVE",
"221 714 CURVE SMOOTH",
"278 714 OFFCURVE",
"336 716 OFFCURVE",
"391 718 CURVE",
"392 714 OFFCURVE",
"393 711 OFFCURVE",
"393 707 CURVE SMOOTH",
"393 703 OFFCURVE",
"392 698 OFFCURVE",
"391 695 CURVE",
"349 691 OFFCURVE",
"279 684 OFFCURVE",
"278 648 CURVE SMOOTH",
"274 546 OFFCURVE",
"272 443 OFFCURVE",
"272 339 CURVE SMOOTH",
"272 249 OFFCURVE",
"274 158 OFFCURVE",
"277 67 CURVE SMOOTH",
"278 31 OFFCURVE",
"348 24 OFFCURVE",
"390 20 CURVE",
"392 14 OFFCURVE",
"392 11 OFFCURVE",
"392 7 CURVE SMOOTH",
"392 4 OFFCURVE",
"391 0 OFFCURVE",
"390 -3 CURVE",
"335 -1 OFFCURVE",
"277 0 OFFCURVE",
"220 0 CURVE SMOOTH",
"162 0 OFFCURVE",
"105 -1 OFFCURVE",
"50 -3 CURVE",
"49 0 OFFCURVE",
"48 4 OFFCURVE",
"48 7 CURVE SMOOTH",
"48 11 OFFCURVE",
"48 15 OFFCURVE",
"50 20 CURVE",
"92 24 OFFCURVE",
"163 31 OFFCURVE",
"163 67 CURVE"
);
},
{
closed = 1;
nodes = (
"143 67 LINE",
"143 49 OFFCURVE",
"76 43 OFFCURVE",
"36 39 CURVE",
"28 19 OFFCURVE",
"28 13 OFFCURVE",
"28 7 CURVE SMOOTH",
"28 2 OFFCURVE",
"32 -12 OFFCURVE",
"36 -24 CURVE",
"70 -22 LINE",
"70 -23 OFFCURVE",
"71 -23 OFFCURVE",
"71 -24 CURVE",
"115 -22 OFFCURVE",
"170 -20 OFFCURVE",
"220 -20 CURVE SMOOTH",
"277 -20 OFFCURVE",
"349 -22 OFFCURVE",
"404 -24 CURVE",
"404 -22 LINE",
"439 -24 LINE",
"443 -12 OFFCURVE",
"447 2 OFFCURVE",
"447 7 CURVE SMOOTH",
"447 13 OFFCURVE",
"447 18 OFFCURVE",
"440 39 CURVE",
"400 43 OFFCURVE",
"333 49 OFFCURVE",
"332 68 CURVE SMOOTH",
"329 159 OFFCURVE",
"327 249 OFFCURVE",
"327 339 CURVE SMOOTH",
"327 443 OFFCURVE",
"329 545 OFFCURVE",
"333 647 CURVE SMOOTH",
"334 666 OFFCURVE",
"401 672 OFFCURVE",
"441 676 CURVE",
"444 686 OFFCURVE",
"448 700 OFFCURVE",
"448 707 CURVE SMOOTH",
"448 711 OFFCURVE",
"448 715 OFFCURVE",
"441 736 CURVE",
"405 736 LINE SMOOTH",
"361 736 OFFCURVE",
"306 734 OFFCURVE",
"257 734 CURVE",
"256 734 LINE",
"198 734 OFFCURVE",
"127 737 OFFCURVE",
"72 739 CURVE",
"72 738 OFFCURVE",
"71 738 OFFCURVE",
"71 737 CURVE",
"37 739 LINE",
"33 727 OFFCURVE",
"29 713 OFFCURVE",
"29 707 CURVE SMOOTH",
"29 700 OFFCURVE",
"32 688 OFFCURVE",
"35 676 CURVE",
"75 672 OFFCURVE",
"143 666 OFFCURVE",
"144 647 CURVE SMOOTH",
"148 555 OFFCURVE",
"149 465 OFFCURVE",
"149 375 CURVE SMOOTH",
"149 272 OFFCURVE",
"147 170 OFFCURVE",
"143 68 CURVE"
);
}
);
};
layerId = UUID0;
paths = (
{
closed = 1;
nodes = (
"257 31 OFFCURVE",
"357 24 OFFCURVE",
"419 20 CURVE",
"421 12 OFFCURVE",
"422 4 OFFCURVE",
"419 -3 CURVE",
"355 -1 OFFCURVE",
"285 0 OFFCURVE",
"219 0 CURVE SMOOTH",
"161 0 OFFCURVE",
"104 -1 OFFCURVE",
"49 -3 CURVE",
"47 5 OFFCURVE",
"46 13 OFFCURVE",
"49 20 CURVE",
"91 24 OFFCURVE",
"161 31 OFFCURVE",
"162 67 CURVE SMOOTH",
"166 169 OFFCURVE",
"168 272 OFFCURVE",
"168 375 CURVE SMOOTH",
"168 465 OFFCURVE",
"167 556 OFFCURVE",
"163 648 CURVE SMOOTH",
"162 684 OFFCURVE",
"92 691 OFFCURVE",
"50 695 CURVE",
"48 702 OFFCURVE",
"47 711 OFFCURVE",
"50 718 CURVE",
"105 716 OFFCURVE",
"162 714 OFFCURVE",
"220 714 CURVE SMOOTH",
"286 714 OFFCURVE",
"356 716 OFFCURVE",
"420 718 CURVE",
"422 710 OFFCURVE",
"423 703 OFFCURVE",
"420 695 CURVE",
"358 691 OFFCURVE",
"258 684 OFFCURVE",
"257 648 CURVE SMOOTH",
"254 556 OFFCURVE",
"252 465 OFFCURVE",
"252 375 CURVE SMOOTH",
"252 272 OFFCURVE",
"254 169 OFFCURVE",
"256 67 CURVE SMOOTH"
);
},
{
closed = 1;
nodes = (
"74 672 OFFCURVE",
"142 666 OFFCURVE",
"143 647 CURVE SMOOTH",
"147 555 OFFCURVE",
"148 465 OFFCURVE",
"148 375 CURVE SMOOTH",
"148 272 OFFCURVE",
"147 170 OFFCURVE",
"142 68 CURVE SMOOTH",
"141 49 OFFCURVE",
"75 43 OFFCURVE",
"35 39 CURVE",
"25 14 OFFCURVE",
"27 -1 OFFCURVE",
"35 -24 CURVE",
"114 -22 OFFCURVE",
"169 -20 OFFCURVE",
"219 -20 CURVE SMOOTH",
"276 -20 OFFCURVE",
"348 -22 OFFCURVE",
"438 -24 CURVE",
"446 1 OFFCURVE",
"447 15 OFFCURVE",
"441 36 CURVE",
"399 42 OFFCURVE",
"332 49 OFFCURVE",
"331 68 CURVE SMOOTH",
"326 159 OFFCURVE",
"326 249 OFFCURVE",
"326 339 CURVE SMOOTH",
"326 443 OFFCURVE",
"327 545 OFFCURVE",
"332 647 CURVE SMOOTH",
"333 666 OFFCURVE",
"401 672 OFFCURVE",
"441 676 CURVE",
"447 701 OFFCURVE",
"447 714 OFFCURVE",
"440 736 CURVE",
"359 736 OFFCURVE",
"304 734 OFFCURVE",
"255 734 CURVE SMOOTH",
"197 734 OFFCURVE",
"123 738 OFFCURVE",
"36 739 CURVE",
"29 717 OFFCURVE",
"28 701 OFFCURVE",
"34 676 CURVE"
);
}
);
width = 467;
}
);
unicode = 0049;
},
{
glyphname = J;
layers = (
{
background = {
paths = (
{
closed = 1;
nodes = (
"-74 -183 OFFCURVE",
"-32 -225 OFFCURVE",
"20 -225 CURVE SMOOTH",
"72 -225 OFFCURVE",
"114 -183 OFFCURVE",
"114 -131 CURVE SMOOTH",
"114 -79 OFFCURVE",
"72 -37 OFFCURVE",
"20 -37 CURVE SMOOTH",
"-32 -37 OFFCURVE",
"-74 -79 OFFCURVE",
"-74 -131 CURVE SMOOTH"
);
}
);
};
hints = (
{
place = "{-84, 173}";
},
{
place = "{175, 146}";
},
{
place = "{181, 140}";
},
{
place = "{327, -152}";
},
{
horizontal = 1;
place = "{-260, 21}";
},
{
horizontal = 1;
place = "{735, -20}";
target = down;
type = TopGhost;
}
);
layerId = UUID0;
paths = (
{
closed = 1;
nodes = (
"275 -53 OFFCURVE",
"265 -260 OFFCURVE",
"85 -260 CURVE SMOOTH",
"-8 -260 OFFCURVE",
"-54 -201 OFFCURVE",
"-54 -143 CURVE SMOOTH",
"-54 -88 OFFCURVE",
"-21 -58 OFFCURVE",
"24 -58 CURVE SMOOTH",
"46 -58 OFFCURVE",
"63 -64 OFFCURVE",
"77 -84 CURVE",
"75 -91 OFFCURVE",
"72 -98 OFFCURVE",
"61 -101 CURVE",
"53 -93 OFFCURVE",
"42 -89 OFFCURVE",
"32 -89 CURVE SMOOTH",
"10 -89 OFFCURVE",
"-12 -108 OFFCURVE",
"-12 -145 CURVE SMOOTH",
"-12 -184 OFFCURVE",
"18 -229 OFFCURVE",
"85 -229 CURVE SMOOTH",
"177 -229 OFFCURVE",
"191 -148 OFFCURVE",
"191 27 CURVE SMOOTH",
"191 375 LINE SMOOTH",
"191 465 OFFCURVE",
"190 556 OFFCURVE",
"186 648 CURVE SMOOTH",
"185 684 OFFCURVE",
"115 691 OFFCURVE",
"73 695 CURVE",
"71 702 OFFCURVE",
"70 711 OFFCURVE",
"73 718 CURVE",
"128 716 OFFCURVE",
"185 714 OFFCURVE",
"243 714 CURVE SMOOTH",
"309 714 OFFCURVE",
"379 716 OFFCURVE",
"443 718 CURVE",
"445 710 OFFCURVE",
"446 703 OFFCURVE",
"443 695 CURVE",
"381 691 OFFCURVE",
"281 684 OFFCURVE",
"280 648 CURVE SMOOTH",
"277 556 OFFCURVE",
"275 465 OFFCURVE",
"275 375 CURVE"
);
},
{
closed = 1;
nodes = (
"322 -280 OFFCURVE",
"349 6 OFFCURVE",
"349 339 CURVE",
"349 443 OFFCURVE",
"350 545 OFFCURVE",
"355 647 CURVE SMOOTH",
"356 666 OFFCURVE",
"424 672 OFFCURVE",
"464 676 CURVE",
"470 701 OFFCURVE",
"470 714 OFFCURVE",
"463 736 CURVE",
"382 736 OFFCURVE",
"327 734 OFFCURVE",
"278 734 CURVE SMOOTH",
"220 734 OFFCURVE",
"145 734 OFFCURVE",
"59 739 CURVE",
"52 717 OFFCURVE",
"51 701 OFFCURVE",
"57 676 CURVE",
"97 672 OFFCURVE",
"165 666 OFFCURVE",
"166 647 CURVE SMOOTH",
"170 555 OFFCURVE",
"171 465 OFFCURVE",
"171 375 CURVE SMOOTH",
"171 27 LINE SMOOTH",
"171 -119 OFFCURVE",
"162 -194 OFFCURVE",
"104 -207 CURVE",
"95 -204 OFFCURVE",
"90 -200 OFFCURVE",
"87 -194 CURVE",
"89 -183 OFFCURVE",
"114 -174 OFFCURVE",
"114 -131 CURVE SMOOTH",
"114 -69 OFFCURVE",
"69 -37 OFFCURVE",
"23 -37 CURVE SMOOTH",
"-25 -37 OFFCURVE",
"-75 -72 OFFCURVE",
"-74 -143 CURVE SMOOTH",
"-73 -211 OFFCURVE",
"-23 -280 OFFCURVE",
"97 -280 CURVE"
);
}
);
width = 494;
}
);
unicode = 004A;
},
{
glyphname = K;
layers = (
{
hints = (
{
place = "{151, 135}";
},
{
place = "{157, 129}";
},
{
horizontal = 1;
place = "{-10, 21}";
}
);
layerId = UUID0;
paths = (
{
closed = 1;
nodes = (
"789 711 OFFCURVE",
"789 703 OFFCURVE",
"787 695 CURVE",
"736 691 OFFCURVE",
"677 686 OFFCURVE",
"622 648 CURVE",
"359 398 LINE",
"660 93 LINE SMOOTH",
"716 37 OFFCURVE",
"789 22 OFFCURVE",
"843 20 CURVE",
"845 12 OFFCURVE",
"845 4 OFFCURVE",
"843 -3 CURVE",
"774 0 OFFCURVE",
"730 0 OFFCURVE",
"661 0 CURVE SMOOTH",
"608 0 OFFCURVE",
"530 -2 OFFCURVE",
"476 -4 CURVE",
"476 -3 LINE",
"473 4 OFFCURVE",
"474 12 OFFCURVE",
"476 20 CURVE",
"541 22 OFFCURVE",
"554 31 OFFCURVE",
"554 53 CURVE SMOOTH",
"554 67 OFFCURVE",
"540 80 OFFCURVE",
"528 93 CURVE SMOOTH",
"290 340 LINE",
"251 339 LINE",
"251 249 OFFCURVE",
"253 158 OFFCURVE",
"256 67 CURVE SMOOTH",
"257 31 OFFCURVE",
"357 24 OFFCURVE",
"419 20 CURVE",
"421 12 OFFCURVE",
"422 4 OFFCURVE",
"419 -3 CURVE",
"355 -1 OFFCURVE",
"285 0 OFFCURVE",
"219 0 CURVE SMOOTH",
"161 0 OFFCURVE",
"104 -1 OFFCURVE",
"49 -3 CURVE",
"47 5 OFFCURVE",
"46 13 OFFCURVE",
"49 20 CURVE",
"91 24 OFFCURVE",
"161 31 OFFCURVE",
"162 67 CURVE SMOOTH",
"166 169 OFFCURVE",
"168 272 OFFCURVE",
"168 375 CURVE SMOOTH",
"168 465 OFFCURVE",
"167 556 OFFCURVE",
"163 648 CURVE SMOOTH",
"162 684 OFFCURVE",
"92 691 OFFCURVE",
"50 695 CURVE",
"48 702 OFFCURVE",
"47 711 OFFCURVE",
"50 718 CURVE",
"105 716 OFFCURVE",
"162 714 OFFCURVE",
"220 714 CURVE SMOOTH",
"286 714 OFFCURVE",
"356 716 OFFCURVE",
"420 718 CURVE",
"422 710 OFFCURVE",
"423 703 OFFCURVE",
"420 695 CURVE",
"358 691 OFFCURVE",
"258 684 OFFCURVE",
"257 648 CURVE SMOOTH",
"253 559 OFFCURVE",
"251 471 OFFCURVE",
"251 381 CURVE",
"285 381 LINE",
"562 648 LINE",
"565 653 OFFCURVE",
"568 658 OFFCURVE",
"568 662 CURVE SMOOTH",
"568 688 OFFCURVE",
"537 691 OFFCURVE",
"478 695 CURVE",
"476 702 OFFCURVE",
"475 708 OFFCURVE",
"478 718 CURVE",
"533 716 OFFCURVE",
"565 714 OFFCURVE",
"623 714 CURVE SMOOTH",
"692 714 OFFCURVE",
"720 716 OFFCURVE",
"787 718 CURVE"
);
},
{
closed = 1;
nodes = (
"818 697 OFFCURVE",
"818 718 OFFCURVE",
"813 736 CURVE",
"697 732 OFFCURVE",
"579 733 OFFCURVE",
"466 738 CURVE",
"457 714 OFFCURVE",
"458 699 OFFCURVE",
"465 676 CURVE",
"521 672 OFFCURVE",
"548 670 OFFCURVE",
"548 662 CURVE",
"326 448 LINE",
"327 515 OFFCURVE",
"329 580 OFFCURVE",
"332 647 CURVE SMOOTH",
"333 666 OFFCURVE",
"395 672 OFFCURVE",
"435 676 CURVE",
"441 701 OFFCURVE",
"441 714 OFFCURVE",
"434 736 CURVE",
"353 736 OFFCURVE",
"304 734 OFFCURVE",
"255 734 CURVE SMOOTH",
"197 734 OFFCURVE",
"123 738 OFFCURVE",
"36 739 CURVE",
"29 717 OFFCURVE",
"28 701 OFFCURVE",
"34 676 CURVE",
"74 672 OFFCURVE",
"142 666 OFFCURVE",
"143 647 CURVE SMOOTH",
"147 555 OFFCURVE",
"148 465 OFFCURVE",
"148 375 CURVE SMOOTH",
"148 272 OFFCURVE",
"147 170 OFFCURVE",
"142 68 CURVE SMOOTH",
"141 49 OFFCURVE",
"75 43 OFFCURVE",
"35 39 CURVE",
"25 14 OFFCURVE",
"27 -1 OFFCURVE",
"35 -24 CURVE",
"114 -22 OFFCURVE",
"169 -20 OFFCURVE",
"219 -20 CURVE SMOOTH",
"276 -20 OFFCURVE",
"348 -22 OFFCURVE",
"438 -24 CURVE",
"444 -7 OFFCURVE",
"446 13 OFFCURVE",
"441 36 CURVE",
"399 42 OFFCURVE",
"332 49 OFFCURVE",
"331 68 CURVE SMOOTH",
"328 137 OFFCURVE",
"326 205 OFFCURVE",
"326 274 CURVE",
"527 65 OFFCURVE",
"534 57 OFFCURVE",
"534 53 CURVE SMOOTH",
"534 45 OFFCURVE",
"519 38 OFFCURVE",
"459 36 CURVE",
"454 13 OFFCURVE",
"456 -7 OFFCURVE",
"462 -24 CURVE",
"563 -21 OFFCURVE",
"767 -18 OFFCURVE",
"865 -24 CURVE",
"870 -6 OFFCURVE",
"870 15 OFFCURVE",
"865 36 CURVE",
"819 38 OFFCURVE",
"772 64 OFFCURVE",
"728 108 CURVE SMOOTH",
"421 419 LINE",
"645 633 LINE",
"694 666 OFFCURVE",
"758 672 OFFCURVE",
"813 676 CURVE"
);
}
);
width = 851;
}
);
unicode = 004B;
},
{
glyphname = L;
layers = (
{
background = {
paths = (
{
closed = 1;
nodes = (
"275 0 LINE",
"209 0 OFFCURVE",
"111 -1 OFFCURVE",
"48 -3 CURVE",
"47 0 OFFCURVE",
"46 4 OFFCURVE",
"46 7 CURVE SMOOTH",
"46 11 OFFCURVE",
"47 15 OFFCURVE",
"48 20 CURVE",
"90 24 OFFCURVE",
"160 31 OFFCURVE",
"161 67 CURVE SMOOTH",
"165 169 OFFCURVE",
"167 272 OFFCURVE",
"167 375 CURVE SMOOTH",
"167 465 OFFCURVE",
"166 556 OFFCURVE",
"162 648 CURVE SMOOTH",
"161 684 OFFCURVE",
"91 691 OFFCURVE",
"49 695 CURVE",
"48 699 OFFCURVE",
"47 703 OFFCURVE",
"47 707 CURVE SMOOTH",
"47 711 OFFCURVE",
"48 715 OFFCURVE",
"49 718 CURVE",
"104 716 OFFCURVE",
"161 714 OFFCURVE",
"219 714 CURVE SMOOTH",
"276 714 OFFCURVE",
"334 716 OFFCURVE",
"389 718 CURVE",
"390 714 OFFCURVE",
"391 711 OFFCURVE",
"391 707 CURVE SMOOTH",
"391 703 OFFCURVE",
"390 699 OFFCURVE",
"389 695 CURVE",
"347 691 OFFCURVE",
"277 684 OFFCURVE",
"276 648 CURVE SMOOTH",
"272 546 OFFCURVE",
"270 443 OFFCURVE",
"270 339 CURVE SMOOTH",
"270 249 OFFCURVE",
"272 158 OFFCURVE",
"275 30 CURVE",
"426 30 LINE",
"625 43 OFFCURVE",
"710 123 OFFCURVE",
"754 205 CURVE",
"762 202 OFFCURVE",
"768 198 OFFCURVE",
"771 192 CURVE",
"741 136 OFFCURVE",
"708 73 OFFCURVE",
"699 0 CURVE"
);
},
{
closed = 1;
nodes = (
"752 -20 LINE",
"763 67 OFFCURVE",
"797 133 OFFCURVE",
"829 192 CURVE",
"820 210 OFFCURVE",
"803 221 OFFCURVE",
"780 230 CURVE",
"777 225 OFFCURVE",
"774 221 OFFCURVE",
"772 216 CURVE",
"764 222 OFFCURVE",
"755 226 OFFCURVE",
"745 230 CURVE",
"701 147 OFFCURVE",
"605 65 OFFCURVE",
"425 50 CURVE",
"329 50 LINE",
"326 178 OFFCURVE",
"325 249 OFFCURVE",
"325 339 CURVE SMOOTH",
"325 443 OFFCURVE",
"327 545 OFFCURVE",
"331 647 CURVE SMOOTH",
"332 666 OFFCURVE",
"400 672 OFFCURVE",
"440 676 CURVE",
"443 688 OFFCURVE",
"446 700 OFFCURVE",
"446 707 CURVE SMOOTH",
"446 711 OFFCURVE",
"446 715 OFFCURVE",
"439 736 CURVE",
"404 736 LINE SMOOTH",
"359 736 OFFCURVE",
"303 734 OFFCURVE",
"254 734 CURVE SMOOTH",
"196 734 OFFCURVE",
"125 737 OFFCURVE",
"70 739 CURVE",
"70 738 OFFCURVE",
"69 738 OFFCURVE",
"69 737 CURVE",
"35 739 LINE",
"31 727 OFFCURVE",
"27 713 OFFCURVE",
"27 707 CURVE SMOOTH",
"27 700 OFFCURVE",
"30 688 OFFCURVE",
"33 676 CURVE",
"73 672 OFFCURVE",
"141 666 OFFCURVE",
"142 647 CURVE SMOOTH",
"146 555 OFFCURVE",
"147 465 OFFCURVE",
"147 375 CURVE SMOOTH",
"147 272 OFFCURVE",
"145 170 OFFCURVE",
"141 68 CURVE SMOOTH",
"140 49 OFFCURVE",
"73 43 OFFCURVE",
"33 39 CURVE",
"26 18 OFFCURVE",
"26 12 OFFCURVE",
"26 7 CURVE SMOOTH",
"26 2 OFFCURVE",
"30 -11 OFFCURVE",
"34 -23 CURVE",
"44 -22 OFFCURVE",
"56 -22 OFFCURVE",
"68 -22 CURVE SMOOTH",
"68 -22 OFFCURVE",
"69 -22 OFFCURVE",
"69 -23 CURVE",
"122 -21 OFFCURVE",
"209 -20 OFFCURVE",
"275 -20 CURVE"
);
}
);
};
hints = (
{
place = "{154, 135}";
},
{
place = "{160, 134}";
},
{
horizontal = 1;
place = "{767, -20}";
target = down;
type = TopGhost;
}
);
layerId = UUID0;
paths = (
{
closed = 1;
nodes = (
"251 281 OFFCURVE",
"252 158 OFFCURVE",
"255 30 CURVE",
"431 30 LINE SMOOTH",
"630 30 OFFCURVE",
"710 123 OFFCURVE",
"754 205 CURVE",
"762 202 OFFCURVE",
"768 198 OFFCURVE",
"771 192 CURVE",
"709 67 OFFCURVE",
"653 0 OFFCURVE",
"486 0 CURVE SMOOTH",
"209 0 OFFCURVE",
"111 -1 OFFCURVE",
"48 -3 CURVE",
"46 5 OFFCURVE",
"46 12 OFFCURVE",
"48 20 CURVE",
"90 24 OFFCURVE",
"160 31 OFFCURVE",
"161 67 CURVE SMOOTH",
"165 169 OFFCURVE",
"167 272 OFFCURVE",
"167 375 CURVE SMOOTH",
"167 465 OFFCURVE",
"166 556 OFFCURVE",
"162 648 CURVE SMOOTH",
"161 684 OFFCURVE",
"91 691 OFFCURVE",
"49 695 CURVE",
"47 702 OFFCURVE",
"46 711 OFFCURVE",
"49 718 CURVE",
"104 716 OFFCURVE",
"161 714 OFFCURVE",
"219 714 CURVE SMOOTH",
"285 714 OFFCURVE",
"355 716 OFFCURVE",
"419 718 CURVE",
"421 710 OFFCURVE",
"422 703 OFFCURVE",
"419 695 CURVE",
"357 691 OFFCURVE",
"257 684 OFFCURVE",
"256 648 CURVE SMOOTH",
"253 556 OFFCURVE",
"251 465 OFFCURVE",
"251 375 CURVE SMOOTH"
);
},
{
closed = 1;
nodes = (
"325 443 OFFCURVE",
"326 545 OFFCURVE",
"331 647 CURVE SMOOTH",
"332 666 OFFCURVE",
"400 672 OFFCURVE",
"440 676 CURVE",
"446 701 OFFCURVE",
"446 714 OFFCURVE",
"439 736 CURVE",
"358 736 OFFCURVE",
"303 734 OFFCURVE",
"254 734 CURVE SMOOTH",
"196 734 OFFCURVE",
"120 734 OFFCURVE",
"35 739 CURVE",
"28 717 OFFCURVE",
"27 701 OFFCURVE",
"33 676 CURVE",
"73 672 OFFCURVE",
"141 666 OFFCURVE",
"142 647 CURVE SMOOTH",
"146 555 OFFCURVE",
"147 465 OFFCURVE",
"147 375 CURVE SMOOTH",
"147 272 OFFCURVE",
"145 170 OFFCURVE",
"141 68 CURVE SMOOTH",
"140 49 OFFCURVE",
"73 43 OFFCURVE",
"33 39 CURVE",
"25 12 OFFCURVE",
"27 -1 OFFCURVE",
"34 -23 CURVE",
"97 -21 OFFCURVE",
"255 -20 OFFCURVE",
"321 -20 CURVE SMOOTH",
"715 -20 LINE",
"725 57 OFFCURVE",
"752 117 OFFCURVE",
"797 192 CURVE",
"788 211 OFFCURVE",
"767 222 OFFCURVE",
"745 230 CURVE",
"700 147 OFFCURVE",
"617 50 OFFCURVE",
"430 50 CURVE SMOOTH",
"329 50 LINE",
"326 166 OFFCURVE",
"325 259 OFFCURVE",
"325 339 CURVE SMOOTH"
);
}
);
width = 832;
}
);
unicode = 004C;
},
{
glyphname = M;
layers = (
{
hints = (
{
place = "{174, 27}";
},
{
place = "{692, 141}";
},
{
place = "{698, 135}";
},
{
horizontal = 1;
place = "{16, 21}";
},
{
horizontal = 1;
place = "{778, -20}";
target = down;
type = TopGhost;
},
{
horizontal = 1;
place = "{777, -20}";
target = down;
type = TopGhost;
}
);
layerId = UUID0;
paths = (
{
closed = 1;
nodes = (
"150 33 OFFCURVE",
"86 24 OFFCURVE",
"44 20 CURVE",
"41 13 OFFCURVE",
"42 5 OFFCURVE",
"44 -3 CURVE",
"136 0 OFFCURVE",
"138 0 OFFCURVE",
"175 0 CURVE SMOOTH",
"204 0 OFFCURVE",
"262 -1 OFFCURVE",
"314 -3 CURVE",
"316 5 OFFCURVE",
"317 13 OFFCURVE",
"314 20 CURVE",
"272 24 OFFCURVE",
"207 33 OFFCURVE",
"206 74 CURVE SMOOTH",
"203 165 OFFCURVE",
"201 249 OFFCURVE",
"201 339 CURVE SMOOTH",
"201 422 OFFCURVE",
"202 523 OFFCURVE",
"205 612 CURVE",
"210 612 LINE",
"448 12 LINE",
"453 12 LINE",
"676 600 LINE",
"680 600 LINE",
"683 512 OFFCURVE",
"685 427 OFFCURVE",
"685 339 CURVE SMOOTH",
"685 249 OFFCURVE",
"684 158 OFFCURVE",
"680 68 CURVE SMOOTH",
"678 32 OFFCURVE",
"609 25 OFFCURVE",
"567 21 CURVE",
"564 14 OFFCURVE",
"565 6 OFFCURVE",
"567 -2 CURVE",
"622 0 OFFCURVE",
"679 1 OFFCURVE",
"737 1 CURVE SMOOTH",
"803 1 OFFCURVE",
"873 0 OFFCURVE",
"937 -2 CURVE",
"940 5 OFFCURVE",
"939 14 OFFCURVE",
"937 21 CURVE",
"875 25 OFFCURVE",
"775 32 OFFCURVE",
"774 67 CURVE SMOOTH",
"770 169 OFFCURVE",
"768 272 OFFCURVE",
"768 375 CURVE SMOOTH",
"768 465 OFFCURVE",
"769 556 OFFCURVE",
"772 648 CURVE SMOOTH",
"773 683 OFFCURVE",
"873 690 OFFCURVE",
"935 694 CURVE",
"937 701 OFFCURVE",
"938 710 OFFCURVE",
"935 717 CURVE",
"871 715 OFFCURVE",
"801 714 OFFCURVE",
"679 714 CURVE",
"471 171 LINE",
"271 714 LINE",
"169 714 OFFCURVE",
"83 717 OFFCURVE",
"60 718 CURVE",
"57 712 OFFCURVE",
"57 705 OFFCURVE",
"60 699 CURVE",
"132 689 OFFCURVE",
"153 682 OFFCURVE",
"155 602 CURVE SMOOTH",
"157 522 OFFCURVE",
"158 445 OFFCURVE",
"158 375 CURVE SMOOTH",
"158 272 OFFCURVE",
"156 176 OFFCURVE",
"152 74 CURVE SMOOTH"
);
},
{
closed = 1;
nodes = (
"136 177 OFFCURVE",
"138 272 OFFCURVE",
"138 375 CURVE SMOOTH",
"138 445 OFFCURVE",
"137 522 OFFCURVE",
"135 602 CURVE SMOOTH",
"133 665 OFFCURVE",
"114 671 OFFCURVE",
"47 680 CURVE",
"36 704 OFFCURVE",
"37 717 OFFCURVE",
"48 739 CURVE",
"115 736 OFFCURVE",
"213 734 OFFCURVE",
"340 734 CURVE",
"500 306 LINE",
"665 734 LINE",
"785 734 OFFCURVE",
"875 736 OFFCURVE",
"954 738 CURVE",
"962 712 OFFCURVE",
"962 699 OFFCURVE",
"956 675 CURVE",
"916 671 OFFCURVE",
"848 665 OFFCURVE",
"847 646 CURVE SMOOTH",
"843 554 OFFCURVE",
"843 465 OFFCURVE",
"843 375 CURVE SMOOTH",
"843 272 OFFCURVE",
"844 170 OFFCURVE",
"849 69 CURVE SMOOTH",
"850 50 OFFCURVE",
"918 44 OFFCURVE",
"958 40 CURVE",
"964 16 OFFCURVE",
"964 3 OFFCURVE",
"956 -23 CURVE",
"877 -21 OFFCURVE",
"822 -19 OFFCURVE",
"772 -19 CURVE SMOOTH",
"714 -19 OFFCURVE",
"643 -21 OFFCURVE",
"553 -23 CURVE",
"545 0 OFFCURVE",
"543 15 OFFCURVE",
"553 40 CURVE",
"593 44 OFFCURVE",
"659 50 OFFCURVE",
"660 68 CURVE SMOOTH",
"664 159 OFFCURVE",
"665 249 OFFCURVE",
"665 339 CURVE SMOOTH",
"665 395 OFFCURVE",
"665 461 OFFCURVE",
"664 518 CURVE",
"467 -8 LINE",
"434 -8 LINE",
"221 529 LINE",
"221 339 LINE SMOOTH",
"221 249 OFFCURVE",
"223 165 OFFCURVE",
"226 74 CURVE SMOOTH",
"227 51 OFFCURVE",
"288 43 OFFCURVE",
"333 39 CURVE",
"343 14 OFFCURVE",
"341 -1 OFFCURVE",
"333 -24 CURVE",
"234 -20 OFFCURVE",
"136 -20 OFFCURVE",
"30 -24 CURVE",
"22 -1 OFFCURVE",
"20 14 OFFCURVE",
"30 39 CURVE",
"70 43 OFFCURVE",
"131 51 OFFCURVE",
"132 74 CURVE SMOOTH"
);
}
);
width = 984;
}
);
unicode = 004D;
},
{
glyphname = N;
layers = (
{
hints = (
{
place = "{155, 27}";
},
{
place = "{695, 22}";
},
{
place = "{722, -27}";
},
{
horizontal = 1;
place = "{-2, 21}";
},
{
horizontal = 1;
place = "{0, -20}";
target = down;
type = TopGhost;
},
{
horizontal = 1;
place = "{751, -20}";
target = down;
type = TopGhost;
}
);
layerId = UUID0;
paths = (
{
closed = 1;
nodes = (
"632 376 LINE",
"632 466 OFFCURVE",
"630 550 OFFCURVE",
"627 641 CURVE SMOOTH",
"626 664 OFFCURVE",
"565 672 OFFCURVE",
"520 676 CURVE",
"515 688 OFFCURVE",
"513 697 OFFCURVE",
"513 707 CURVE SMOOTH",
"513 717 OFFCURVE",
"516 725 OFFCURVE",
"520 737 CURVE",
"569 735 OFFCURVE",
"618 734 OFFCURVE",
"669 734 CURVE SMOOTH",
"719 734 OFFCURVE",
"770 735 OFFCURVE",
"823 737 CURVE",
"827 725 OFFCURVE",
"830 717 OFFCURVE",
"830 707 CURVE SMOOTH",
"830 697 OFFCURVE",
"828 688 OFFCURVE",
"823 676 CURVE",
"783 672 OFFCURVE",
"722 664 OFFCURVE",
"721 641 CURVE SMOOTH",
"715 538 OFFCURVE",
"715 443 OFFCURVE",
"715 340 CURVE SMOOTH",
"715 250 OFFCURVE",
"717 70 OFFCURVE",
"721 -22 CURVE",
"681 -23 LINE",
"218 544 LINE",
"218 525 OFFCURVE",
"217 501 OFFCURVE",
"217 476 CURVE SMOOTH",
"217 297 OFFCURVE",
"218 212 OFFCURVE",
"223 74 CURVE SMOOTH",
"224 51 OFFCURVE",
"285 43 OFFCURVE",
"330 39 CURVE",
"335 27 OFFCURVE",
"337 17 OFFCURVE",
"337 8 CURVE SMOOTH",
"337 -2 OFFCURVE",
"334 -12 OFFCURVE",
"330 -24 CURVE",
"280 -22 OFFCURVE",
"231 -21 OFFCURVE",
"181 -21 CURVE SMOOTH",
"131 -21 OFFCURVE",
"80 -22 OFFCURVE",
"27 -24 CURVE",
"23 -12 OFFCURVE",
"20 -2 OFFCURVE",
"20 8 CURVE SMOOTH",
"20 17 OFFCURVE",
"22 27 OFFCURVE",
"27 39 CURVE",
"67 43 OFFCURVE",
"128 51 OFFCURVE",
"129 74 CURVE SMOOTH",
"135 177 OFFCURVE",
"135 272 OFFCURVE",
"135 375 CURVE SMOOTH",
"135 460 OFFCURVE",
"134 557 OFFCURVE",
"131 646 CURVE",
"106 666 OFFCURVE",
"77 673 OFFCURVE",
"34 676 CURVE",
"29 685 OFFCURVE",
"27 695 OFFCURVE",
"27 706 CURVE SMOOTH",
"27 717 OFFCURVE",
"30 729 OFFCURVE",
"36 739 CURVE",
"118 735 OFFCURVE",
"232 734 OFFCURVE",
"294 734 CURVE",
"632 312 LINE"
);
},
{
closed = 1;
nodes = (
"695 443 OFFCURVE",
"697 539 OFFCURVE",
"701 641 CURVE SMOOTH",
"703 682 OFFCURVE",
"767 691 OFFCURVE",
"809 695 CURVE",
"812 702 OFFCURVE",
"811 710 OFFCURVE",
"809 718 CURVE",
"717 715 OFFCURVE",
"715 715 OFFCURVE",
"678 715 CURVE SMOOTH",
"649 715 OFFCURVE",
"591 716 OFFCURVE",
"539 718 CURVE",
"537 710 OFFCURVE",
"536 702 OFFCURVE",
"539 695 CURVE",
"581 691 OFFCURVE",
"646 682 OFFCURVE",
"647 641 CURVE SMOOTH",
"650 550 OFFCURVE",
"652 466 OFFCURVE",
"652 376 CURVE SMOOTH",
"652 307 OFFCURVE",
"651 254 OFFCURVE",
"650 198 CURVE",
"229 714 LINE",
"173 714 OFFCURVE",
"101 715 OFFCURVE",
"47 718 CURVE",
"44 710 OFFCURVE",
"44 703 OFFCURVE",
"47 695 CURVE",
"90 692 OFFCURVE",
"121 681 OFFCURVE",
"151 655 CURVE",
"154 566 OFFCURVE",
"155 460 OFFCURVE",
"155 375 CURVE SMOOTH",
"155 272 OFFCURVE",
"153 176 OFFCURVE",
"149 74 CURVE SMOOTH",
"147 33 OFFCURVE",
"83 24 OFFCURVE",
"41 20 CURVE",
"38 13 OFFCURVE",
"39 5 OFFCURVE",
"41 -3 CURVE",
"133 0 OFFCURVE",
"135 0 OFFCURVE",
"172 0 CURVE SMOOTH",
"201 0 OFFCURVE",
"259 -1 OFFCURVE",
"311 -3 CURVE",
"313 5 OFFCURVE",
"314 13 OFFCURVE",
"311 20 CURVE",
"269 24 OFFCURVE",
"204 33 OFFCURVE",
"203 74 CURVE SMOOTH",
"200 165 OFFCURVE",
"198 249 OFFCURVE",
"198 339 CURVE SMOOTH",
"198 418 OFFCURVE",
"199 510 OFFCURVE",
"201 594 CURVE",
"206 594 LINE",
"691 -3 LINE",
"700 -2 LINE",
"696 90 OFFCURVE",
"695 250 OFFCURVE",
"695 340 CURVE SMOOTH"
);
}
);
width = 884;
}
);
unicode = 004E;
},
{
glyphname = O;
layers = (
{
background = {
paths = (
{
closed = 1;
nodes = (
"55 40 OFFCURVE",
"293 -40 OFFCURVE",
"445 -40 CURVE SMOOTH",
"462 -40 LINE",
"480 -40 LINE SMOOTH",
"632 -40 OFFCURVE",
"870 40 OFFCURVE",
"870 356 CURVE SMOOTH",
"870 672 OFFCURVE",
"632 754 OFFCURVE",
"480 754 CURVE SMOOTH",
"474 754 OFFCURVE",
"468 754 OFFCURVE",
"462 754 CURVE SMOOTH",
"456 754 OFFCURVE",
"450 754 OFFCURVE",
"445 754 CURVE SMOOTH",
"293 754 OFFCURVE",
"55 672 OFFCURVE",
"55 356 CURVE SMOOTH"
);
}
);
};
layerId = UUID0;
paths = (
{
closed = 1;
nodes = (
"686 506 OFFCURVE",
"628 699 OFFCURVE",
"445 699 CURVE SMOOTH",
"246 699 OFFCURVE",
"184 506 OFFCURVE",
"184 356 CURVE SMOOTH",
"184 206 OFFCURVE",
"246 15 OFFCURVE",
"445 15 CURVE SMOOTH",
"628 15 OFFCURVE",
"686 206 OFFCURVE",
"686 356 CURVE SMOOTH"
);
},
{
closed = 1;
nodes = (
"75 656 OFFCURVE",
"301 734 OFFCURVE",
"445 734 CURVE SMOOTH",
"581 734 OFFCURVE",
"795 656 OFFCURVE",
"795 356 CURVE SMOOTH",
"795 56 OFFCURVE",
"581 -20 OFFCURVE",
"445 -20 CURVE SMOOTH",
"301 -20 OFFCURVE",
"75 56 OFFCURVE",
"75 356 CURVE SMOOTH"
);
},
{
closed = 1;
nodes = (
"666 220 OFFCURVE",
"617 48 OFFCURVE",
"462 36 CURVE",
"308 48 OFFCURVE",
"259 220 OFFCURVE",
"259 356 CURVE SMOOTH",
"259 492 OFFCURVE",
"308 666 OFFCURVE",
"462 678 CURVE",
"617 666 OFFCURVE",
"666 492 OFFCURVE",
"666 356 CURVE SMOOTH"
);
},
{
closed = 1;
nodes = (
"870 619 OFFCURVE",
"702 754 OFFCURVE",
"462 754 CURVE SMOOTH",
"194 754 OFFCURVE",
"55 591 OFFCURVE",
"55 356 CURVE",
"55 121 OFFCURVE",
"194 -42 OFFCURVE",
"462 -42 CURVE SMOOTH",
"702 -42 OFFCURVE",
"870 93 OFFCURVE",
"870 356 CURVE SMOOTH"
);
}
);
width = 922;
}
);
unicode = 004F;
},
{
glyphname = Oslash;
layers = (
{
hints = (
{
place = "{53, 113}";
},
{
place = "{741, 113}";
},
{
horizontal = 1;
place = "{-9, 44}";
},
{
horizontal = 1;
place = "{756, 44}";
}
);
layerId = UUID0;
paths = (
{
closed = 1;
nodes = (
"686 428 OFFCURVE",
"672 510 OFFCURVE",
"638 575 CURVE",
"284 80 LINE",
"324 43 OFFCURVE",
"375 15 OFFCURVE",
"445 15 CURVE SMOOTH",
"628 15 OFFCURVE",
"686 206 OFFCURVE",
"686 356 CURVE SMOOTH"
);
},
{
closed = 1;
nodes = (
"184 282 OFFCURVE",
"200 197 OFFCURVE",
"248 123 CURVE",
"607 623 LINE",
"569 669 OFFCURVE",
"517 699 OFFCURVE",
"445 699 CURVE SMOOTH",
"246 699 OFFCURVE",
"184 506 OFFCURVE",
"184 356 CURVE SMOOTH"
);
},
{
closed = 1;
nodes = (
"692 650 LINE",
"750 593 OFFCURVE",
"795 500 OFFCURVE",
"795 356 CURVE SMOOTH",
"795 56 OFFCURVE",
"581 -20 OFFCURVE",
"445 -20 CURVE SMOOTH",
"385 -20 OFFCURVE",
"312 -7 OFFCURVE",
"246 29 CURVE",
"162 -89 LINE",
"119 -57 LINE",
"202 59 LINE",
"129 116 OFFCURVE",
"75 209 OFFCURVE",
"75 356 CURVE SMOOTH",
"75 656 OFFCURVE",
"301 734 OFFCURVE",
"445 734 CURVE SMOOTH",
"506 734 OFFCURVE",
"581 720 OFFCURVE",
"648 681 CURVE",
"727 791 LINE",
"770 759 LINE",
"692 650 LINE"
);
},
{
closed = 1;
nodes = (
"251 2 LINE",
"334 -30 OFFCURVE",
"395 -40 OFFCURVE",
"462 -40 CURVE",
"632 -40 OFFCURVE",
"870 40 OFFCURVE",
"870 356 CURVE SMOOTH",
"870 497 OFFCURVE",
"821 593 OFFCURVE",
"732 673 CURVE",
"798 764 LINE",
"722 819 LINE",
"651 719 LINE",
"592 745 OFFCURVE",
"531 754 OFFCURVE",
"463 754 CURVE",
"293 754 OFFCURVE",
"55 672 OFFCURVE",
"55 356 CURVE SMOOTH",
"55 213 OFFCURVE",
"105 116 OFFCURVE",
"175 55 CURVE",
"91 -62 LINE",
"167 -117 LINE"
);
},
{
closed = 1;
nodes = (
"259 492 OFFCURVE",
"308 667 OFFCURVE",
"464 678 CURVE",
"513 673 OFFCURVE",
"553 653 OFFCURVE",
"582 622 CURVE",
"281 204 LINE",
"265 253 OFFCURVE",
"259 306 OFFCURVE",
"259 356 CURVE SMOOTH"
);
},
{
closed = 1;
nodes = (
"666 219 OFFCURVE",
"616 46 OFFCURVE",
"460 35 CURVE",
"413 39 OFFCURVE",
"358 63 OFFCURVE",
"326 104 CURVE",
"636 541 LINE",
"654 488 OFFCURVE",
"666 403 OFFCURVE",
"666 356 CURVE SMOOTH"
);
}
);
width = 922;
}
);
unicode = 00D8;
},
{
glyphname = OE;
layers = (
{
background = {
paths = (
{
closed = 1;
nodes = (
"204 206 OFFCURVE",
"262 15 OFFCURVE",
"445 15 CURVE SMOOTH",
"492 15 OFFCURVE",
"534 27 OFFCURVE",
"569 49 CURVE",
"572 149 OFFCURVE",
"574 280 OFFCURVE",
"574 375 CURVE SMOOTH",
"574 461 OFFCURVE",
"573 575 OFFCURVE",
"569 665 CURVE",
"533 686 OFFCURVE",
"490 699 OFFCURVE",
"445 699 CURVE SMOOTH",
"262 699 OFFCURVE",
"204 506 OFFCURVE",
"204 356 CURVE SMOOTH"
);
},
{
closed = 1;
nodes = (
"75 656 OFFCURVE",
"301 734 OFFCURVE",
"445 734 CURVE SMOOTH",
"484 734 OFFCURVE",
"533 728 OFFCURVE",
"581 714 CURVE",
"720 715 OFFCURVE",
"950 714 OFFCURVE",
"1081 718 CURVE",
"1090 645 OFFCURVE",
"1123 584 OFFCURVE",
"1153 532 CURVE",
"1150 526 OFFCURVE",
"1144 522 OFFCURVE",
"1136 519 CURVE",
"1092 601 OFFCURVE",
"1007 671 OFFCURVE",
"808 684 CURVE",
"682 684 LINE",
"679 593 OFFCURVE",
"677 471 OFFCURVE",
"677 373 CURVE",
"806 373 LINE SMOOTH",
"893 373 OFFCURVE",
"918 442 OFFCURVE",
"961 524 CURVE",
"969 521 OFFCURVE",
"977 517 OFFCURVE",
"980 511 CURVE",
"953 464 OFFCURVE",
"931 398 OFFCURVE",
"931 358 CURVE SMOOTH",
"931 304 OFFCURVE",
"953 251 OFFCURVE",
"980 205 CURVE",
"977 199 OFFCURVE",
"969 195 OFFCURVE",
"961 192 CURVE",
"919 268 OFFCURVE",
"893 343 OFFCURVE",
"806 343 CURVE SMOOTH",
"677 343 LINE",
"677 250 OFFCURVE",
"679 121 OFFCURVE",
"682 30 CURVE",
"828 30 LINE",
"1027 43 OFFCURVE",
"1112 113 OFFCURVE",
"1156 195 CURVE",
"1164 192 OFFCURVE",
"1170 188 OFFCURVE",
"1173 182 CURVE",
"1143 126 OFFCURVE",
"1110 73 OFFCURVE",
"1101 0 CURVE",
"582 0 LINE",
"534 -14 OFFCURVE",
"484 -20 OFFCURVE",
"445 -20 CURVE SMOOTH",
"301 -20 OFFCURVE",
"75 56 OFFCURVE",
"75 356 CURVE SMOOTH"
);
},
{
closed = 1;
nodes = (
"55 40 OFFCURVE",
"293 -40 OFFCURVE",
"445 -40 CURVE SMOOTH",
"463 -40 LINE",
"480 -40 LINE SMOOTH",
"520 -40 OFFCURVE",
"570 -34 OFFCURVE",
"619 -20 CURVE",
"1154 -20 LINE",
"1164 57 OFFCURVE",
"1189 105 OFFCURVE",
"1215 152 CURVE",
"1230 182 LINE",
"1221 201 OFFCURVE",
"1204 212 OFFCURVE",
"1182 220 CURVE",
"1174 206 LINE",
"1166 212 OFFCURVE",
"1157 216 OFFCURVE",
"1147 220 CURVE",
"1102 137 OFFCURVE",
"1007 65 OFFCURVE",
"827 50 CURVE",
"736 50 LINE",
"733 136 OFFCURVE",
"732 234 OFFCURVE",
"732 323 CURVE",
"806 323 LINE SMOOTH",
"869 323 OFFCURVE",
"896 271 OFFCURVE",
"927 213 CURVE SMOOTH",
"932 203 OFFCURVE",
"947 177 OFFCURVE",
"953 167 CURVE",
"962 170 OFFCURVE",
"972 174 OFFCURVE",
"980 180 CURVE",
"988 167 LINE",
"1008 174 OFFCURVE",
"1028 185 OFFCURVE",
"1038 205 CURVE",
"1009 254 OFFCURVE",
"986 309 OFFCURVE",
"986 358 CURVE SMOOTH",
"986 394 OFFCURVE",
"1009 461 OFFCURVE",
"1038 511 CURVE",
"1029 530 OFFCURVE",
"1008 541 OFFCURVE",
"986 549 CURVE",
"979 536 LINE",
"971 541 OFFCURVE",
"961 545 OFFCURVE",
"951 549 CURVE",
"930 508 LINE SMOOTH",
"898 445 OFFCURVE",
"871 393 OFFCURVE",
"806 393 CURVE SMOOTH",
"732 393 LINE",
"732 484 OFFCURVE",
"733 578 OFFCURVE",
"736 664 CURVE",
"807 664 LINE",
"987 650 OFFCURVE",
"1082 576 OFFCURVE",
"1127 494 CURVE",
"1137 498 OFFCURVE",
"1146 502 OFFCURVE",
"1154 507 CURVE",
"1162 494 LINE",
"1185 503 OFFCURVE",
"1202 514 OFFCURVE",
"1211 532 CURVE",
"1180 586 OFFCURVE",
"1145 651 OFFCURVE",
"1134 739 CURVE",
"1123 738 OFFCURVE",
"1111 738 OFFCURVE",
"1099 738 CURVE",
"1099 739 LINE",
"1032 737 OFFCURVE",
"930 735 OFFCURVE",
"832 735 CURVE SMOOTH",
"759 735 LINE",
"724 735 LINE SMOOTH",
"686 735 OFFCURVE",
"651 734 OFFCURVE",
"618 734 CURVE",
"569 748 OFFCURVE",
"520 754 OFFCURVE",
"480 754 CURVE SMOOTH",
"463 754 LINE",
"445 754 LINE SMOOTH",
"293 754 OFFCURVE",
"55 672 OFFCURVE",
"55 356 CURVE SMOOTH"
);
},
{
closed = 1;
nodes = (
"259 492 OFFCURVE",
"308 668 OFFCURVE",
"465 678 CURVE",
"496 676 OFFCURVE",
"524 667 OFFCURVE",
"550 653 CURVE",
"554 563 OFFCURVE",
"554 461 OFFCURVE",
"554 375 CURVE SMOOTH",
"554 282 OFFCURVE",
"552 160 OFFCURVE",
"549 61 CURVE",
"523 46 OFFCURVE",
"497 38 OFFCURVE",
"466 35 CURVE",
"309 45 OFFCURVE",
"259 219 OFFCURVE",
"259 356 CURVE SMOOTH"
);
}
);
};
hints = (
{
place = "{54, 113}";
},
{
place = "{580, 98}";
},
{
place = "{912, 37}";
},
{
place = "{1060, 38}";
},
{
horizontal = 1;
place = "{800, -41}";
},
{
horizontal = 1;
place = "{791, -44}";
},
{
horizontal = 1;
place = "{379, 44}";
},
{
horizontal = 1;
place = "{0, 44}";
},
{
horizontal = 1;
place = "{-9, 41}";
}
);
layerId = UUID0;
paths = (
{
closed = 1;
nodes = (
"366 43 OFFCURVE",
"259 186 OFFCURVE",
"259 356 CURVE SMOOTH",
"259 492 OFFCURVE",
"308 667 OFFCURVE",
"464 678 CURVE",
"497 676 OFFCURVE",
"525 666 OFFCURVE",
"550 653 CURVE",
"554 561 OFFCURVE",
"554 465 OFFCURVE",
"554 375 CURVE SMOOTH",
"554 272 OFFCURVE",
"553 163 OFFCURVE",
"549 61 CURVE"
);
},
{
closed = 1;
nodes = (
"873 714 LINE",
"1040 714 OFFCURVE",
"1101 657 OFFCURVE",
"1163 532 CURVE",
"1160 526 OFFCURVE",
"1154 522 OFFCURVE",
"1146 519 CURVE",
"1102 601 OFFCURVE",
"1017 684 OFFCURVE",
"818 684 CURVE SMOOTH",
"663 684 LINE",
"659 557 OFFCURVE",
"657 468 OFFCURVE",
"657 376 CURVE",
"711 374 OFFCURVE",
"764 374 OFFCURVE",
"816 374 CURVE SMOOTH",
"903 374 OFFCURVE",
"928 442 OFFCURVE",
"971 524 CURVE",
"979 521 OFFCURVE",
"987 517 OFFCURVE",
"990 511 CURVE",
"963 464 OFFCURVE",
"941 398 OFFCURVE",
"941 358 CURVE SMOOTH",
"941 304 OFFCURVE",
"963 251 OFFCURVE",
"990 205 CURVE",
"987 199 OFFCURVE",
"979 195 OFFCURVE",
"971 192 CURVE",
"929 268 OFFCURVE",
"903 343 OFFCURVE",
"816 343 CURVE SMOOTH",
"657 342 LINE",
"657 248 OFFCURVE",
"659 158 OFFCURVE",
"662 30 CURVE",
"838 30 LINE SMOOTH",
"1037 30 OFFCURVE",
"1122 113 OFFCURVE",
"1166 195 CURVE",
"1174 192 OFFCURVE",
"1180 188 OFFCURVE",
"1183 182 CURVE",
"1121 57 OFFCURVE",
"1060 0 OFFCURVE",
"893 0 CURVE SMOOTH",
"579 0 LINE",
"538 -12 OFFCURVE",
"493 -20 OFFCURVE",
"445 -20 CURVE SMOOTH",
"301 -20 OFFCURVE",
"75 66 OFFCURVE",
"75 356 CURVE SMOOTH",
"75 646 OFFCURVE",
"301 734 OFFCURVE",
"445 734 CURVE SMOOTH",
"494 734 OFFCURVE",
"540 726 OFFCURVE",
"581 714 CURVE"
);
},
{
closed = 1;
nodes = (
"1133 -20 LINE",
"1143 57 OFFCURVE",
"1164 107 OFFCURVE",
"1209 182 CURVE",
"1200 201 OFFCURVE",
"1179 212 OFFCURVE",
"1157 220 CURVE",
"1112 137 OFFCURVE",
"1018 50 OFFCURVE",
"837 50 CURVE SMOOTH",
"736 50 LINE",
"733 166 OFFCURVE",
"732 233 OFFCURVE",
"732 313 CURVE",
"820 313 LINE",
"880 310 OFFCURVE",
"907 264 OFFCURVE",
"937 213 CURVE SMOOTH",
"942 203 OFFCURVE",
"957 177 OFFCURVE",
"963 167 CURVE",
"983 174 OFFCURVE",
"1003 185 OFFCURVE",
"1013 205 CURVE",
"984 254 OFFCURVE",
"961 309 OFFCURVE",
"961 358 CURVE SMOOTH",
"961 394 OFFCURVE",
"984 461 OFFCURVE",
"1013 511 CURVE",
"1004 530 OFFCURVE",
"983 541 OFFCURVE",
"961 549 CURVE",
"940 508 LINE SMOOTH",
"909 446 OFFCURVE",
"882 394 OFFCURVE",
"821 394 CURVE SMOOTH",
"792 394 OFFCURVE",
"763 394 OFFCURVE",
"732 395 CURVE",
"732 478 OFFCURVE",
"734 559 OFFCURVE",
"737 664 CURVE",
"817 664 LINE SMOOTH",
"998 664 OFFCURVE",
"1092 577 OFFCURVE",
"1137 494 CURVE",
"1159 502 OFFCURVE",
"1180 513 OFFCURVE",
"1189 532 CURVE",
"1144 607 OFFCURVE",
"1123 657 OFFCURVE",
"1113 734 CURVE",
"618 734 LINE",
"575 744 OFFCURVE",
"533 754 OFFCURVE",
"465 754 CURVE SMOOTH",
"298 754 OFFCURVE",
"55 672 OFFCURVE",
"55 356 CURVE SMOOTH",
"55 51 OFFCURVE",
"293 -40 OFFCURVE",
"445 -40 CURVE SMOOTH",
"516 -40 OFFCURVE",
"559 -37 OFFCURVE",
"619 -20 CURVE"
);
},
{
closed = 1;
nodes = (
"535 683 OFFCURVE",
"495 699 OFFCURVE",
"445 699 CURVE SMOOTH",
"247 699 OFFCURVE",
"184 506 OFFCURVE",
"184 356 CURVE SMOOTH",
"184 190 OFFCURVE",
"275 40 OFFCURVE",
"487 40 CURVE SMOOTH",
"522 40 OFFCURVE",
"546 43 OFFCURVE",
"569 49 CURVE",
"573 151 OFFCURVE",
"574 272 OFFCURVE",
"574 375 CURVE SMOOTH",
"574 465 OFFCURVE",
"573 573 OFFCURVE",
"569 665 CURVE"
);
}
);
width = 1235;
}
);
unicode = 0152;
},
{
glyphname = P;
layers = (
{
layerId = UUID0;
paths = (
{
closed = 1;
nodes = (
"256 567 OFFCURVE",
"255 463 OFFCURVE",
"255 357 CURVE",
"287 345 OFFCURVE",
"320 339 OFFCURVE",
"355 339 CURVE SMOOTH",
"449 339 OFFCURVE",
"493 405 OFFCURVE",
"493 506 CURVE SMOOTH",
"493 603 OFFCURVE",
"456 686 OFFCURVE",
"315 686 CURVE SMOOTH",
"298 686 OFFCURVE",
"278 685 OFFCURVE",
"258 684 CURVE"
);
},
{
closed = 1;
nodes = (
"141 49 OFFCURVE",
"75 43 OFFCURVE",
"35 39 CURVE",
"25 14 OFFCURVE",
"27 -1 OFFCURVE",
"35 -24 CURVE",
"114 -22 OFFCURVE",
"171 -20 OFFCURVE",
"221 -20 CURVE SMOOTH",
"278 -20 OFFCURVE",
"350 -22 OFFCURVE",
"440 -24 CURVE",
"448 1 OFFCURVE",
"449 15 OFFCURVE",
"443 36 CURVE",
"401 42 OFFCURVE",
"334 49 OFFCURVE",
"333 67 CURVE SMOOTH",
"330 145 OFFCURVE",
"330 213 OFFCURVE",
"330 283 CURVE",
"353 278 OFFCURVE",
"375 277 OFFCURVE",
"393 277 CURVE SMOOTH",
"556 277 OFFCURVE",
"675 359 OFFCURVE",
"675 505 CURVE SMOOTH",
"675 641 OFFCURVE",
"583 738 OFFCURVE",
"398 738 CURVE SMOOTH",
"279 738 OFFCURVE",
"152 734 OFFCURVE",
"36 739 CURVE",
"29 717 OFFCURVE",
"28 701 OFFCURVE",
"34 676 CURVE",
"74 672 OFFCURVE",
"142 666 OFFCURVE",
"143 647 CURVE SMOOTH",
"147 555 OFFCURVE",
"148 465 OFFCURVE",
"148 375 CURVE SMOOTH",
"148 272 OFFCURVE",
"147 170 OFFCURVE",
"142 68 CURVE SMOOTH"
);
},
{
closed = 1;
nodes = (
"473 422 OFFCURVE",
"439 366 OFFCURVE",
"369 359 CURVE",
"356 360 OFFCURVE",
"343 363 OFFCURVE",
"330 369 CURVE",
"330 469 OFFCURVE",
"330 557 OFFCURVE",
"332 665 CURVE",
"443 659 OFFCURVE",
"473 588 OFFCURVE",
"473 506 CURVE SMOOTH"
);
},
{
closed = 1;
nodes = (
"166 169 OFFCURVE",
"168 272 OFFCURVE",
"168 375 CURVE SMOOTH",
"168 465 OFFCURVE",
"167 556 OFFCURVE",
"163 648 CURVE SMOOTH",
"161 684 OFFCURVE",
"92 691 OFFCURVE",
"50 695 CURVE",
"48 702 OFFCURVE",
"47 711 OFFCURVE",
"50 718 CURVE",
"153 711 OFFCURVE",
"255 718 OFFCURVE",
"363 718 CURVE SMOOTH",
"521 718 OFFCURVE",
"600 629 OFFCURVE",
"600 505 CURVE SMOOTH",
"600 388 OFFCURVE",
"530 297 OFFCURVE",
"393 297 CURVE SMOOTH",
"358 297 OFFCURVE",
"305 302 OFFCURVE",
"255 324 CURVE",
"255 242 OFFCURVE",
"256 159 OFFCURVE",
"258 67 CURVE SMOOTH",
"259 31 OFFCURVE",
"359 24 OFFCURVE",
"421 20 CURVE",
"423 12 OFFCURVE",
"424 4 OFFCURVE",
"421 -3 CURVE",
"357 -1 OFFCURVE",
"287 0 OFFCURVE",
"221 0 CURVE SMOOTH",
"163 0 OFFCURVE",
"104 -1 OFFCURVE",
"49 -3 CURVE",
"47 5 OFFCURVE",
"46 13 OFFCURVE",
"49 20 CURVE",
"91 24 OFFCURVE",
"161 31 OFFCURVE",
"162 67 CURVE SMOOTH"
);
}
);
width = 693;
}
);
unicode = 0050;
},
{
glyphname = Thorn;
layers = (
{
hints = (
{
place = "{139, 97}";
},
{
place = "{594, 113}";
},
{
horizontal = 1;
place = "{0, 38}";
},
{
horizontal = 1;
place = "{133, 44}";
},
{
horizontal = 1;
place = "{645, 44}";
},
{
horizontal = 1;
place = "{753, 38}";
}
);
layerId = UUID0;
paths = (
{
closed = 1;
nodes = (
"301 541 OFFCURVE",
"277 535 OFFCURVE",
"253 528 CURVE",
"250 418 OFFCURVE",
"249 316 OFFCURVE",
"252 215 CURVE",
"286 206 OFFCURVE",
"321 204 OFFCURVE",
"359 204 CURVE SMOOTH",
"453 204 OFFCURVE",
"497 277 OFFCURVE",
"497 378 CURVE SMOOTH",
"497 475 OFFCURVE",
"460 541 OFFCURVE",
"364 541 CURVE SMOOTH"
);
},
{
closed = 1;
nodes = (
"255 620 OFFCURVE",
"254 591 OFFCURVE",
"254 563 CURVE",
"289 576 OFFCURVE",
"337 583 OFFCURVE",
"403 583 CURVE SMOOTH",
"527 583 OFFCURVE",
"604 501 OFFCURVE",
"604 377 CURVE SMOOTH",
"604 260 OFFCURVE",
"535 162 OFFCURVE",
"397 162 CURVE SMOOTH",
"360 162 OFFCURVE",
"305 164 OFFCURVE",
"252 183 CURVE",
"253 145 OFFCURVE",
"254 106 OFFCURVE",
"256 67 CURVE",
"257 31 OFFCURVE",
"357 24 OFFCURVE",
"419 20 CURVE",
"421 12 OFFCURVE",
"422 4 OFFCURVE",
"419 -3 CURVE",
"355 -1 OFFCURVE",
"285 0 OFFCURVE",
"219 0 CURVE SMOOTH",
"161 0 OFFCURVE",
"104 -1 OFFCURVE",
"49 -3 CURVE",
"47 5 OFFCURVE",
"46 13 OFFCURVE",
"49 20 CURVE",
"91 24 OFFCURVE",
"162 31 OFFCURVE",
"162 67 CURVE SMOOTH",
"163 258 OFFCURVE",
"164 451 OFFCURVE",
"163 648 CURVE",
"163 684 OFFCURVE",
"91 691 OFFCURVE",
"49 695 CURVE",
"47 702 OFFCURVE",
"46 711 OFFCURVE",
"49 718 CURVE",
"104 716 OFFCURVE",
"161 714 OFFCURVE",
"219 714 CURVE SMOOTH",
"285 714 OFFCURVE",
"355 716 OFFCURVE",
"419 718 CURVE",
"421 710 OFFCURVE",
"422 703 OFFCURVE",
"419 695 CURVE",
"357 691 OFFCURVE",
"257 684 OFFCURVE",
"256 648 CURVE SMOOTH"
);
},
{
closed = 1;
nodes = (
"477 293 OFFCURVE",
"442 230 OFFCURVE",
"370 224 CURVE",
"355 225 OFFCURVE",
"340 227 OFFCURVE",
"326 230 CURVE",
"324 326 OFFCURVE",
"324 420 OFFCURVE",
"327 513 CURVE",
"338 516 OFFCURVE",
"353 519 OFFCURVE",
"376 520 CURVE",
"449 515 OFFCURVE",
"477 458 OFFCURVE",
"477 378 CURVE SMOOTH"
);
},
{
closed = 1;
nodes = (
"332 666 OFFCURVE",
"400 672 OFFCURVE",
"440 676 CURVE",
"446 701 OFFCURVE",
"446 714 OFFCURVE",
"439 736 CURVE",
"358 736 OFFCURVE",
"303 734 OFFCURVE",
"254 734 CURVE SMOOTH",
"196 734 OFFCURVE",
"122 738 OFFCURVE",
"35 739 CURVE",
"28 717 OFFCURVE",
"27 701 OFFCURVE",
"33 676 CURVE",
"73 672 OFFCURVE",
"142 666 OFFCURVE",
"142 647 CURVE SMOOTH",
"146 453 OFFCURVE",
"146 260 OFFCURVE",
"142 68 CURVE",
"141 49 OFFCURVE",
"75 43 OFFCURVE",
"35 39 CURVE",
"25 14 OFFCURVE",
"27 -1 OFFCURVE",
"35 -24 CURVE",
"114 -22 OFFCURVE",
"169 -20 OFFCURVE",
"219 -20 CURVE SMOOTH",
"276 -20 OFFCURVE",
"348 -22 OFFCURVE",
"438 -24 CURVE",
"446 1 OFFCURVE",
"447 15 OFFCURVE",
"441 36 CURVE",
"399 42 OFFCURVE",
"332 49 OFFCURVE",
"331 68 CURVE SMOOTH",
"329 94 OFFCURVE",
"328 120 OFFCURVE",
"327 147 CURVE",
"353 142 OFFCURVE",
"405 142 OFFCURVE",
"432 142 CURVE SMOOTH",
"596 142 OFFCURVE",
"679 249 OFFCURVE",
"679 377 CURVE SMOOTH",
"679 513 OFFCURVE",
"586 603 OFFCURVE",
"438 603 CURVE",
"411 603 OFFCURVE",
"351 601 OFFCURVE",
"330 598 CURVE",
"330 615 OFFCURVE",
"330 630 OFFCURVE",
"331 647 CURVE SMOOTH"
);
}
);
width = 704;
}
);
unicode = 00DE;
},
{
glyphname = Q;
layers = (
{
background = {
paths = (
{
closed = 1;
nodes = (
"686 506 OFFCURVE",
"628 699 OFFCURVE",
"445 699 CURVE SMOOTH",
"246 699 OFFCURVE",
"184 506 OFFCURVE",
"184 356 CURVE SMOOTH",
"184 206 OFFCURVE",
"246 15 OFFCURVE",
"445 15 CURVE SMOOTH",
"628 15 OFFCURVE",
"686 206 OFFCURVE",
"686 356 CURVE SMOOTH"
);
},
{
closed = 1;
nodes = (
"75 656 OFFCURVE",
"301 734 OFFCURVE",
"445 734 CURVE SMOOTH",
"581 734 OFFCURVE",
"795 656 OFFCURVE",
"795 356 CURVE SMOOTH",
"795 56 OFFCURVE",
"581 -20 OFFCURVE",
"445 -20 CURVE SMOOTH",
"301 -20 OFFCURVE",
"75 56 OFFCURVE",
"75 356 CURVE SMOOTH"
);
},
{
closed = 1;
nodes = (
"666 220 OFFCURVE",
"617 48 OFFCURVE",
"462 36 CURVE",
"308 48 OFFCURVE",
"259 220 OFFCURVE",
"259 356 CURVE SMOOTH",
"259 492 OFFCURVE",
"308 666 OFFCURVE",
"462 678 CURVE",
"617 666 OFFCURVE",
"666 492 OFFCURVE",
"666 356 CURVE SMOOTH"
);
},
{
closed = 1;
nodes = (
"870 619 OFFCURVE",
"702 754 OFFCURVE",
"462 754 CURVE SMOOTH",
"194 754 OFFCURVE",
"55 591 OFFCURVE",
"55 356 CURVE SMOOTH",
"55 121 OFFCURVE",
"194 -42 OFFCURVE",
"462 -42 CURVE SMOOTH",
"702 -42 OFFCURVE",
"870 93 OFFCURVE",
"870 356 CURVE SMOOTH"
);
}
);
};
hints = (
{
place = "{75, 157}";
},
{
place = "{692, 157}";
},
{
horizontal = 1;
place = "{-205, 21}";
},
{
horizontal = 1;
place = "{773, -20}";
target = down;
type = TopGhost;
}
);
layerId = UUID0;
paths = (
{
closed = 1;
nodes = (
"686 506 OFFCURVE",
"628 699 OFFCURVE",
"445 699 CURVE SMOOTH",
"247 699 OFFCURVE",
"184 506 OFFCURVE",
"184 356 CURVE SMOOTH",
"184 206 OFFCURVE",
"247 15 OFFCURVE",
"445 15 CURVE SMOOTH",
"628 15 OFFCURVE",
"686 206 OFFCURVE",
"686 356 CURVE SMOOTH"
);
},
{
closed = 1;
nodes = (
"677 -145 OFFCURVE",
"628 -83 OFFCURVE",
"599 -25 CURVE",
"737 12 OFFCURVE",
"870 116 OFFCURVE",
"870 356 CURVE SMOOTH",
"870 637 OFFCURVE",
"678 754 OFFCURVE",
"445 754 CURVE SMOOTH",
"293 754 OFFCURVE",
"55 672 OFFCURVE",
"55 356 CURVE SMOOTH",
"55 94 OFFCURVE",
"213 -5 OFFCURVE",
"356 -32 CURVE",
"458 -212 OFFCURVE",
"624 -258 OFFCURVE",
"834 -258 CURVE",
"842 -233 OFFCURVE",
"843 -219 OFFCURVE",
"837 -198 CURVE"
);
},
{
closed = 1;
nodes = (
"666 220 OFFCURVE",
"617 48 OFFCURVE",
"462 36 CURVE",
"308 48 OFFCURVE",
"259 220 OFFCURVE",
"259 356 CURVE SMOOTH",
"259 492 OFFCURVE",
"308 666 OFFCURVE",
"462 678 CURVE",
"617 666 OFFCURVE",
"666 492 OFFCURVE",
"666 356 CURVE SMOOTH"
);
},
{
closed = 1;
nodes = (
"825 -222 OFFCURVE",
"824 -231 OFFCURVE",
"821 -238 CURVE",
"641 -232 OFFCURVE",
"500 -143 OFFCURVE",
"439 -20 CURVE",
"215 -15 OFFCURVE",
"75 136 OFFCURVE",
"75 356 CURVE SMOOTH",
"75 656 OFFCURVE",
"301 734 OFFCURVE",
"445 734 CURVE SMOOTH",
"581 734 OFFCURVE",
"795 656 OFFCURVE",
"795 356 CURVE SMOOTH",
"795 114 OFFCURVE",
"665 35 OFFCURVE",
"557 -4 CURVE",
"591 -70 OFFCURVE",
"648 -162 OFFCURVE",
"822 -215 CURVE"
);
}
);
width = 922;
}
);
unicode = 0051;
},
{
glyphname = R;
layers = (
{
layerId = UUID0;
paths = (
{
closed = 1;
nodes = (
"256 684 LINE",
"253 586 OFFCURVE",
"251 449 OFFCURVE",
"251 349 CURVE",
"283 341 OFFCURVE",
"313 338 OFFCURVE",
"340 338 CURVE SMOOTH",
"451 338 OFFCURVE",
"488 437 OFFCURVE",
"488 521 CURVE SMOOTH",
"488 614 OFFCURVE",
"437 686 OFFCURVE",
"335 686 CURVE SMOOTH",
"305 686 OFFCURVE",
"287 686 OFFCURVE",
"257 684 CURVE"
);
},
{
closed = 1;
nodes = (
"468 450 OFFCURVE",
"439 368 OFFCURVE",
"356 359 CURVE",
"346 360 OFFCURVE",
"336 361 OFFCURVE",
"326 364 CURVE",
"326 458 OFFCURVE",
"328 571 OFFCURVE",
"330 665 CURVE",
"417 672 OFFCURVE",
"468 600 OFFCURVE",
"468 521 CURVE SMOOTH"
);
},
{
closed = 1;
nodes = (
"166 169 OFFCURVE",
"168 272 OFFCURVE",
"168 375 CURVE SMOOTH",
"168 465 OFFCURVE",
"167 556 OFFCURVE",
"163 648 CURVE SMOOTH",
"162 684 OFFCURVE",
"92 691 OFFCURVE",
"50 695 CURVE",
"48 702 OFFCURVE",
"48 711 OFFCURVE",
"50 718 CURVE",
"163 712 OFFCURVE",
"267 718 OFFCURVE",
"382 718 CURVE SMOOTH",
"518 718 OFFCURVE",
"595 635 OFFCURVE",
"595 521 CURVE SMOOTH",
"595 428 OFFCURVE",
"537 348 OFFCURVE",
"440 316 CURVE",
"467 268 OFFCURVE",
"497 224 OFFCURVE",
"530 183 CURVE SMOOTH",
"629 60 OFFCURVE",
"689 28 OFFCURVE",
"793 20 CURVE",
"795 13 OFFCURVE",
"796 4 OFFCURVE",
"793 -3 CURVE",
"717 0 OFFCURVE",
"640 -1 OFFCURVE",
"564 0 CURVE",
"490 86 OFFCURVE",
"417 182 OFFCURVE",
"353 301 CURVE",
"321 301 OFFCURVE",
"286 305 OFFCURVE",
"251 312 CURVE",
"251 230 OFFCURVE",
"253 149 OFFCURVE",
"256 67 CURVE",
"257 31 OFFCURVE",
"357 24 OFFCURVE",
"419 20 CURVE",
"421 12 OFFCURVE",
"422 4 OFFCURVE",
"419 -3 CURVE",
"355 -1 OFFCURVE",
"285 0 OFFCURVE",
"219 0 CURVE SMOOTH",
"161 0 OFFCURVE",
"104 -1 OFFCURVE",
"49 -3 CURVE",
"47 5 OFFCURVE",
"46 13 OFFCURVE",
"49 20 CURVE",
"91 24 OFFCURVE",
"161 31 OFFCURVE",
"162 67 CURVE"
);
},
{
closed = 1;
nodes = (
"141 49 OFFCURVE",
"75 43 OFFCURVE",
"35 39 CURVE",
"25 14 OFFCURVE",
"27 -1 OFFCURVE",
"35 -24 CURVE",
"114 -22 OFFCURVE",
"169 -20 OFFCURVE",
"219 -20 CURVE SMOOTH",
"276 -20 OFFCURVE",
"348 -22 OFFCURVE",
"438 -24 CURVE",
"446 1 OFFCURVE",
"447 15 OFFCURVE",
"441 36 CURVE",
"399 42 OFFCURVE",
"332 49 OFFCURVE",
"331 68 CURVE",
"328 141 OFFCURVE",
"326 208 OFFCURVE",
"326 281 CURVE",
"341 281 LINE",
"404 166 OFFCURVE",
"479 69 OFFCURVE",
"555 -20 CURVE",
"638 -21 OFFCURVE",
"732 -22 OFFCURVE",
"812 -24 CURVE",
"820 2 OFFCURVE",
"820 16 OFFCURVE",
"814 39 CURVE",
"726 48 OFFCURVE",
"661 115 OFFCURVE",
"601 195 CURVE SMOOTH",
"573 231 OFFCURVE",
"547 268 OFFCURVE",
"524 306 CURVE",
"614 346 OFFCURVE",
"670 429 OFFCURVE",
"670 521 CURVE SMOOTH",
"670 647 OFFCURVE",
"578 738 OFFCURVE",
"417 738 CURVE SMOOTH",
"292 738 OFFCURVE",
"157 733 OFFCURVE",
"36 739 CURVE",
"29 717 OFFCURVE",
"28 701 OFFCURVE",
"34 676 CURVE",
"74 672 OFFCURVE",
"142 666 OFFCURVE",
"143 647 CURVE SMOOTH",
"147 555 OFFCURVE",
"148 465 OFFCURVE",
"148 375 CURVE SMOOTH",
"148 272 OFFCURVE",
"147 170 OFFCURVE",
"142 68 CURVE SMOOTH"
);
}
);
width = 810;
}
);
unicode = 0052;
},
{
glyphname = S;
layers = (
{
background = {
paths = (
{
closed = 1;
nodes = (
"493 631 OFFCURVE",
"423 699 OFFCURVE",
"331 699 CURVE SMOOTH",
"238 699 OFFCURVE",
"188 651 OFFCURVE",
"188 581 CURVE SMOOTH",
"188 508 OFFCURVE",
"208 469 OFFCURVE",
"347 435 CURVE SMOOTH",
"459 408 OFFCURVE",
"577 367 OFFCURVE",
"577 205 CURVE SMOOTH",
"577 50 OFFCURVE",
"427 -20 OFFCURVE",
"312 -20 CURVE SMOOTH",
"220 -20 OFFCURVE",
"133 12 OFFCURVE",
"81 36 CURVE",
"82 57 OFFCURVE",
"83 79 OFFCURVE",
"83 101 CURVE SMOOTH",
"83 153 OFFCURVE",
"79 207 OFFCURVE",
"70 260 CURVE",
"74 262 OFFCURVE",
"78 263 OFFCURVE",
"81 263 CURVE SMOOTH",
"85 263 OFFCURVE",
"89 262 OFFCURVE",
"93 260 CURVE",
"122 85 OFFCURVE",
"226 16 OFFCURVE",
"312 16 CURVE SMOOTH",
"417 16 OFFCURVE",
"471 77 OFFCURVE",
"471 161 CURVE SMOOTH",
"471 247 OFFCURVE",
"441 286 OFFCURVE",
"324 315 CURVE SMOOTH",
"191 348 OFFCURVE",
"96 411 OFFCURVE",
"96 533 CURVE SMOOTH",
"96 691 OFFCURVE",
"230 734 OFFCURVE",
"331 734 CURVE SMOOTH",
"417 734 OFFCURVE",
"490 707 OFFCURVE",
"532 689 CURVE",
"530 670 OFFCURVE",
"529 650 OFFCURVE",
"529 629 CURVE SMOOTH",
"529 585 OFFCURVE",
"533 541 OFFCURVE",
"541 511 CURVE",
"537 510 OFFCURVE",
"534 509 OFFCURVE",
"530 509 CURVE SMOOTH",
"526 509 OFFCURVE",
"522 510 OFFCURVE",
"518 511 CURVE"
);
},
{
closed = 1;
nodes = (
"548 492 LINE",
"554 490 OFFCURVE",
"560 489 OFFCURVE",
"565 489 CURVE SMOOTH",
"569 489 OFFCURVE",
"573 489 OFFCURVE",
"597 497 CURVE",
"589 537 OFFCURVE",
"584 586 OFFCURVE",
"584 629 CURVE SMOOTH",
"584 652 OFFCURVE",
"585 676 OFFCURVE",
"588 701 CURVE",
"538 722 OFFCURVE",
"454 754 OFFCURVE",
"366 754 CURVE SMOOTH",
"361 754 OFFCURVE",
"355 753 OFFCURVE",
"350 753 CURVE SMOOTH",
"343 754 OFFCURVE",
"337 754 OFFCURVE",
"331 754 CURVE SMOOTH",
"221 754 OFFCURVE",
"76 707 OFFCURVE",
"76 533 CURVE SMOOTH",
"76 399 OFFCURVE",
"177 331 OFFCURVE",
"319 296 CURVE SMOOTH",
"424 270 OFFCURVE",
"451 235 OFFCURVE",
"451 161 CURVE SMOOTH",
"451 94 OFFCURVE",
"410 43 OFFCURVE",
"330 37 CURVE",
"256 45 OFFCURVE",
"172 114 OFFCURVE",
"146 273 CURVE",
"133 280 OFFCURVE",
"123 283 OFFCURVE",
"116 283 CURVE SMOOTH",
"113 283 OFFCURVE",
"107 281 OFFCURVE",
"99 278 CURVE",
"92 281 OFFCURVE",
"85 283 OFFCURVE",
"81 283 CURVE SMOOTH",
"76 283 OFFCURVE",
"64 279 OFFCURVE",
"48 271 CURVE",
"58 210 OFFCURVE",
"63 153 OFFCURVE",
"63 101 CURVE SMOOTH",
"63 79 OFFCURVE",
"61 45 OFFCURVE",
"60 24 CURVE",
"120 -3 OFFCURVE",
"217 -40 OFFCURVE",
"312 -40 CURVE SMOOTH",
"317 -40 OFFCURVE",
"323 -40 OFFCURVE",
"329 -39 CURVE",
"335 -40 OFFCURVE",
"341 -40 OFFCURVE",
"347 -40 CURVE SMOOTH",
"471 -40 OFFCURVE",
"632 36 OFFCURVE",
"632 205 CURVE SMOOTH",
"632 381 OFFCURVE",
"506 425 OFFCURVE",
"387 454 CURVE SMOOTH",
"261 485 OFFCURVE",
"243 518 OFFCURVE",
"243 581 CURVE SMOOTH",
"243 634 OFFCURVE",
"279 672 OFFCURVE",
"346 678 CURVE",
"420 671 OFFCURVE",
"476 610 OFFCURVE",
"498 507 CURVE",
"513 492 LINE",
"519 490 OFFCURVE",
"525 489 OFFCURVE",
"530 489 CURVE SMOOTH",
"533 489 OFFCURVE",
"536 489 OFFCURVE",
"547 492 CURVE"
);
},
{
closed = 1;
nodes = (
"331 734 LINE",
"417 734 OFFCURVE",
"490 707 OFFCURVE",
"532 689 CURVE",
"530 670 OFFCURVE",
"529 650 OFFCURVE",
"529 629 CURVE SMOOTH",
"529 585 OFFCURVE",
"533 541 OFFCURVE",
"541 511 CURVE",
"537 510 OFFCURVE",
"534 509 OFFCURVE",
"530 509 CURVE SMOOTH",
"526 509 OFFCURVE",
"522 510 OFFCURVE",
"518 511 CURVE",
"493 631 OFFCURVE",
"423 699 OFFCURVE",
"331 699 CURVE"
);
},
{
closed = 1;
nodes = (
"346 678 LINE",
"420 671 OFFCURVE",
"476 610 OFFCURVE",
"498 507 CURVE",
"513 492 LINE",
"542 485 OFFCURVE",
"571 490 OFFCURVE",
"597 497 CURVE",
"589 537 OFFCURVE",
"584 586 OFFCURVE",
"584 629 CURVE SMOOTH",
"584 652 OFFCURVE",
"585 676 OFFCURVE",
"588 701 CURVE",
"493 738 OFFCURVE",
"414 754 OFFCURVE",
"331 754 CURVE"
);
}
);
};
layerId = UUID0;
paths = (
{
closed = 1;
nodes = (
"221 754 OFFCURVE",
"76 707 OFFCURVE",
"76 533 CURVE SMOOTH",
"76 264 OFFCURVE",
"451 379 OFFCURVE",
"451 161 CURVE SMOOTH",
"451 94 OFFCURVE",
"410 43 OFFCURVE",
"330 37 CURVE",
"256 45 OFFCURVE",
"172 114 OFFCURVE",
"146 273 CURVE",
"111 285 OFFCURVE",
"80 286 OFFCURVE",
"48 271 CURVE",
"58 210 OFFCURVE",
"63 153 OFFCURVE",
"63 101 CURVE SMOOTH",
"63 79 OFFCURVE",
"61 45 OFFCURVE",
"60 24 CURVE",
"120 -3 OFFCURVE",
"217 -40 OFFCURVE",
"347 -40 CURVE SMOOTH",
"471 -40 OFFCURVE",
"632 36 OFFCURVE",
"632 205 CURVE SMOOTH",
"632 531 OFFCURVE",
"243 372 OFFCURVE",
"243 581 CURVE SMOOTH",
"243 634 OFFCURVE",
"279 672 OFFCURVE",
"346 678 CURVE",
"466 662 OFFCURVE",
"482 545 OFFCURVE",
"506 489 CURVE",
"526 491 OFFCURVE",
"550 502 OFFCURVE",
"563 513 CURVE",
"550 570 OFFCURVE",
"542 629 OFFCURVE",
"565 709 CURVE",
"448 724 OFFCURVE",
"458 754 OFFCURVE",
"331 754 CURVE SMOOTH"
);
},
{
closed = 1;
nodes = (
"431 734 OFFCURVE",
"516 688 OFFCURVE",
"539 518 CURVE",
"537 515 OFFCURVE",
"527 510 OFFCURVE",
"518 511 CURVE",
"497 588 OFFCURVE",
"453 699 OFFCURVE",
"331 699 CURVE SMOOTH",
"225 699 OFFCURVE",
"168 643 OFFCURVE",
"168 561 CURVE SMOOTH",
"168 339 OFFCURVE",
"557 454 OFFCURVE",
"557 185 CURVE SMOOTH",
"557 44 OFFCURVE",
"418 -20 OFFCURVE",
"312 -20 CURVE SMOOTH",
"220 -20 OFFCURVE",
"133 12 OFFCURVE",
"81 36 CURVE",
"82 57 OFFCURVE",
"83 79 OFFCURVE",
"83 101 CURVE SMOOTH",
"83 153 OFFCURVE",
"79 207 OFFCURVE",
"70 260 CURVE",
"79 264 OFFCURVE",
"86 264 OFFCURVE",
"93 260 CURVE",
"122 85 OFFCURVE",
"226 16 OFFCURVE",
"312 16 CURVE SMOOTH",
"417 16 OFFCURVE",
"471 77 OFFCURVE",
"471 161 CURVE SMOOTH",
"471 395 OFFCURVE",
"96 290 OFFCURVE",
"96 533 CURVE SMOOTH",
"96 691 OFFCURVE",
"230 734 OFFCURVE",
"331 734 CURVE SMOOTH"
);
}
);
width = 679;
}
);
unicode = 0053;
},
{
glyphname = T;
layers = (
{
layerId = UUID0;
paths = (
{
closed = 1;
nodes = (
"86 567 OFFCURVE",
"162 639 OFFCURVE",
"331 661 CURVE",
"334 565 OFFCURVE",
"335 480 OFFCURVE",
"335 377 CURVE SMOOTH",
"335 270 OFFCURVE",
"334 165 OFFCURVE",
"330 67 CURVE SMOOTH",
"329 49 OFFCURVE",
"263 43 OFFCURVE",
"223 39 CURVE",
"213 14 OFFCURVE",
"215 -1 OFFCURVE",
"223 -24 CURVE",
"313 -22 OFFCURVE",
"384 -20 OFFCURVE",
"442 -20 CURVE SMOOTH",
"492 -20 OFFCURVE",
"547 -22 OFFCURVE",
"626 -24 CURVE",
"634 2 OFFCURVE",
"634 15 OFFCURVE",
"628 39 CURVE",
"588 43 OFFCURVE",
"520 49 OFFCURVE",
"519 68 CURVE SMOOTH",
"514 165 OFFCURVE",
"514 270 OFFCURVE",
"514 377 CURVE SMOOTH",
"514 473 OFFCURVE",
"515 573 OFFCURVE",
"518 664 CURVE",
"699 664 OFFCURVE",
"793 577 OFFCURVE",
"838 494 CURVE",
"860 502 OFFCURVE",
"881 513 OFFCURVE",
"890 532 CURVE",
"845 607 OFFCURVE",
"824 657 OFFCURVE",
"814 734 CURVE",
"407 734 LINE",
"69 734 LINE",
"59 653 OFFCURVE",
"32 607 OFFCURVE",
"-8 532 CURVE",
"1 514 OFFCURVE",
"18 503 OFFCURVE",
"41 494 CURVE"
);
},
{
closed = 1;
nodes = (
"179 681 LINE",
"133 680 OFFCURVE",
"88 609 OFFCURVE",
"32 519 CURVE",
"24 522 OFFCURVE",
"18 526 OFFCURVE",
"15 532 CURVE",
"43 586 OFFCURVE",
"78 645 OFFCURVE",
"87 715 CURVE",
"191 715 OFFCURVE",
"301 714 OFFCURVE",
"407 714 CURVE SMOOTH",
"574 714 LINE",
"741 714 OFFCURVE",
"802 657 OFFCURVE",
"864 532 CURVE",
"861 526 OFFCURVE",
"855 522 OFFCURVE",
"847 519 CURVE",
"803 601 OFFCURVE",
"718 679 OFFCURVE",
"519 684 CURVE SMOOTH",
"444 686 LINE",
"440 589 OFFCURVE",
"439 482 OFFCURVE",
"439 377 CURVE SMOOTH",
"439 270 OFFCURVE",
"441 164 OFFCURVE",
"444 67 CURVE SMOOTH",
"445 31 OFFCURVE",
"545 24 OFFCURVE",
"607 20 CURVE",
"609 13 OFFCURVE",
"610 4 OFFCURVE",
"607 -3 CURVE",
"543 -1 OFFCURVE",
"473 0 OFFCURVE",
"407 0 CURVE SMOOTH",
"349 0 OFFCURVE",
"292 -1 OFFCURVE",
"237 -3 CURVE",
"235 5 OFFCURVE",
"234 13 OFFCURVE",
"237 20 CURVE",
"279 24 OFFCURVE",
"349 31 OFFCURVE",
"350 67 CURVE SMOOTH",
"354 164 OFFCURVE",
"355 270 OFFCURVE",
"355 377 CURVE SMOOTH",
"355 482 OFFCURVE",
"353 589 OFFCURVE",
"350 686 CURVE"
);
}
);
width = 847;
}
);
unicode = 0054;
},
{
glyphname = U;
layers = (
{
layerId = UUID0;
paths = (
{
closed = 1;
nodes = (
"127 554 OFFCURVE",
"128 463 OFFCURVE",
"128 291 CURVE SMOOTH",
"128 19 OFFCURVE",
"268 -40 OFFCURVE",
"462 -40 CURVE SMOOTH",
"581 -40 OFFCURVE",
"761 27 OFFCURVE",
"761 291 CURVE SMOOTH",
"761 405 OFFCURVE",
"760 527 OFFCURVE",
"766 640 CURVE SMOOTH",
"767 664 OFFCURVE",
"828 672 OFFCURVE",
"868 676 CURVE",
"873 687 OFFCURVE",
"875 697 OFFCURVE",
"875 706 CURVE SMOOTH",
"875 716 OFFCURVE",
"872 725 OFFCURVE",
"868 737 CURVE",
"814 735 OFFCURVE",
"773 734 OFFCURVE",
"735 734 CURVE SMOOTH",
"685 734 OFFCURVE",
"639 736 OFFCURVE",
"570 738 CURVE",
"565 724 OFFCURVE",
"563 714 OFFCURVE",
"563 703 CURVE SMOOTH",
"563 696 OFFCURVE",
"564 688 OFFCURVE",
"567 679 CURVE",
"608 673 OFFCURVE",
"671 664 OFFCURVE",
"672 640 CURVE SMOOTH",
"675 523 OFFCURVE",
"675 408 OFFCURVE",
"675 291 CURVE SMOOTH",
"675 140 OFFCURVE",
"603 54 OFFCURVE",
"477 46 CURVE",
"354 53 OFFCURVE",
"310 131 OFFCURVE",
"310 291 CURVE SMOOTH",
"310 546 OFFCURVE",
"309 597 OFFCURVE",
"312 648 CURVE SMOOTH",
"313 667 OFFCURVE",
"381 673 OFFCURVE",
"421 677 CURVE",
"424 689 OFFCURVE",
"425 698 OFFCURVE",
"425 707 CURVE SMOOTH",
"425 716 OFFCURVE",
"424 725 OFFCURVE",
"420 737 CURVE",
"339 737 OFFCURVE",
"284 735 OFFCURVE",
"235 735 CURVE SMOOTH",
"177 735 OFFCURVE",
"103 739 OFFCURVE",
"16 740 CURVE",
"12 728 OFFCURVE",
"10 717 OFFCURVE",
"10 706 CURVE SMOOTH",
"10 697 OFFCURVE",
"11 688 OFFCURVE",
"14 677 CURVE",
"54 673 OFFCURVE",
"122 667 OFFCURVE",
"123 648 CURVE SMOOTH"
);
},
{
closed = 1;
nodes = (
"235 583 OFFCURVE",
"235 517 OFFCURVE",
"235 291 CURVE",
"235 110 OFFCURVE",
"293 26 OFFCURVE",
"460 26 CURVE SMOOTH",
"610 26 OFFCURVE",
"695 120 OFFCURVE",
"695 291 CURVE SMOOTH",
"695 408 OFFCURVE",
"695 524 OFFCURVE",
"692 641 CURVE",
"691 682 OFFCURVE",
"626 690 OFFCURVE",
"584 694 CURVE",
"582 702 OFFCURVE",
"581 710 OFFCURVE",
"584 717 CURVE",
"636 715 OFFCURVE",
"694 714 OFFCURVE",
"723 714 CURVE SMOOTH",
"760 714 OFFCURVE",
"762 714 OFFCURVE",
"854 717 CURVE",
"856 709 OFFCURVE",
"857 701 OFFCURVE",
"854 694 CURVE",
"812 690 OFFCURVE",
"748 682 OFFCURVE",
"746 641 CURVE",
"741 525 OFFCURVE",
"741 408 OFFCURVE",
"741 291 CURVE SMOOTH",
"741 43 OFFCURVE",
"573 -20 OFFCURVE",
"462 -20 CURVE SMOOTH",
"280 -20 OFFCURVE",
"148 35 OFFCURVE",
"148 291 CURVE",
"148 463 OFFCURVE",
"146 555 OFFCURVE",
"143 648 CURVE SMOOTH",
"142 685 OFFCURVE",
"72 692 OFFCURVE",
"30 696 CURVE",
"28 703 OFFCURVE",
"27 712 OFFCURVE",
"30 719 CURVE",
"85 717 OFFCURVE",
"142 715 OFFCURVE",
"200 715 CURVE SMOOTH",
"266 715 OFFCURVE",
"336 717 OFFCURVE",
"400 719 CURVE",
"402 711 OFFCURVE",
"403 704 OFFCURVE",
"400 696 CURVE",
"338 692 OFFCURVE",
"238 685 OFFCURVE",
"237 649 CURVE SMOOTH"
);
}
);
width = 915;
}
);
unicode = 0055;
},
{
glyphname = V;
layers = (
{
hints = (
{
horizontal = 1;
place = "{-10, 21}";
},
{
horizontal = 1;
place = "{730, -20}";
target = down;
type = TopGhost;
},
{
horizontal = 1;
place = "{731, -20}";
target = down;
type = TopGhost;
}
);
layerId = UUID0;
paths = (
{
closed = 1;
nodes = (
"779 672 OFFCURVE",
"730 666 OFFCURVE",
"717 634 CURVE SMOOTH",
"448 -34 LINE",
"398 -34 LINE",
"109 627 LINE SMOOTH",
"94 661 OFFCURVE",
"38 672 OFFCURVE",
"-4 676 CURVE",
"-10 701 OFFCURVE",
"-9 717 OFFCURVE",
"-2 739 CURVE",
"122 735 OFFCURVE",
"265 733 OFFCURVE",
"390 737 CURVE",
"397 717 OFFCURVE",
"396 696 OFFCURVE",
"390 675 CURVE",
"306 669 OFFCURVE",
"293 664 OFFCURVE",
"302 640 CURVE SMOOTH",
"469 251 LINE",
"624 640 LINE SMOOTH",
"633 663 OFFCURVE",
"577 670 OFFCURVE",
"523 675 CURVE",
"517 700 OFFCURVE",
"518 716 OFFCURVE",
"525 738 CURVE",
"625 734 OFFCURVE",
"733 734 OFFCURVE",
"830 739 CURVE",
"837 717 OFFCURVE",
"838 701 OFFCURVE",
"832 676 CURVE"
);
},
{
closed = 1;
nodes = (
"818 702 OFFCURVE",
"819 711 OFFCURVE",
"816 718 CURVE",
"773 716 OFFCURVE",
"714 715 OFFCURVE",
"685 715 CURVE SMOOTH",
"651 715 OFFCURVE",
"594 716 OFFCURVE",
"540 718 CURVE",
"537 711 OFFCURVE",
"538 702 OFFCURVE",
"540 695 CURVE",
"580 692 OFFCURVE",
"664 685 OFFCURVE",
"646 641 CURVE SMOOTH",
"444 133 LINE",
"228 635 LINE SMOOTH",
"208 681 OFFCURVE",
"236 686 OFFCURVE",
"371 695 CURVE",
"373 702 OFFCURVE",
"374 711 OFFCURVE",
"371 718 CURVE",
"254 712 OFFCURVE",
"129 714 OFFCURVE",
"12 718 CURVE",
"9 711 OFFCURVE",
"10 702 OFFCURVE",
"12 695 CURVE",
"54 691 OFFCURVE",
"108 678 OFFCURVE",
"127 635 CURVE SMOOTH",
"411 -14 LINE",
"434 -14 LINE",
"698 641 LINE SMOOTH",
"719 682 OFFCURVE",
"766 691 OFFCURVE",
"816 695 CURVE"
);
}
);
width = 835;
}
);
unicode = 0056;
},
{
glyphname = W;
layers = (
{
hints = (
{
horizontal = 1;
place = "{-6, 21}";
},
{
horizontal = 1;
place = "{0, -20}";
target = down;
type = TopGhost;
}
);
layerId = UUID0;
paths = (
{
closed = 1;
nodes = (
"287 674 OFFCURVE",
"283 663 OFFCURVE",
"298 627 CURVE SMOOTH",
"448 257 LINE",
"508 417 LINE",
"424 628 LINE SMOOTH",
"410 662 OFFCURVE",
"393 673 OFFCURVE",
"348 676 CURVE",
"341 695 OFFCURVE",
"341 718 OFFCURVE",
"348 734 CURVE",
"693 734 LINE",
"700 718 OFFCURVE",
"700 695 OFFCURVE",
"693 676 CURVE",
"617 673 OFFCURVE",
"606 653 OFFCURVE",
"616 627 CURVE SMOOTH",
"756 260 LINE",
"893 627 LINE SMOOTH",
"907 665 OFFCURVE",
"880 671 OFFCURVE",
"821 676 CURVE",
"814 695 OFFCURVE",
"814 718 OFFCURVE",
"821 734 CURVE",
"1111 734 LINE",
"1118 718 OFFCURVE",
"1118 695 OFFCURVE",
"1111 676 CURVE",
"1054 672 OFFCURVE",
"1002 672 OFFCURVE",
"985 627 CURVE SMOOTH",
"735 -34 LINE",
"685 -34 LINE",
"554 303 LINE",
"427 -34 LINE",
"378 -34 LINE",
"105 627 LINE SMOOTH",
"91 661 OFFCURVE",
"56 670 OFFCURVE",
"-3 676 CURVE",
"-10 695 OFFCURVE",
"-10 718 OFFCURVE",
"-3 734 CURVE",
"321 734 LINE",
"328 718 OFFCURVE",
"328 695 OFFCURVE",
"321 676 CURVE"
);
},
{
closed = 1;
nodes = (
"14 718 LINE",
"11 713 OFFCURVE",
"11 701 OFFCURVE",
"14 695 CURVE",
"54 691 OFFCURVE",
"105 678 OFFCURVE",
"123 635 CURVE SMOOTH",
"391 -14 LINE",
"413 -14 LINE",
"552 358 LINE",
"699 -14 LINE",
"721 -14 LINE",
"969 641 LINE SMOOTH",
"985 682 OFFCURVE",
"1030 690 OFFCURVE",
"1090 695 CURVE",
"1093 701 OFFCURVE",
"1093 713 OFFCURVE",
"1090 718 CURVE",
"842 718 LINE",
"839 713 OFFCURVE",
"839 701 OFFCURVE",
"842 695 CURVE",
"876 691 OFFCURVE",
"938 688 OFFCURVE",
"920 641 CURVE SMOOTH",
"730 130 LINE",
"537 635 LINE SMOOTH",
"522 670 OFFCURVE",
"569 690 OFFCURVE",
"672 695 CURVE",
"675 701 OFFCURVE",
"675 713 OFFCURVE",
"672 718 CURVE",
"365 718 LINE",
"362 713 OFFCURVE",
"362 701 OFFCURVE",
"365 695 CURVE",
"405 691 OFFCURVE",
"426 678 OFFCURVE",
"443 635 CURVE SMOOTH",
"529 417 LINE",
"422 130 LINE",
"217 635 LINE SMOOTH",
"192 682 OFFCURVE",
"227 689 OFFCURVE",
"304 695 CURVE",
"307 701 OFFCURVE",
"307 713 OFFCURVE",
"304 718 CURVE"
);
}
);
width = 1099;
}
);
unicode = 0057;
},
{
glyphname = X;
layers = (
{
hints = (
{
horizontal = 1;
place = "{10, 21}";
},
{
horizontal = 1;
place = "{771, -20}";
target = down;
type = TopGhost;
}
);
layerId = UUID0;
paths = (
{
closed = 1;
nodes = (
"338 348 LINE",
"150 648 LINE",
"120 687 OFFCURVE",
"79 691 OFFCURVE",
"37 695 CURVE",
"35 702 OFFCURVE",
"34 711 OFFCURVE",
"37 718 CURVE",
"92 716 OFFCURVE",
"156 714 OFFCURVE",
"214 714 CURVE SMOOTH",
"282 714 OFFCURVE",
"333 715 OFFCURVE",
"399 718 CURVE",
"401 710 OFFCURVE",
"402 702 OFFCURVE",
"399 695 CURVE",
"317 692 OFFCURVE",
"229 681 OFFCURVE",
"262 629 CURVE SMOOTH",
"392 423 LINE",
"547 641 LINE",
"574 685 OFFCURVE",
"499 692 OFFCURVE",
"475 695 CURVE",
"473 703 OFFCURVE",
"472 711 OFFCURVE",
"475 718 CURVE",
"517 716 OFFCURVE",
"561 715 OFFCURVE",
"589 715 CURVE SMOOTH",
"614 715 OFFCURVE",
"673 716 OFFCURVE",
"710 718 CURVE",
"713 711 OFFCURVE",
"713 702 OFFCURVE",
"710 695 CURVE",
"668 691 OFFCURVE",
"625 680 OFFCURVE",
"598 641 CURVE",
"415 386 LINE",
"611 74 LINE",
"649 32 OFFCURVE",
"725 23 OFFCURVE",
"784 19 CURVE",
"786 12 OFFCURVE",
"787 3 OFFCURVE",
"784 -4 CURVE",
"720 -2 OFFCURVE",
"640 0 OFFCURVE",
"572 0 CURVE SMOOTH",
"515 0 OFFCURVE",
"457 -1 OFFCURVE",
"402 -4 CURVE",
"400 4 OFFCURVE",
"399 12 OFFCURVE",
"402 19 CURVE",
"429 20 OFFCURVE",
"544 24 OFFCURVE",
"510 74 CURVE",
"361 311 LINE",
"189 75 LINE",
"158 29 OFFCURVE",
"240 23 OFFCURVE",
"264 20 CURVE",
"266 12 OFFCURVE",
"267 4 OFFCURVE",
"264 -3 CURVE",
"222 -1 OFFCURVE",
"173 0 OFFCURVE",
"145 0 CURVE SMOOTH",
"120 0 OFFCURVE",
"61 -1 OFFCURVE",
"24 -3 CURVE",
"22 5 OFFCURVE",
"21 13 OFFCURVE",
"24 20 CURVE",
"66 24 OFFCURVE",
"108 36 OFFCURVE",
"136 74 CURVE SMOOTH"
);
},
{
closed = 1;
nodes = (
"120 86 LINE",
"96 54 OFFCURVE",
"54 43 OFFCURVE",
"10 39 CURVE",
"0 14 OFFCURVE",
"2 -1 OFFCURVE",
"10 -24 CURVE",
"96 -19 OFFCURVE",
"190 -20 OFFCURVE",
"278 -24 CURVE",
"286 1 OFFCURVE",
"287 15 OFFCURVE",
"281 36 CURVE",
"254 37 OFFCURVE",
"189 41 OFFCURVE",
"205 63 CURVE SMOOTH",
"358 274 LINE",
"493 63 LINE",
"511 38 OFFCURVE",
"410 39 OFFCURVE",
"387 38 CURVE",
"379 15 OFFCURVE",
"379 0 OFFCURVE",
"387 -22 CURVE",
"518 -18 OFFCURVE",
"676 -20 OFFCURVE",
"803 -25 CURVE",
"811 1 OFFCURVE",
"811 15 OFFCURVE",
"805 38 CURVE",
"760 42 OFFCURVE",
"704 51 OFFCURVE",
"683 85 CURVE SMOOTH",
"469 426 LINE",
"614 629 LINE SMOOTH",
"637 662 OFFCURVE",
"680 672 OFFCURVE",
"724 676 CURVE",
"731 691 OFFCURVE",
"731 724 OFFCURVE",
"724 739 CURVE",
"640 735 OFFCURVE",
"547 734 OFFCURVE",
"461 739 CURVE",
"453 714 OFFCURVE",
"452 700 OFFCURVE",
"458 679 CURVE",
"473 677 OFFCURVE",
"545 673 OFFCURVE",
"530 652 CURVE SMOOTH",
"421 499 LINE",
"334 640 LINE SMOOTH",
"318 666 OFFCURVE",
"352 673 OFFCURVE",
"419 676 CURVE",
"426 700 OFFCURVE",
"427 713 OFFCURVE",
"419 736 CURVE",
"293 733 OFFCURVE",
"146 734 OFFCURVE",
"23 739 CURVE",
"15 713 OFFCURVE",
"15 699 OFFCURVE",
"21 676 CURVE",
"66 672 OFFCURVE",
"110 668 OFFCURVE",
"134 636 CURVE SMOOTH",
"133 637 LINE",
"314 349 LINE"
);
}
);
width = 796;
}
);
unicode = 0058;
},
{
glyphname = Y;
layers = (
{
hints = (
{
place = "{441, -146}";
},
{
horizontal = 1;
place = "{32, 21}";
}
);
layerId = UUID0;
paths = (
{
closed = 1;
nodes = (
"468 148 OFFCURVE",
"467 283 OFFCURVE",
"467 366 CURVE",
"632 631 LINE SMOOTH",
"652 663 OFFCURVE",
"688 672 OFFCURVE",
"731 676 CURVE",
"740 699 OFFCURVE",
"738 716 OFFCURVE",
"731 738 CURVE",
"692 736 OFFCURVE",
"652 734 OFFCURVE",
"612 734 CURVE SMOOTH",
"568 734 OFFCURVE",
"523 736 OFFCURVE",
"478 738 CURVE",
"471 717 OFFCURVE",
"469 699 OFFCURVE",
"475 679 CURVE",
"490 677 OFFCURVE",
"548 676 OFFCURVE",
"548 657 CURVE SMOOTH",
"548 655 OFFCURVE",
"547 653 OFFCURVE",
"415 434 CURVE",
"298 644 OFFCURVE",
"296 648 OFFCURVE",
"296 651 CURVE SMOOTH",
"296 665 OFFCURVE",
"320 670 OFFCURVE",
"388 675 CURVE",
"391 686 OFFCURVE",
"393 697 OFFCURVE",
"393 707 CURVE SMOOTH",
"393 717 OFFCURVE",
"391 726 OFFCURVE",
"388 736 CURVE",
"340 734 OFFCURVE",
"290 734 OFFCURVE",
"239 734 CURVE SMOOTH",
"156 734 OFFCURVE",
"73 735 OFFCURVE",
"-4 738 CURVE",
"-8 726 OFFCURVE",
"-10 716 OFFCURVE",
"-10 705 CURVE SMOOTH",
"-10 696 OFFCURVE",
"-9 687 OFFCURVE",
"-6 676 CURVE",
"35 672 OFFCURVE",
"88 659 OFFCURVE",
"107 627 CURVE SMOOTH",
"289 310 LINE",
"288 224 OFFCURVE",
"286 153 OFFCURVE",
"283 68 CURVE SMOOTH",
"282 50 OFFCURVE",
"216 44 OFFCURVE",
"176 40 CURVE",
"167 21 OFFCURVE",
"166 -4 OFFCURVE",
"176 -22 CURVE",
"243 -21 OFFCURVE",
"310 -20 OFFCURVE",
"377 -20 CURVE SMOOTH",
"445 -20 OFFCURVE",
"512 -21 OFFCURVE",
"579 -22 CURVE",
"585 0 OFFCURVE",
"586 19 OFFCURVE",
"581 40 CURVE",
"541 44 OFFCURVE",
"473 50 OFFCURVE",
"472 69 CURVE SMOOTH"
);
},
{
closed = 1;
nodes = (
"306 152 OFFCURVE",
"308 228 OFFCURVE",
"309 314 CURVE",
"125 635 LINE SMOOTH",
"102 676 OFFCURVE",
"52 691 OFFCURVE",
"10 695 CURVE",
"8 702 OFFCURVE",
"7 711 OFFCURVE",
"10 718 CURVE",
"127 714 OFFCURVE",
"252 712 OFFCURVE",
"369 718 CURVE",
"372 711 OFFCURVE",
"371 702 OFFCURVE",
"369 695 CURVE",
"234 686 OFFCURVE",
"202 679 OFFCURVE",
"226 635 CURVE SMOOTH",
"386 349 LINE",
"563 641 LINE SMOOTH",
"590 686 OFFCURVE",
"518 692 OFFCURVE",
"492 695 CURVE",
"490 703 OFFCURVE",
"489 711 OFFCURVE",
"492 718 CURVE",
"534 716 OFFCURVE",
"578 715 OFFCURVE",
"606 715 CURVE SMOOTH",
"631 715 OFFCURVE",
"680 716 OFFCURVE",
"717 718 CURVE",
"719 710 OFFCURVE",
"720 702 OFFCURVE",
"717 695 CURVE",
"675 691 OFFCURVE",
"640 681 OFFCURVE",
"615 641 CURVE SMOOTH",
"392 284 LINE",
"392 201 OFFCURVE",
"394 151 OFFCURVE",
"397 67 CURVE SMOOTH",
"398 32 OFFCURVE",
"498 25 OFFCURVE",
"560 21 CURVE",
"562 14 OFFCURVE",
"563 4 OFFCURVE",
"560 -3 CURVE",
"437 -1 OFFCURVE",
"313 -2 OFFCURVE",
"190 -4 CURVE",
"187 3 OFFCURVE",
"187 13 OFFCURVE",
"190 20 CURVE",
"232 24 OFFCURVE",
"302 32 OFFCURVE",
"303 67 CURVE SMOOTH"
);
}
);
width = 768;
}
);
unicode = 0059;
},
{
glyphname = Z;
layers = (
{
background = {
paths = (
{
closed = 1;
nodes = (
"334 30 LINE",
"560 30 OFFCURVE",
"634 111 OFFCURVE",
"688 263 CURVE",
"696 262 OFFCURVE",
"704 259 OFFCURVE",
"707 253 CURVE",
"673 166 OFFCURVE",
"668 81 OFFCURVE",
"668 0 CURVE"
);
},
{
closed = 1;
nodes = (
"723 -20 LINE",
"723 69 OFFCURVE",
"728 163 OFFCURVE",
"764 254 CURVE",
"754 273 OFFCURVE",
"731 282 OFFCURVE",
"709 285 CURVE",
"705 275 LINE",
"696 280 OFFCURVE",
"685 283 OFFCURVE",
"674 285 CURVE",
"620 132 OFFCURVE",
"548 50 OFFCURVE",
"334 50 CURVE"
);
}
);
};
hints = (
{
horizontal = 1;
place = "{724, 21}";
},
{
horizontal = 1;
place = "{751, -20}";
target = down;
type = TopGhost;
},
{
horizontal = 1;
place = "{0, -20}";
target = down;
type = TopGhost;
}
);
layerId = UUID0;
paths = (
{
closed = 1;
nodes = (
"321 0 OFFCURVE",
"98 0 OFFCURVE",
"45 -3 CURVE",
"42 0 OFFCURVE",
"38 10 OFFCURVE",
"38 16 CURVE",
"194 235 OFFCURVE",
"348 457 OFFCURVE",
"502 686 CURVE",
"377 685 OFFCURVE",
"302 673 OFFCURVE",
"200 667 CURVE",
"171 620 OFFCURVE",
"134 575 OFFCURVE",
"70 516 CURVE",
"62 516 OFFCURVE",
"54 520 OFFCURVE",
"50 527 CURVE",
"104 584 OFFCURVE",
"141 652 OFFCURVE",
"162 718 CURVE",
"304 715 OFFCURVE",
"459 714 OFFCURVE",
"599 718 CURVE",
"610 714 OFFCURVE",
"615 708 OFFCURVE",
"615 696 CURVE",
"460 477 OFFCURVE",
"306 255 OFFCURVE",
"153 30 CURVE",
"385 30 LINE SMOOTH",
"572 30 OFFCURVE",
"653 146 OFFCURVE",
"685 261 CURVE",
"693 260 OFFCURVE",
"699 257 OFFCURVE",
"704 253 CURVE",
"661 81 OFFCURVE",
"595 0 OFFCURVE",
"440 0 CURVE SMOOTH"
);
},
{
closed = 1;
nodes = (
"677 81 OFFCURVE",
"704 150 OFFCURVE",
"730 255 CURVE",
"718 270 OFFCURVE",
"702 279 OFFCURVE",
"674 285 CURVE",
"641 169 OFFCURVE",
"559 50 OFFCURVE",
"384 50 CURVE SMOOTH",
"245 50 LINE",
"398 275 OFFCURVE",
"535 471 OFFCURVE",
"690 690 CURVE",
"690 717 OFFCURVE",
"680 730 OFFCURVE",
"657 738 CURVE",
"484 733 OFFCURVE",
"314 733 OFFCURVE",
"147 738 CURVE",
"125 667 OFFCURVE",
"85 594 OFFCURVE",
"25 531 CURVE",
"34 511 OFFCURVE",
"54 500 OFFCURVE",
"72 496 CURVE",
"207 606 OFFCURVE",
"271 654 OFFCURVE",
"463 664 CURVE",
"309 436 OFFCURVE",
"173 240 OFFCURVE",
"18 22 CURVE",
"18 9 OFFCURVE",
"29 -15 OFFCURVE",
"37 -23 CURVE",
"121 -20 OFFCURVE",
"223 -20 OFFCURVE",
"669 -20 CURVE"
);
}
);
width = 769;
}
);
unicode = 005A;
},
{
glyphname = a;
layers = (
{
hints = (
{
horizontal = 1;
place = "{-7, 21}";
},
{
horizontal = 1;
place = "{446, -20}";
target = down;
type = TopGhost;
}
);
layerId = UUID0;
paths = (
{
closed = 1;
nodes = (
"175 373 OFFCURVE",
"205 386 OFFCURVE",
"240 386 CURVE SMOOTH",
"271 386 OFFCURVE",
"299 366 OFFCURVE",
"299 311 CURVE SMOOTH",
"299 258 LINE",
"105 208 OFFCURVE",
"55 174 OFFCURVE",
"55 77 CURVE SMOOTH",
"55 40 OFFCURVE",
"73 -34 OFFCURVE",
"178 -34 CURVE SMOOTH",
"254 -34 OFFCURVE",
"288 -16 OFFCURVE",
"316 4 CURVE",
"330 -17 OFFCURVE",
"353 -27 OFFCURVE",
"378 -27 CURVE SMOOTH",
"470 -27 OFFCURVE",
"502 19 OFFCURVE",
"533 66 CURVE",
"549 93 LINE",
"539 115 OFFCURVE",
"518 129 OFFCURVE",
"493 131 CURVE",
"462 130 LINE",
"462 301 LINE SMOOTH",
"462 418 OFFCURVE",
"418 464 OFFCURVE",
"293 464 CURVE SMOOTH",
"162 464 OFFCURVE",
"73 407 OFFCURVE",
"73 321 CURVE SMOOTH",
"73 267 OFFCURVE",
"114 242 OFFCURVE",
"149 242 CURVE SMOOTH",
"186 242 OFFCURVE",
"211 267 OFFCURVE",
"211 302 CURVE SMOOTH",
"211 330 OFFCURVE",
"191 350 OFFCURVE",
"161 355 CURVE"
);
},
{
closed = 1;
nodes = (
"319 212 LINE",
"185 184 OFFCURVE",
"159 149 OFFCURVE",
"159 100 CURVE SMOOTH",
"159 66 OFFCURVE",
"188 48 OFFCURVE",
"223 48 CURVE SMOOTH",
"267 48 OFFCURVE",
"300 85 OFFCURVE",
"319 110 CURVE"
);
},
{
closed = 1;
nodes = (
"299 116 LINE",
"285 99 OFFCURVE",
"267 79 OFFCURVE",
"243 71 CURVE",
"234 76 OFFCURVE",
"228 86 OFFCURVE",
"228 100 CURVE SMOOTH",
"228 130 OFFCURVE",
"242 155 OFFCURVE",
"299 176 CURVE"
);
},
{
closed = 1;
nodes = (
"153 277 OFFCURVE",
"153 268 OFFCURVE",
"149 262 CURVE",
"123 262 OFFCURVE",
"93 281 OFFCURVE",
"93 321 CURVE SMOOTH",
"93 395 OFFCURVE",
"172 444 OFFCURVE",
"258 444 CURVE SMOOTH",
"358 444 OFFCURVE",
"393 404 OFFCURVE",
"393 301 CURVE SMOOTH",
"393 98 LINE SMOOTH",
"393 57 OFFCURVE",
"436 61 OFFCURVE",
"468 110 CURVE",
"479 109 OFFCURVE",
"488 103 OFFCURVE",
"492 94 CURVE",
"460 48 OFFCURVE",
"430 -7 OFFCURVE",
"378 -7 CURVE SMOOTH",
"348 -7 OFFCURVE",
"323 13 OFFCURVE",
"319 65 CURVE",
"291 39 OFFCURVE",
"243 -14 OFFCURVE",
"178 -14 CURVE SMOOTH",
"90 -14 OFFCURVE",
"75 47 OFFCURVE",
"75 77 CURVE SMOOTH",
"75 163 OFFCURVE",
"131 195 OFFCURVE",
"319 243 CURVE",
"319 311 LINE SMOOTH",
"319 380 OFFCURVE",
"289 409 OFFCURVE",
"249 409 CURVE SMOOTH",
"94 409 OFFCURVE",
"112 285 OFFCURVE",
"149 285 CURVE"
);
}
);
width = 559;
}
);
unicode = 0061;
},
{
glyphname = ae;
layers = (
{
background = {
paths = (
{
closed = 1;
nodes = (
"175 373 OFFCURVE",
"205 386 OFFCURVE",
"240 386 CURVE SMOOTH",
"271 386 OFFCURVE",
"299 366 OFFCURVE",
"299 311 CURVE SMOOTH",
"299 258 LINE",
"105 208 OFFCURVE",
"55 174 OFFCURVE",
"55 77 CURVE SMOOTH",
"55 40 OFFCURVE",
"73 -34 OFFCURVE",
"178 -34 CURVE SMOOTH",
"254 -34 OFFCURVE",
"288 -16 OFFCURVE",
"316 4 CURVE",
"330 -17 OFFCURVE",
"353 -27 OFFCURVE",
"378 -27 CURVE SMOOTH",
"470 -27 OFFCURVE",
"502 19 OFFCURVE",
"533 66 CURVE",
"549 93 LINE",
"539 115 OFFCURVE",
"518 129 OFFCURVE",
"493 131 CURVE",
"462 130 LINE",
"462 301 LINE SMOOTH",
"462 418 OFFCURVE",
"418 464 OFFCURVE",
"293 464 CURVE SMOOTH",
"162 464 OFFCURVE",
"73 407 OFFCURVE",
"73 321 CURVE SMOOTH",
"73 267 OFFCURVE",
"114 242 OFFCURVE",
"149 242 CURVE SMOOTH",
"186 242 OFFCURVE",
"211 267 OFFCURVE",
"211 302 CURVE SMOOTH",
"211 330 OFFCURVE",
"191 350 OFFCURVE",
"161 355 CURVE"
);
},
{
closed = 1;
nodes = (
"319 212 LINE",
"185 184 OFFCURVE",
"159 149 OFFCURVE",
"159 100 CURVE SMOOTH",
"159 66 OFFCURVE",
"188 48 OFFCURVE",
"223 48 CURVE SMOOTH",
"267 48 OFFCURVE",
"300 85 OFFCURVE",
"319 110 CURVE"
);
},
{
closed = 1;
nodes = (
"299 116 LINE",
"285 99 OFFCURVE",
"267 79 OFFCURVE",
"243 71 CURVE",
"234 76 OFFCURVE",
"228 86 OFFCURVE",
"228 100 CURVE SMOOTH",
"228 130 OFFCURVE",
"242 155 OFFCURVE",
"299 176 CURVE"
);
},
{
closed = 1;
nodes = (
"153 277 OFFCURVE",
"153 268 OFFCURVE",
"149 262 CURVE",
"123 262 OFFCURVE",
"93 281 OFFCURVE",
"93 321 CURVE SMOOTH",
"93 395 OFFCURVE",
"172 444 OFFCURVE",
"258 444 CURVE SMOOTH",
"358 444 OFFCURVE",
"393 404 OFFCURVE",
"393 301 CURVE SMOOTH",
"393 98 LINE SMOOTH",
"393 57 OFFCURVE",
"436 61 OFFCURVE",
"468 110 CURVE",
"479 109 OFFCURVE",
"488 103 OFFCURVE",
"492 94 CURVE",
"460 48 OFFCURVE",
"430 -7 OFFCURVE",
"378 -7 CURVE SMOOTH",
"348 -7 OFFCURVE",
"323 13 OFFCURVE",
"319 65 CURVE",
"291 39 OFFCURVE",
"243 -14 OFFCURVE",
"178 -14 CURVE SMOOTH",
"90 -14 OFFCURVE",
"75 47 OFFCURVE",
"75 77 CURVE SMOOTH",
"75 163 OFFCURVE",
"131 195 OFFCURVE",
"319 243 CURVE",
"319 311 LINE SMOOTH",
"319 380 OFFCURVE",
"289 409 OFFCURVE",
"249 409 CURVE SMOOTH",
"94 409 OFFCURVE",
"112 285 OFFCURVE",
"149 285 CURVE"
);
}
);
};
hints = (
{
place = "{35, 90}";
},
{
place = "{291, 82}";
},
{
place = "{552, 90}";
},
{
horizontal = 1;
place = "{444, -35}";
},
{
horizontal = 1;
place = "{252, 35}";
},
{
horizontal = 1;
place = "{233, 37}";
},
{
horizontal = 1;
place = "{-9, 46}";
}
);
layerId = UUID0;
paths = (
{
closed = 1;
nodes = (
"476 412 OFFCURVE",
"421 379 OFFCURVE",
"400 292 CURVE",
"590 292 LINE",
"593 303 OFFCURVE",
"595 313 OFFCURVE",
"595 324 CURVE SMOOTH",
"595 369 OFFCURVE",
"577 412 OFFCURVE",
"521 412 CURVE SMOOTH"
);
},
{
closed = 1;
nodes = (
"319 212 LINE",
"185 184 OFFCURVE",
"159 149 OFFCURVE",
"159 100 CURVE SMOOTH",
"159 66 OFFCURVE",
"188 48 OFFCURVE",
"223 48 CURVE SMOOTH",
"267 48 OFFCURVE",
"294 65 OFFCURVE",
"319 87 CURVE"
);
},
{
closed = 1;
nodes = (
"329 444 OFFCURVE",
"370 427 OFFCURVE",
"391 387 CURVE",
"426 421 OFFCURVE",
"472 444 OFFCURVE",
"533 444 CURVE SMOOTH",
"635 444 OFFCURVE",
"669 376 OFFCURVE",
"669 309 CURVE SMOOTH",
"669 291 OFFCURVE",
"666 274 OFFCURVE",
"661 259 CURVE",
"395 259 LINE",
"394 244 OFFCURVE",
"393 229 OFFCURVE",
"393 212 CURVE SMOOTH",
"393 207 LINE SMOOTH",
"395 111 OFFCURVE",
"459 47 OFFCURVE",
"559 47 CURVE SMOOTH",
"637 47 OFFCURVE",
"661 97 OFFCURVE",
"684 127 CURVE",
"693 125 OFFCURVE",
"699 121 OFFCURVE",
"703 116 CURVE",
"669 24 OFFCURVE",
"590 -14 OFFCURVE",
"516 -14 CURVE SMOOTH",
"455 -14 OFFCURVE",
"393 10 OFFCURVE",
"355 68 CURVE",
"295 18 OFFCURVE",
"256 -14 OFFCURVE",
"178 -14 CURVE SMOOTH",
"90 -14 OFFCURVE",
"75 47 OFFCURVE",
"75 77 CURVE SMOOTH",
"75 163 OFFCURVE",
"131 195 OFFCURVE",
"319 243 CURVE",
"319 311 LINE SMOOTH",
"319 378 OFFCURVE",
"286 408 OFFCURVE",
"242 409 CURVE",
"151 407 OFFCURVE",
"124 360 OFFCURVE",
"124 325 CURVE SMOOTH",
"124 303 OFFCURVE",
"135 285 OFFCURVE",
"149 285 CURVE",
"153 277 OFFCURVE",
"153 268 OFFCURVE",
"149 262 CURVE",
"123 262 OFFCURVE",
"93 281 OFFCURVE",
"93 321 CURVE SMOOTH",
"93 395 OFFCURVE",
"172 444 OFFCURVE",
"258 444 CURVE SMOOTH"
);
},
{
closed = 1;
nodes = (
"575 321 OFFCURVE",
"574 315 OFFCURVE",
"574 312 CURVE",
"475 312 LINE",
"490 358 OFFCURVE",
"515 382 OFFCURVE",
"539 389 CURVE",
"566 381 OFFCURVE",
"575 353 OFFCURVE",
"575 324 CURVE SMOOTH"
);
},
{
closed = 1;
nodes = (
"299 96 LINE",
"284 83 OFFCURVE",
"268 74 OFFCURVE",
"246 70 CURVE",
"236 74 OFFCURVE",
"228 84 OFFCURVE",
"228 100 CURVE SMOOTH",
"228 130 OFFCURVE",
"242 155 OFFCURVE",
"299 176 CURVE"
);
},
{
closed = 1;
nodes = (
"278 386 OFFCURVE",
"299 358 OFFCURVE",
"299 311 CURVE SMOOTH",
"299 258 LINE",
"105 208 OFFCURVE",
"55 174 OFFCURVE",
"55 77 CURVE SMOOTH",
"55 40 OFFCURVE",
"73 -34 OFFCURVE",
"178 -34 CURVE SMOOTH",
"280 -34 OFFCURVE",
"321 -12 OFFCURVE",
"367 23 CURVE",
"408 -13 OFFCURVE",
"465 -34 OFFCURVE",
"516 -34 CURVE SMOOTH",
"597 -34 OFFCURVE",
"686 11 OFFCURVE",
"726 119 CURVE",
"715 133 OFFCURVE",
"699 145 OFFCURVE",
"676 150 CURVE",
"643 102 OFFCURVE",
"622 73 OFFCURVE",
"576 68 CURVE",
"506 76 OFFCURVE",
"464 129 OFFCURVE",
"462 207 CURVE",
"462 239 LINE",
"724 239 LINE",
"733 265 OFFCURVE",
"738 290 OFFCURVE",
"738 309 CURVE SMOOTH",
"738 386 OFFCURVE",
"695 464 OFFCURVE",
"568 464 CURVE SMOOTH",
"481 464 OFFCURVE",
"447 450 OFFCURVE",
"415 431 CURVE",
"382 454 OFFCURVE",
"327 464 OFFCURVE",
"276 464 CURVE SMOOTH",
"157 464 OFFCURVE",
"73 407 OFFCURVE",
"73 321 CURVE SMOOTH",
"73 267 OFFCURVE",
"114 242 OFFCURVE",
"149 242 CURVE SMOOTH",
"186 242 OFFCURVE",
"211 267 OFFCURVE",
"211 302 CURVE SMOOTH",
"211 330 OFFCURVE",
"191 350 OFFCURVE",
"161 355 CURVE",
"175 373 OFFCURVE",
"205 386 OFFCURVE",
"240 386 CURVE SMOOTH"
);
}
);
width = 785;
}
);
unicode = 00E6;
},
{
glyphname = b;
layers = (
{
hints = (
{
place = "{96, 93}";
},
{
place = "{193, -97}";
},
{
horizontal = 1;
place = "{-11, 21}";
},
{
horizontal = 1;
place = "{728, -20}";
target = down;
type = TopGhost;
},
{
horizontal = 1;
place = "{0, -20}";
target = down;
type = TopGhost;
}
);
layerId = UUID0;
paths = (
{
closed = 1;
nodes = (
"247 380 OFFCURVE",
"214 361 OFFCURVE",
"180 332 CURVE",
"180 223 OFFCURVE",
"181 125 OFFCURVE",
"182 76 CURVE",
"209 35 OFFCURVE",
"251 18 OFFCURVE",
"299 18 CURVE SMOOTH",
"343 18 OFFCURVE",
"418 55 OFFCURVE",
"418 214 CURVE SMOOTH",
"418 304 OFFCURVE",
"381 380 OFFCURVE",
"300 380 CURVE SMOOTH"
);
},
{
closed = 1;
nodes = (
"69 708 OFFCURVE",
"121 722 OFFCURVE",
"163 742 CURVE",
"171 739 OFFCURVE",
"177 735 OFFCURVE",
"180 729 CURVE",
"180 370 LINE",
"243 427 OFFCURVE",
"297 444 OFFCURVE",
"347 444 CURVE SMOOTH",
"437 444 OFFCURVE",
"503 366 OFFCURVE",
"503 237 CURVE SMOOTH",
"503 123 OFFCURVE",
"443 -14 OFFCURVE",
"282 -14 CURVE SMOOTH",
"218 -14 OFFCURVE",
"154 8 OFFCURVE",
"106 48 CURVE",
"109 254 OFFCURVE",
"108 457 OFFCURVE",
"106 659 CURVE",
"86 671 OFFCURVE",
"54 677 OFFCURVE",
"12 679 CURVE",
"10 688 OFFCURVE",
"11 694 OFFCURVE",
"12 702 CURVE"
);
},
{
closed = 1;
nodes = (
"121 745 OFFCURVE",
"70 728 OFFCURVE",
"-2 721 CURVE",
"-9 704 OFFCURVE",
"-10 680 OFFCURVE",
"-3 660 CURVE",
"35 658 OFFCURVE",
"67 653 OFFCURVE",
"86 647 CURVE",
"90 456 OFFCURVE",
"91 268 OFFCURVE",
"86 39 CURVE",
"143 -8 OFFCURVE",
"214 -34 OFFCURVE",
"317 -34 CURVE SMOOTH",
"503 -34 OFFCURVE",
"572 114 OFFCURVE",
"572 237 CURVE SMOOTH",
"572 378 OFFCURVE",
"492 464 OFFCURVE",
"382 464 CURVE SMOOTH",
"323 464 OFFCURVE",
"284 456 OFFCURVE",
"249 438 CURVE",
"249 734 LINE",
"232 752 OFFCURVE",
"206 763 OFFCURVE",
"170 766 CURVE"
);
},
{
closed = 1;
nodes = (
"398 89 OFFCURVE",
"350 48 OFFCURVE",
"314 39 CURVE",
"288 43 OFFCURVE",
"267 55 OFFCURVE",
"251 81 CURVE",
"250 129 OFFCURVE",
"249 217 OFFCURVE",
"249 324 CURVE",
"268 341 OFFCURVE",
"288 354 OFFCURVE",
"315 358 CURVE",
"372 349 OFFCURVE",
"398 286 OFFCURVE",
"398 214 CURVE SMOOTH"
);
}
);
width = 619;
}
);
unicode = 0062;
},
{
glyphname = c;
layers = (
{
background = {
paths = (
{
closed = 1;
nodes = (
"357 377 LINE",
"324 360 OFFCURVE",
"314 326 OFFCURVE",
"330 295 CURVE SMOOTH",
"343 270 OFFCURVE",
"370 262 OFFCURVE",
"399 271 CURVE"
);
}
);
};
hints = (
{
horizontal = 1;
place = "{-18, 21}";
},
{
horizontal = 1;
place = "{450, -20}";
target = down;
type = TopGhost;
}
);
layerId = UUID0;
paths = (
{
closed = 1;
nodes = (
"418 388 OFFCURVE",
"369 412 OFFCURVE",
"297 412 CURVE SMOOTH",
"239 412 OFFCURVE",
"157 384 OFFCURVE",
"157 207 CURVE SMOOTH",
"157 120 OFFCURVE",
"196 47 OFFCURVE",
"304 47 CURVE SMOOTH",
"382 47 OFFCURVE",
"418 97 OFFCURVE",
"441 127 CURVE",
"450 125 OFFCURVE",
"456 121 OFFCURVE",
"460 116 CURVE",
"426 24 OFFCURVE",
"347 -14 OFFCURVE",
"273 -14 CURVE SMOOTH",
"177 -14 OFFCURVE",
"70 48 OFFCURVE",
"70 207 CURVE SMOOTH",
"70 351 OFFCURVE",
"170 444 OFFCURVE",
"297 444 CURVE SMOOTH",
"389 444 OFFCURVE",
"452 400 OFFCURVE",
"452 339 CURVE SMOOTH",
"452 304 OFFCURVE",
"426 279 OFFCURVE",
"393 279 CURVE",
"389 285 OFFCURVE",
"389 294 OFFCURVE",
"393 302 CURVE",
"407 306 OFFCURVE",
"418 316 OFFCURVE",
"418 339 CURVE SMOOTH"
);
},
{
closed = 1;
nodes = (
"413 121 OFFCURVE",
"377 75 OFFCURVE",
"321 68 CURVE",
"251 76 OFFCURVE",
"226 136 OFFCURVE",
"226 207 CURVE SMOOTH",
"226 348 OFFCURVE",
"275 384 OFFCURVE",
"316 390 CURVE",
"337 388 OFFCURVE",
"358 379 OFFCURVE",
"374 368 CURVE",
"351 360 OFFCURVE",
"332 344 OFFCURVE",
"332 319 CURVE SMOOTH",
"332 283 OFFCURVE",
"351 265 OFFCURVE",
"393 265 CURVE SMOOTH",
"437 265 OFFCURVE",
"472 292 OFFCURVE",
"472 339 CURVE SMOOTH",
"472 412 OFFCURVE",
"401 464 OFFCURVE",
"297 464 CURVE",
"159 464 OFFCURVE",
"50 363 OFFCURVE",
"50 207 CURVE SMOOTH",
"50 34 OFFCURVE",
"168 -34 OFFCURVE",
"273 -34 CURVE",
"354 -34 OFFCURVE",
"443 11 OFFCURVE",
"483 119 CURVE",
"472 133 OFFCURVE",
"450 144 OFFCURVE",
"432 146 CURVE"
);
}
);
width = 532;
}
);
unicode = 0063;
},
{
glyphname = ccedilla;
layers = (
{
hints = (
{
place = "{263, 41}";
},
{
place = "{104, 55}";
},
{
horizontal = 1;
place = "{-18, 21}";
},
{
horizontal = 1;
place = "{450, -20}";
target = down;
type = TopGhost;
},
{
horizontal = 1;
place = "{-63, 23}";
},
{
horizontal = 1;
place = "{-190, 25}";
}
);
layerId = UUID0;
paths = (
{
closed = 1;
nodes = (
"227 -55 LINE",
"238 -53 OFFCURVE",
"257 -53 OFFCURVE",
"272 -53 CURVE SMOOTH",
"313 -53 OFFCURVE",
"340 -77 OFFCURVE",
"340 -123 CURVE SMOOTH",
"340 -167 OFFCURVE",
"307 -209 OFFCURVE",
"243 -209 CURVE SMOOTH",
"204 -209 OFFCURVE",
"169 -194 OFFCURVE",
"149 -163 CURVE",
"162 -148 LINE",
"181 -168 OFFCURVE",
"207 -171 OFFCURVE",
"226 -171 CURVE SMOOTH",
"259 -171 OFFCURVE",
"279 -151 OFFCURVE",
"279 -125 CURVE SMOOTH",
"279 -98 OFFCURVE",
"261 -85 OFFCURVE",
"232 -85 CURVE SMOOTH",
"216 -85 OFFCURVE",
"203 -87 OFFCURVE",
"185 -92 CURVE",
"212 -5 LINE",
"137 17 OFFCURVE",
"70 82 OFFCURVE",
"70 207 CURVE SMOOTH",
"70 351 OFFCURVE",
"170 444 OFFCURVE",
"297 444 CURVE SMOOTH",
"389 444 OFFCURVE",
"452 400 OFFCURVE",
"452 339 CURVE SMOOTH",
"452 304 OFFCURVE",
"426 279 OFFCURVE",
"393 279 CURVE",
"389 285 OFFCURVE",
"389 294 OFFCURVE",
"393 302 CURVE",
"407 306 OFFCURVE",
"418 316 OFFCURVE",
"418 339 CURVE SMOOTH",
"418 388 OFFCURVE",
"369 412 OFFCURVE",
"297 412 CURVE SMOOTH",
"239 412 OFFCURVE",
"157 384 OFFCURVE",
"157 207 CURVE SMOOTH",
"157 120 OFFCURVE",
"196 47 OFFCURVE",
"304 47 CURVE SMOOTH",
"382 47 OFFCURVE",
"418 97 OFFCURVE",
"441 127 CURVE",
"450 125 OFFCURVE",
"456 121 OFFCURVE",
"460 116 CURVE",
"426 24 OFFCURVE",
"347 -14 OFFCURVE",
"273 -14 CURVE SMOOTH",
"262 -14 OFFCURVE",
"252 -13 OFFCURVE",
"241 -11 CURVE SMOOTH"
);
},
{
closed = 1;
nodes = (
"156 -121 LINE",
"124 -162 LINE",
"153 -207 OFFCURVE",
"194 -229 OFFCURVE",
"278 -229 CURVE SMOOTH",
"364 -229 OFFCURVE",
"409 -177 OFFCURVE",
"409 -123 CURVE SMOOTH",
"409 -64 OFFCURVE",
"364 -33 OFFCURVE",
"299 -33 CURVE",
"371 -23 OFFCURVE",
"448 24 OFFCURVE",
"483 119 CURVE",
"472 133 OFFCURVE",
"450 144 OFFCURVE",
"432 146 CURVE",
"413 121 OFFCURVE",
"377 75 OFFCURVE",
"321 68 CURVE",
"251 76 OFFCURVE",
"226 136 OFFCURVE",
"226 207 CURVE SMOOTH",
"226 348 OFFCURVE",
"275 384 OFFCURVE",
"316 390 CURVE",
"337 388 OFFCURVE",
"358 379 OFFCURVE",
"374 368 CURVE",
"351 360 OFFCURVE",
"332 344 OFFCURVE",
"332 319 CURVE SMOOTH",
"332 283 OFFCURVE",
"351 265 OFFCURVE",
"393 265 CURVE SMOOTH",
"437 265 OFFCURVE",
"472 292 OFFCURVE",
"472 339 CURVE SMOOTH",
"472 412 OFFCURVE",
"401 464 OFFCURVE",
"297 464 CURVE",
"159 464 OFFCURVE",
"50 363 OFFCURVE",
"50 207 CURVE SMOOTH",
"50 81 OFFCURVE",
"111 11 OFFCURVE",
"186 -18 CURVE SMOOTH"
);
},
{
closed = 1;
nodes = (
"259 -135 OFFCURVE",
"253 -144 OFFCURVE",
"242 -148 CURVE",
"229 -145 OFFCURVE",
"214 -137 OFFCURVE",
"197 -119 CURVE",
"218 -113 OFFCURVE",
"234 -109 OFFCURVE",
"246 -107 CURVE",
"254 -110 OFFCURVE",
"259 -116 OFFCURVE",
"259 -125 CURVE SMOOTH"
);
}
);
width = 532;
}
);
unicode = 00E7;
},
{
glyphname = d;
layers = (
{
hints = (
{
place = "{374, 93}";
},
{
place = "{378, 89}";
},
{
horizontal = 1;
place = "{-8, 21}";
},
{
horizontal = 1;
place = "{-7, 21}";
},
{
horizontal = 1;
place = "{0, -20}";
target = down;
type = TopGhost;
},
{
horizontal = 1;
place = "{709, -20}";
target = down;
type = TopGhost;
}
);
layerId = UUID0;
paths = (
{
closed = 1;
nodes = (
"323 50 OFFCURVE",
"356 73 OFFCURVE",
"386 102 CURVE",
"387 150 OFFCURVE",
"387 214 OFFCURVE",
"387 283 CURVE SMOOTH",
"387 354 LINE",
"363 395 OFFCURVE",
"326 412 OFFCURVE",
"284 412 CURVE SMOOTH",
"240 412 OFFCURVE",
"165 381 OFFCURVE",
"165 216 CURVE SMOOTH",
"165 126 OFFCURVE",
"202 50 OFFCURVE",
"283 50 CURVE SMOOTH"
);
},
{
closed = 1;
nodes = (
"577 42 OFFCURVE",
"534 49 OFFCURVE",
"533 68 CURVE SMOOTH",
"529 177 OFFCURVE",
"529 521 OFFCURVE",
"529 734 CURVE",
"512 752 OFFCURVE",
"486 763 OFFCURVE",
"450 766 CURVE",
"392 745 OFFCURVE",
"344 728 OFFCURVE",
"277 722 CURVE",
"271 705 OFFCURVE",
"270 678 OFFCURVE",
"277 660 CURVE",
"315 658 OFFCURVE",
"347 653 OFFCURVE",
"366 647 CURVE",
"366 602 OFFCURVE",
"366 539 OFFCURVE",
"367 462 CURVE",
"356 463 OFFCURVE",
"329 464 OFFCURVE",
"301 464 CURVE SMOOTH",
"118 464 OFFCURVE",
"50 314 OFFCURVE",
"50 197 CURVE SMOOTH",
"50 51 OFFCURVE",
"128 -34 OFFCURVE",
"236 -34 CURVE",
"267 -34 OFFCURVE",
"332 -26 OFFCURVE",
"367 -3 CURVE",
"370 -10 OFFCURVE",
"375 -16 OFFCURVE",
"390 -23 CURVE",
"460 -20 OFFCURVE",
"531 -21 OFFCURVE",
"600 -23 CURVE",
"614 0 OFFCURVE",
"614 16 OFFCURVE",
"602 39 CURVE"
);
},
{
closed = 1;
nodes = (
"367 283 LINE",
"367 216 OFFCURVE",
"367 158 OFFCURVE",
"366 110 CURVE",
"345 91 OFFCURVE",
"323 77 OFFCURVE",
"300 72 CURVE",
"245 83 OFFCURVE",
"220 144 OFFCURVE",
"220 216 CURVE SMOOTH",
"220 345 OFFCURVE",
"267 383 OFFCURVE",
"303 390 CURVE",
"328 386 OFFCURVE",
"351 372 OFFCURVE",
"367 349 CURVE"
);
},
{
closed = 1;
nodes = (
"588 13 OFFCURVE",
"588 4 OFFCURVE",
"584 -2 CURVE",
"525 0 OFFCURVE",
"495 1 OFFCURVE",
"469 1 CURVE SMOOTH",
"452 1 OFFCURVE",
"435 -1 OFFCURVE",
"395 -3 CURVE",
"386 2 OFFCURVE",
"386 5 OFFCURVE",
"383 12 CURVE",
"385 24 OFFCURVE",
"385 33 OFFCURVE",
"385 65 CURVE",
"328 9 OFFCURVE",
"280 -14 OFFCURVE",
"236 -14 CURVE SMOOTH",
"146 -14 OFFCURVE",
"80 64 OFFCURVE",
"80 197 CURVE SMOOTH",
"80 305 OFFCURVE",
"140 444 OFFCURVE",
"301 444 CURVE SMOOTH",
"331 444 OFFCURVE",
"359 437 OFFCURVE",
"387 428 CURVE",
"386 521 OFFCURVE",
"386 608 OFFCURVE",
"386 659 CURVE",
"366 671 OFFCURVE",
"334 677 OFFCURVE",
"292 679 CURVE",
"290 687 OFFCURVE",
"290 694 OFFCURVE",
"292 702 CURVE",
"349 708 OFFCURVE",
"401 722 OFFCURVE",
"443 742 CURVE",
"450 740 OFFCURVE",
"457 735 OFFCURVE",
"460 729 CURVE",
"460 516 OFFCURVE",
"460 176 OFFCURVE",
"464 67 CURVE",
"465 31 OFFCURVE",
"541 25 OFFCURVE",
"584 21 CURVE"
);
}
);
width = 634;
}
);
unicode = 0064;
},
{
glyphname = eth;
layers = (
{
hints = (
{
place = "{36, 84}";
},
{
place = "{332, 84}";
},
{
horizontal = 1;
place = "{-8, 31}";
},
{
horizontal = 1;
place = "{362, 31}";
},
{
horizontal = 1;
place = "{619, -20}";
target = down;
type = TopGhost;
}
);
layerId = UUID0;
paths = (
{
closed = 1;
nodes = (
"173 412 OFFCURVE",
"157 288 OFFCURVE",
"157 214 CURVE",
"157 150 OFFCURVE",
"169 18 OFFCURVE",
"279 18 CURVE SMOOTH",
"379 18 OFFCURVE",
"389 150 OFFCURVE",
"389 214 CURVE SMOOTH",
"389 359 OFFCURVE",
"340 412 OFFCURVE",
"279 412 CURVE SMOOTH"
);
},
{
closed = 1;
nodes = (
"172 551 LINE",
"252 629 LINE",
"216 666 OFFCURVE",
"166 697 OFFCURVE",
"139 715 CURVE",
"154 740 LINE",
"194 722 OFFCURVE",
"252 690 OFFCURVE",
"288 664 CURVE",
"366 740 LINE",
"396 714 LINE",
"322 640 LINE",
"444 510 OFFCURVE",
"476 370 OFFCURVE",
"476 214 CURVE SMOOTH",
"476 46 OFFCURVE",
"362 -14 OFFCURVE",
"279 -14 CURVE SMOOTH",
"196 -14 OFFCURVE",
"70 35 OFFCURVE",
"70 215 CURVE SMOOTH",
"70 304 OFFCURVE",
"115 444 OFFCURVE",
"279 444 CURVE SMOOTH",
"312 444 OFFCURVE",
"350 435 OFFCURVE",
"369 421 CURVE",
"361 476 OFFCURVE",
"329 546 OFFCURVE",
"282 602 CURVE",
"201 520 LINE"
);
},
{
closed = 1;
nodes = (
"200 491 LINE",
"235 491 LINE",
"294 551 LINE",
"312 522 OFFCURVE",
"327 491 OFFCURVE",
"337 463 CURVE",
"317 464 OFFCURVE",
"298 464 OFFCURVE",
"279 464 CURVE",
"99 464 OFFCURVE",
"50 312 OFFCURVE",
"50 215 CURVE SMOOTH",
"50 19 OFFCURVE",
"176 -34 OFFCURVE",
"314 -34 CURVE",
"411 -34 OFFCURVE",
"545 28 OFFCURVE",
"545 214 CURVE SMOOTH",
"545 370 OFFCURVE",
"522 506 OFFCURVE",
"386 641 CURVE",
"461 716 LINE",
"400 766 LINE",
"365 766 LINE",
"300 703 LINE",
"265 724 OFFCURVE",
"218 748 OFFCURVE",
"181 765 CURVE",
"146 765 LINE",
"111 709 LINE",
"139 691 LINE",
"162 676 OFFCURVE",
"197 653 OFFCURVE",
"224 629 CURVE",
"145 552 LINE"
);
},
{
closed = 1;
nodes = (
"369 161 OFFCURVE",
"362 56 OFFCURVE",
"297 40 CURVE",
"234 56 OFFCURVE",
"226 161 OFFCURVE",
"226 214 CURVE SMOOTH",
"226 275 OFFCURVE",
"235 373 OFFCURVE",
"296 389 CURVE",
"338 379 OFFCURVE",
"369 328 OFFCURVE",
"369 214 CURVE SMOOTH"
);
}
);
width = 602;
}
);
unicode = 00F0;
},
{
glyphname = e;
layers = (
{
background = {
paths = (
{
closed = 1;
nodes = (
"479 239 LINE",
"488 265 OFFCURVE",
"493 290 OFFCURVE",
"493 309 CURVE SMOOTH",
"493 386 OFFCURVE",
"450 464 OFFCURVE",
"323 464 CURVE SMOOTH",
"318 464 OFFCURVE",
"312 464 OFFCURVE",
"307 464 CURVE SMOOTH",
"300 464 OFFCURVE",
"294 464 OFFCURVE",
"288 464 CURVE SMOOTH",
"156 464 OFFCURVE",
"50 358 OFFCURVE",
"50 207 CURVE SMOOTH",
"50 34 OFFCURVE",
"165 -34 OFFCURVE",
"271 -34 CURVE SMOOTH",
"276 -34 OFFCURVE",
"281 -34 OFFCURVE",
"286 -33 CURVE",
"292 -34 OFFCURVE",
"299 -34 OFFCURVE",
"306 -34 CURVE SMOOTH",
"387 -34 OFFCURVE",
"476 11 OFFCURVE",
"516 119 CURVE",
"505 133 OFFCURVE",
"489 145 OFFCURVE",
"466 150 CURVE",
"458 139 LINE",
"450 144 OFFCURVE",
"441 147 OFFCURVE",
"431 150 CURVE",
"414 126 LINE SMOOTH",
"398 102 OFFCURVE",
"377 73 OFFCURVE",
"331 68 CURVE",
"261 76 OFFCURVE",
"219 129 OFFCURVE",
"217 207 CURVE",
"217 239 LINE"
);
},
{
closed = 1;
nodes = (
"164 259 LINE",
"163 244 OFFCURVE",
"162 229 OFFCURVE",
"162 212 CURVE SMOOTH",
"164 111 OFFCURVE",
"222 47 OFFCURVE",
"314 47 CURVE SMOOTH",
"392 47 OFFCURVE",
"416 97 OFFCURVE",
"439 127 CURVE",
"448 125 OFFCURVE",
"454 121 OFFCURVE",
"458 116 CURVE",
"424 24 OFFCURVE",
"345 -14 OFFCURVE",
"271 -14 CURVE SMOOTH",
"175 -14 OFFCURVE",
"70 48 OFFCURVE",
"70 207 CURVE SMOOTH",
"70 346 OFFCURVE",
"167 444 OFFCURVE",
"288 444 CURVE SMOOTH",
"400 444 OFFCURVE",
"438 376 OFFCURVE",
"438 309 CURVE SMOOTH",
"438 291 OFFCURVE",
"435 274 OFFCURVE",
"430 259 CURVE"
);
}
);
};
hints = (
{
horizontal = 1;
place = "{-7, 21}";
},
{
horizontal = 1;
place = "{442, -20}";
target = down;
type = TopGhost;
}
);
layerId = UUID0;
paths = (
{
closed = 1;
nodes = (
"231 412 OFFCURVE",
"176 379 OFFCURVE",
"155 292 CURVE",
"345 292 LINE",
"348 303 OFFCURVE",
"350 313 OFFCURVE",
"350 324 CURVE SMOOTH",
"350 369 OFFCURVE",
"332 412 OFFCURVE",
"276 412 CURVE SMOOTH"
);
},
{
closed = 1;
nodes = (
"150 259 LINE",
"149 244 OFFCURVE",
"148 229 OFFCURVE",
"148 212 CURVE",
"150 111 OFFCURVE",
"214 47 OFFCURVE",
"314 47 CURVE SMOOTH",
"392 47 OFFCURVE",
"416 97 OFFCURVE",
"439 127 CURVE",
"448 125 OFFCURVE",
"454 121 OFFCURVE",
"458 116 CURVE",
"424 24 OFFCURVE",
"345 -14 OFFCURVE",
"271 -14 CURVE SMOOTH",
"175 -14 OFFCURVE",
"70 48 OFFCURVE",
"70 207 CURVE SMOOTH",
"70 346 OFFCURVE",
"167 444 OFFCURVE",
"288 444 CURVE SMOOTH",
"390 444 OFFCURVE",
"424 376 OFFCURVE",
"424 309 CURVE SMOOTH",
"424 291 OFFCURVE",
"421 274 OFFCURVE",
"416 259 CURVE"
);
},
{
closed = 1;
nodes = (
"398 102 OFFCURVE",
"377 73 OFFCURVE",
"331 68 CURVE",
"261 76 OFFCURVE",
"219 129 OFFCURVE",
"217 207 CURVE",
"217 239 LINE",
"479 239 LINE",
"488 265 OFFCURVE",
"493 290 OFFCURVE",
"493 309 CURVE SMOOTH",
"493 429 OFFCURVE",
"409 464 OFFCURVE",
"307 464 CURVE SMOOTH",
"134 464 OFFCURVE",
"50 343 OFFCURVE",
"50 207 CURVE SMOOTH",
"50 34 OFFCURVE",
"165 -34 OFFCURVE",
"271 -34 CURVE",
"352 -34 OFFCURVE",
"441 11 OFFCURVE",
"481 119 CURVE",
"470 133 OFFCURVE",
"454 145 OFFCURVE",
"431 150 CURVE"
);
},
{
closed = 1;
nodes = (
"330 321 OFFCURVE",
"329 315 OFFCURVE",
"329 312 CURVE",
"230 312 LINE",
"245 358 OFFCURVE",
"270 382 OFFCURVE",
"294 389 CURVE",
"321 381 OFFCURVE",
"330 353 OFFCURVE",
"330 324 CURVE SMOOTH"
);
}
);
width = 540;
}
);
unicode = 0065;
},
{
glyphname = f;
layers = (
{
background = {
paths = (
{
closed = 1;
nodes = (
"288 48 OFFCURVE",
"330 42 OFFCURVE",
"353 38 CURVE",
"365 15 OFFCURVE",
"365 -1 OFFCURVE",
"351 -24 CURVE",
"239 -20 OFFCURVE",
"135 -17 OFFCURVE",
"38 -21 CURVE",
"24 2 OFFCURVE",
"24 15 OFFCURVE",
"36 38 CURVE",
"66 42 OFFCURVE",
"118 49 OFFCURVE",
"119 68 CURVE SMOOTH",
"121 116 OFFCURVE",
"121 195 OFFCURVE",
"121 365 CURVE",
"61 365 LINE",
"50 392 OFFCURVE",
"50 415 OFFCURVE",
"61 440 CURVE",
"121 440 LINE",
"121 471 LINE SMOOTH",
"121 622 OFFCURVE",
"199 762 OFFCURVE",
"364 762 CURVE SMOOTH",
"441 762 OFFCURVE",
"504 718 OFFCURVE",
"504 649 CURVE SMOOTH",
"504 606 OFFCURVE",
"472 565 OFFCURVE",
"423 565 CURVE SMOOTH",
"374 565 OFFCURVE",
"346 594 OFFCURVE",
"346 631 CURVE SMOOTH",
"346 647 OFFCURVE",
"351 665 OFFCURVE",
"365 679 CURVE",
"361 681 OFFCURVE",
"358 681 OFFCURVE",
"354 681 CURVE",
"314 674 OFFCURVE",
"283 639 OFFCURVE",
"283 585 CURVE SMOOTH",
"283 440 LINE",
"383 440 LINE",
"394 413 OFFCURVE",
"394 390 OFFCURVE",
"383 365 CURVE",
"283 365 LINE",
"283 240 OFFCURVE",
"284 120 OFFCURVE",
"287 68 CURVE SMOOTH"
);
}
);
};
hints = (
{
place = "{137, 93}";
},
{
horizontal = 1;
place = "{11, 21}";
},
{
horizontal = 1;
place = "{724, -20}";
target = down;
type = TopGhost;
}
);
layerId = UUID0;
paths = (
{
closed = 1;
nodes = (
"288 48 OFFCURVE",
"330 42 OFFCURVE",
"353 38 CURVE",
"365 15 OFFCURVE",
"365 -1 OFFCURVE",
"351 -24 CURVE",
"239 -20 OFFCURVE",
"135 -17 OFFCURVE",
"38 -21 CURVE",
"24 2 OFFCURVE",
"24 15 OFFCURVE",
"36 38 CURVE",
"66 42 OFFCURVE",
"118 49 OFFCURVE",
"119 68 CURVE",
"121 116 OFFCURVE",
"121 195 OFFCURVE",
"121 365 CURVE",
"61 365 LINE",
"50 392 OFFCURVE",
"50 415 OFFCURVE",
"61 440 CURVE",
"121 440 LINE",
"121 471 LINE",
"121 622 OFFCURVE",
"199 762 OFFCURVE",
"364 762 CURVE SMOOTH",
"441 762 OFFCURVE",
"504 718 OFFCURVE",
"504 649 CURVE SMOOTH",
"504 606 OFFCURVE",
"472 568 OFFCURVE",
"423 568 CURVE SMOOTH",
"381 568 OFFCURVE",
"360 592 OFFCURVE",
"360 621 CURVE SMOOTH",
"360 637 OFFCURVE",
"367 665 OFFCURVE",
"389 674 CURVE",
"379 680 OFFCURVE",
"369 681 OFFCURVE",
"354 681 CURVE",
"314 674 OFFCURVE",
"283 639 OFFCURVE",
"283 585 CURVE",
"283 440 LINE",
"383 440 LINE",
"394 413 OFFCURVE",
"394 390 OFFCURVE",
"383 365 CURVE",
"283 365 LINE",
"283 240 OFFCURVE",
"284 120 OFFCURVE",
"287 68 CURVE"
);
},
{
closed = 1;
nodes = (
"426 710 OFFCURVE",
"446 677 OFFCURVE",
"446 651 CURVE SMOOTH",
"446 625 OFFCURVE",
"439 614 OFFCURVE",
"421 608 CURVE",
"417 602 OFFCURVE",
"417 593 OFFCURVE",
"421 585 CURVE",
"456 585 OFFCURVE",
"484 616 OFFCURVE",
"484 649 CURVE SMOOTH",
"484 706 OFFCURVE",
"430 742 OFFCURVE",
"364 742 CURVE SMOOTH",
"213 742 OFFCURVE",
"141 612 OFFCURVE",
"141 471 CURVE SMOOTH",
"141 420 LINE",
"75 420 LINE",
"70 409 OFFCURVE",
"71 395 OFFCURVE",
"75 385 CURVE",
"141 385 LINE",
"141 195 OFFCURVE",
"141 115 OFFCURVE",
"139 67 CURVE",
"138 31 OFFCURVE",
"86 24 OFFCURVE",
"56 20 CURVE",
"52 12 OFFCURVE",
"52 3 OFFCURVE",
"56 -3 CURVE",
"144 1 OFFCURVE",
"231 1 OFFCURVE",
"335 -3 CURVE",
"339 3 OFFCURVE",
"339 12 OFFCURVE",
"335 20 CURVE",
"293 24 OFFCURVE",
"219 31 OFFCURVE",
"218 67 CURVE",
"215 124 OFFCURVE",
"214 249 OFFCURVE",
"214 385 CURVE",
"364 385 LINE",
"369 396 OFFCURVE",
"368 410 OFFCURVE",
"364 420 CURVE",
"214 420 LINE",
"214 562 LINE SMOOTH",
"214 640 OFFCURVE",
"276 710 OFFCURVE",
"354 710 CURVE SMOOTH"
);
}
);
width = 414;
}
);
unicode = 0066;
},
{
glyphname = g;
layers = (
{
hints = (
{
horizontal = 1;
place = "{-263, 21}";
},
{
horizontal = 1;
place = "{447, -20}";
target = down;
type = TopGhost;
}
);
layerId = UUID0;
paths = (
{
closed = 1;
nodes = (
"155 177 OFFCURVE",
"202 153 OFFCURVE",
"247 153 CURVE SMOOTH",
"293 153 OFFCURVE",
"323 188 OFFCURVE",
"323 292 CURVE SMOOTH",
"323 389 OFFCURVE",
"275 412 OFFCURVE",
"245 412 CURVE SMOOTH",
"199 412 OFFCURVE",
"155 380 OFFCURVE",
"155 283 CURVE SMOOTH"
);
},
{
closed = 1;
nodes = (
"153 -179 OFFCURVE",
"184 -234 OFFCURVE",
"282 -234 CURVE SMOOTH",
"396 -234 OFFCURVE",
"432 -156 OFFCURVE",
"432 -123 CURVE SMOOTH",
"432 -77 OFFCURVE",
"420 -39 OFFCURVE",
"335 -39 CURVE SMOOTH",
"303 -39 OFFCURVE",
"244 -40 OFFCURVE",
"215 -43 CURVE",
"176 -64 OFFCURVE",
"153 -96 OFFCURVE",
"153 -130 CURVE SMOOTH"
);
},
{
closed = 1;
nodes = (
"463 429 OFFCURVE",
"463 438 OFFCURVE",
"467 446 CURVE",
"499 446 OFFCURVE",
"514 422 OFFCURVE",
"514 396 CURVE SMOOTH",
"514 370 OFFCURVE",
"496 347 OFFCURVE",
"470 347 CURVE SMOOTH",
"438 347 OFFCURVE",
"419 367 OFFCURVE",
"387 387 CURVE",
"385 385 LINE",
"401 363 OFFCURVE",
"408 326 OFFCURVE",
"408 291 CURVE SMOOTH",
"408 184 OFFCURVE",
"335 121 OFFCURVE",
"251 121 CURVE SMOOTH",
"230 121 OFFCURVE",
"200 124 OFFCURVE",
"188 126 CURVE",
"160 114 OFFCURVE",
"145 97 OFFCURVE",
"145 80 CURVE SMOOTH",
"145 52 OFFCURVE",
"178 38 OFFCURVE",
"281 38 CURVE SMOOTH",
"301 38 OFFCURVE",
"327 40 OFFCURVE",
"355 40 CURVE SMOOTH",
"471 40 OFFCURVE",
"491 -21 OFFCURVE",
"491 -72 CURVE SMOOTH",
"491 -155 OFFCURVE",
"394 -275 OFFCURVE",
"250 -275 CURVE SMOOTH",
"130 -275 OFFCURVE",
"77 -223 OFFCURVE",
"77 -165 CURVE SMOOTH",
"77 -124 OFFCURVE",
"106 -77 OFFCURVE",
"173 -41 CURVE",
"112 -32 OFFCURVE",
"79 -8 OFFCURVE",
"79 32 CURVE SMOOTH",
"79 74 OFFCURVE",
"119 109 OFFCURVE",
"158 138 CURVE",
"86 178 OFFCURVE",
"70 230 OFFCURVE",
"70 284 CURVE SMOOTH",
"70 360 OFFCURVE",
"145 444 OFFCURVE",
"247 444 CURVE SMOOTH",
"323 444 OFFCURVE",
"340 430 OFFCURVE",
"418 398 CURVE SMOOTH",
"487 370 OFFCURVE",
"491 422 OFFCURVE",
"467 423 CURVE"
);
},
{
closed = 1;
nodes = (
"511 327 OFFCURVE",
"534 359 OFFCURVE",
"534 396 CURVE SMOOTH",
"534 432 OFFCURVE",
"515 466 OFFCURVE",
"467 466 CURVE",
"442 466 OFFCURVE",
"422 451 OFFCURVE",
"410 433 CURVE",
"358 455 OFFCURVE",
"334 464 OFFCURVE",
"247 464 CURVE SMOOTH",
"133 464 OFFCURVE",
"50 369 OFFCURVE",
"50 284 CURVE SMOOTH",
"50 230 OFFCURVE",
"65 179 OFFCURVE",
"123 137 CURVE",
"88 108 OFFCURVE",
"59 74 OFFCURVE",
"59 32 CURVE SMOOTH",
"59 -8 OFFCURVE",
"79 -35 OFFCURVE",
"122 -50 CURVE",
"79 -85 OFFCURVE",
"57 -128 OFFCURVE",
"57 -165 CURVE SMOOTH",
"57 -234 OFFCURVE",
"116 -295 OFFCURVE",
"250 -295 CURVE",
"449 -295 OFFCURVE",
"560 -163 OFFCURVE",
"560 -72 CURVE SMOOTH",
"560 -12 OFFCURVE",
"537 60 OFFCURVE",
"404 60 CURVE SMOOTH",
"240 60 LINE SMOOTH",
"218 60 OFFCURVE",
"205 80 OFFCURVE",
"225 101 CURVE",
"286 101 LINE SMOOTH",
"388 101 OFFCURVE",
"477 171 OFFCURVE",
"477 291 CURVE SMOOTH",
"477 303 OFFCURVE",
"476 315 OFFCURVE",
"473 327 CURVE"
);
},
{
closed = 1;
nodes = (
"222 -105 OFFCURVE",
"235 -80 OFFCURVE",
"255 -63 CURVE",
"289 -60 OFFCURVE",
"317 -59 OFFCURVE",
"346 -59 CURVE SMOOTH",
"403 -59 OFFCURVE",
"412 -90 OFFCURVE",
"412 -123 CURVE SMOOTH",
"412 -148 OFFCURVE",
"385 -206 OFFCURVE",
"300 -213 CURVE",
"241 -206 OFFCURVE",
"222 -166 OFFCURVE",
"222 -130 CURVE SMOOTH"
);
},
{
closed = 1;
nodes = (
"224 348 OFFCURVE",
"241 379 OFFCURVE",
"262 388 CURVE",
"282 380 OFFCURVE",
"303 354 OFFCURVE",
"303 292 CURVE SMOOTH",
"303 219 OFFCURVE",
"288 185 OFFCURVE",
"264 176 CURVE",
"242 184 OFFCURVE",
"224 212 OFFCURVE",
"224 283 CURVE SMOOTH"
);
}
);
width = 566;
}
);
unicode = 0067;
},
{
glyphname = h;
layers = (
{
layerId = UUID0;
paths = (
{
closed = 1;
nodes = (
"378 24 OFFCURVE",
"409 31 OFFCURVE",
"409 67 CURVE SMOOTH",
"410 299 LINE SMOOTH",
"410 357 OFFCURVE",
"394 387 OFFCURVE",
"357 387 CURVE SMOOTH",
"315 387 OFFCURVE",
"261 352 OFFCURVE",
"203 301 CURVE",
"203 196 OFFCURVE",
"204 145 OFFCURVE",
"207 67 CURVE SMOOTH",
"208 31 OFFCURVE",
"264 24 OFFCURVE",
"299 20 CURVE",
"302 14 OFFCURVE",
"302 3 OFFCURVE",
"299 -4 CURVE",
"215 -1 OFFCURVE",
"128 -1 OFFCURVE",
"44 -4 CURVE",
"41 3 OFFCURVE",
"41 14 OFFCURVE",
"44 20 CURVE",
"74 24 OFFCURVE",
"127 31 OFFCURVE",
"128 67 CURVE",
"128 661 LINE",
"109 673 OFFCURVE",
"87 679 OFFCURVE",
"45 681 CURVE",
"43 689 OFFCURVE",
"43 696 OFFCURVE",
"45 704 CURVE",
"102 710 OFFCURVE",
"144 724 OFFCURVE",
"186 744 CURVE",
"194 741 OFFCURVE",
"200 737 OFFCURVE",
"203 731 CURVE",
"203 332 LINE",
"258 387 OFFCURVE",
"325 444 OFFCURVE",
"396 444 CURVE SMOOTH",
"462 444 OFFCURVE",
"483 401 OFFCURVE",
"485 315 CURVE SMOOTH",
"490 67 LINE SMOOTH",
"491 31 OFFCURVE",
"570 22 OFFCURVE",
"610 20 CURVE",
"614 13 OFFCURVE",
"614 3 OFFCURVE",
"610 -4 CURVE",
"525 -2 OFFCURVE",
"441 -2 OFFCURVE",
"356 -4 CURVE",
"353 3 OFFCURVE",
"353 14 OFFCURVE",
"356 20 CURVE"
);
},
{
closed = 1;
nodes = (
"436 -19 OFFCURVE",
"530 -19 OFFCURVE",
"626 -21 CURVE",
"634 -4 OFFCURVE",
"634 20 OFFCURVE",
"628 38 CURVE",
"598 42 OFFCURVE",
"560 48 OFFCURVE",
"559 67 CURVE SMOOTH",
"555 149 OFFCURVE",
"555 233 OFFCURVE",
"554 315 CURVE SMOOTH",
"553 414 OFFCURVE",
"522 464 OFFCURVE",
"431 464 CURVE SMOOTH",
"355 464 OFFCURVE",
"314 446 OFFCURVE",
"272 418 CURVE",
"272 736 LINE",
"255 754 OFFCURVE",
"229 765 OFFCURVE",
"193 768 CURVE",
"144 747 OFFCURVE",
"93 728 OFFCURVE",
"27 724 CURVE",
"21 707 OFFCURVE",
"20 680 OFFCURVE",
"27 662 CURVE",
"65 660 OFFCURVE",
"89 655 OFFCURVE",
"108 649 CURVE",
"108 68 LINE",
"107 49 OFFCURVE",
"57 42 OFFCURVE",
"27 38 CURVE",
"20 20 OFFCURVE",
"20 -4 OFFCURVE",
"27 -21 CURVE",
"123 -18 OFFCURVE",
"220 -18 OFFCURVE",
"315 -21 CURVE",
"322 -4 OFFCURVE",
"322 20 OFFCURVE",
"315 38 CURVE",
"288 41 OFFCURVE",
"277 51 OFFCURVE",
"276 68 CURVE SMOOTH",
"273 150 OFFCURVE",
"272 203 OFFCURVE",
"272 311 CURVE",
"308 337 OFFCURVE",
"341 357 OFFCURVE",
"369 364 CURVE",
"383 356 OFFCURVE",
"390 334 OFFCURVE",
"390 299 CURVE SMOOTH",
"389 67 LINE SMOOTH",
"389 49 OFFCURVE",
"359 38 OFFCURVE",
"340 38 CURVE",
"333 20 OFFCURVE",
"333 -4 OFFCURVE",
"340 -21 CURVE"
);
}
);
width = 650;
}
);
unicode = 0068;
},
{
glyphname = i;
layers = (
{
layerId = UUID0;
paths = (
{
closed = 1;
nodes = (
"117 639 OFFCURVE",
"141 666 OFFCURVE",
"170 666 CURVE SMOOTH",
"199 666 OFFCURVE",
"223 639 OFFCURVE",
"223 606 CURVE SMOOTH",
"223 573 OFFCURVE",
"199 546 OFFCURVE",
"170 546 CURVE SMOOTH",
"141 546 OFFCURVE",
"117 573 OFFCURVE",
"117 606 CURVE SMOOTH"
);
},
{
closed = 1;
nodes = (
"133 686 OFFCURVE",
"97 650 OFFCURVE",
"97 606 CURVE SMOOTH",
"97 562 OFFCURVE",
"133 526 OFFCURVE",
"177 526 CURVE SMOOTH",
"261 526 OFFCURVE",
"287 560 OFFCURVE",
"287 606 CURVE SMOOTH",
"287 652 OFFCURVE",
"261 686 OFFCURVE",
"177 686 CURVE SMOOTH"
);
},
{
closed = 1;
nodes = (
"332 13 OFFCURVE",
"332 3 OFFCURVE",
"329 -4 CURVE",
"236 -2 OFFCURVE",
"143 -2 OFFCURVE",
"50 -4 CURVE",
"47 3 OFFCURVE",
"47 13 OFFCURVE",
"50 20 CURVE",
"80 24 OFFCURVE",
"132 31 OFFCURVE",
"133 67 CURVE SMOOTH",
"137 162 OFFCURVE",
"136 259 OFFCURVE",
"134 359 CURVE",
"114 371 OFFCURVE",
"92 377 OFFCURVE",
"50 379 CURVE",
"48 387 OFFCURVE",
"48 394 OFFCURVE",
"50 402 CURVE",
"107 408 OFFCURVE",
"149 422 OFFCURVE",
"191 442 CURVE",
"199 439 OFFCURVE",
"205 435 OFFCURVE",
"208 429 CURVE",
"207 286 OFFCURVE",
"208 176 OFFCURVE",
"212 67 CURVE SMOOTH",
"213 31 OFFCURVE",
"287 24 OFFCURVE",
"329 20 CURVE"
);
},
{
closed = 1;
nodes = (
"314 42 OFFCURVE",
"282 48 OFFCURVE",
"281 68 CURVE SMOOTH",
"276 177 OFFCURVE",
"276 301 OFFCURVE",
"277 434 CURVE",
"260 452 OFFCURVE",
"234 463 OFFCURVE",
"198 466 CURVE",
"149 445 OFFCURVE",
"98 426 OFFCURVE",
"32 422 CURVE",
"26 405 OFFCURVE",
"25 378 OFFCURVE",
"32 360 CURVE",
"70 358 OFFCURVE",
"95 353 OFFCURVE",
"114 347 CURVE",
"117 257 OFFCURVE",
"117 166 OFFCURVE",
"113 68 CURVE SMOOTH",
"112 49 OFFCURVE",
"72 42 OFFCURVE",
"32 38 CURVE",
"27 20 OFFCURVE",
"27 -4 OFFCURVE",
"32 -21 CURVE",
"137 -18 OFFCURVE",
"242 -18 OFFCURVE",
"347 -21 CURVE",
"352 -4 OFFCURVE",
"352 20 OFFCURVE",
"347 38 CURVE"
);
}
);
width = 381;
}
);
unicode = 0069;
},
{
glyphname = dotlessi;
layers = (
{
layerId = UUID0;
paths = (
{
closed = 1;
nodes = (
"332 13 OFFCURVE",
"332 3 OFFCURVE",
"329 -4 CURVE",
"236 -2 OFFCURVE",
"143 -2 OFFCURVE",
"50 -4 CURVE",
"47 3 OFFCURVE",
"47 13 OFFCURVE",
"50 20 CURVE",
"80 24 OFFCURVE",
"132 31 OFFCURVE",
"133 67 CURVE SMOOTH",
"137 162 OFFCURVE",
"136 259 OFFCURVE",
"134 359 CURVE",
"114 371 OFFCURVE",
"92 377 OFFCURVE",
"50 379 CURVE",
"48 387 OFFCURVE",
"48 394 OFFCURVE",
"50 402 CURVE",
"107 408 OFFCURVE",
"149 422 OFFCURVE",
"191 442 CURVE",
"199 439 OFFCURVE",
"205 435 OFFCURVE",
"208 429 CURVE",
"207 286 OFFCURVE",
"208 176 OFFCURVE",
"212 67 CURVE SMOOTH",
"213 31 OFFCURVE",
"287 24 OFFCURVE",
"329 20 CURVE"
);
},
{
closed = 1;
nodes = (
"314 42 OFFCURVE",
"282 48 OFFCURVE",
"281 68 CURVE SMOOTH",
"276 177 OFFCURVE",
"276 301 OFFCURVE",
"277 434 CURVE",
"260 452 OFFCURVE",
"234 463 OFFCURVE",
"198 466 CURVE",
"149 445 OFFCURVE",
"98 426 OFFCURVE",
"32 422 CURVE",
"26 405 OFFCURVE",
"25 378 OFFCURVE",
"32 360 CURVE",
"70 358 OFFCURVE",
"95 353 OFFCURVE",
"114 347 CURVE",
"117 257 OFFCURVE",
"117 166 OFFCURVE",
"113 68 CURVE SMOOTH",
"112 49 OFFCURVE",
"72 42 OFFCURVE",
"32 38 CURVE",
"27 20 OFFCURVE",
"27 -4 OFFCURVE",
"32 -21 CURVE",
"137 -18 OFFCURVE",
"242 -18 OFFCURVE",
"347 -21 CURVE",
"352 -4 OFFCURVE",
"352 20 OFFCURVE",
"347 38 CURVE"
);
}
);
width = 381;
}
);
unicode = 0131;
},
{
glyphname = j;
layers = (
{
background = {
paths = (
{
closed = 1;
nodes = (
"115 639 OFFCURVE",
"142 666 OFFCURVE",
"175 666 CURVE SMOOTH",
"208 666 OFFCURVE",
"235 639 OFFCURVE",
"235 606 CURVE SMOOTH",
"235 573 OFFCURVE",
"208 546 OFFCURVE",
"175 546 CURVE SMOOTH",
"142 546 OFFCURVE",
"115 573 OFFCURVE",
"115 606 CURVE SMOOTH"
);
},
{
closed = 1;
nodes = (
"95 562 OFFCURVE",
"131 526 OFFCURVE",
"175 526 CURVE SMOOTH",
"181 526 OFFCURVE",
"187 526 OFFCURVE",
"192 528 CURVE",
"198 526 OFFCURVE",
"204 526 OFFCURVE",
"210 526 CURVE SMOOTH",
"254 526 OFFCURVE",
"290 562 OFFCURVE",
"290 606 CURVE SMOOTH",
"290 650 OFFCURVE",
"254 686 OFFCURVE",
"210 686 CURVE SMOOTH",
"204 686 OFFCURVE",
"198 685 OFFCURVE",
"192 684 CURVE",
"187 685 OFFCURVE",
"181 686 OFFCURVE",
"175 686 CURVE SMOOTH",
"131 686 OFFCURVE",
"95 650 OFFCURVE",
"95 606 CURVE SMOOTH"
);
},
{
closed = 1;
nodes = (
"86 -200 OFFCURVE",
"91 -182 OFFCURVE",
"92 -171 CURVE SMOOTH",
"95 -125 OFFCURVE",
"63 -90 OFFCURVE",
"13 -90 CURVE SMOOTH",
"-38 -90 OFFCURVE",
"-70 -127 OFFCURVE",
"-70 -175 CURVE SMOOTH",
"-70 -243 OFFCURVE",
"-16 -295 OFFCURVE",
"84 -295 CURVE SMOOTH",
"224 -295 OFFCURVE",
"276 -155 OFFCURVE",
"275 -35 CURVE",
"275 434 LINE",
"258 452 OFFCURVE",
"232 463 OFFCURVE",
"196 466 CURVE",
"147 445 OFFCURVE",
"89 426 OFFCURVE",
"23 422 CURVE",
"17 405 OFFCURVE",
"16 378 OFFCURVE",
"23 360 CURVE",
"61 358 OFFCURVE",
"93 353 OFFCURVE",
"112 347 CURVE",
"112 -115 LINE SMOOTH",
"112 -167 OFFCURVE",
"107 -205 OFFCURVE",
"70 -220 CURVE"
);
}
);
};
hints = (
{
place = "{133, 93}";
},
{
place = "{137, 89}";
},
{
horizontal = 1;
place = "{-268, 21}";
},
{
horizontal = 1;
place = "{-267, 21}";
},
{
horizontal = 1;
place = "{676, -20}";
target = down;
type = TopGhost;
}
);
layerId = UUID0;
paths = (
{
closed = 1;
nodes = (
"105 -243 OFFCURVE",
"129 -211 OFFCURVE",
"132 -115 CURVE SMOOTH",
"136 17 OFFCURVE",
"136 234 OFFCURVE",
"132 359 CURVE",
"112 371 OFFCURVE",
"80 377 OFFCURVE",
"38 379 CURVE",
"36 387 OFFCURVE",
"36 394 OFFCURVE",
"38 402 CURVE",
"95 408 OFFCURVE",
"147 422 OFFCURVE",
"189 442 CURVE",
"197 439 OFFCURVE",
"203 435 OFFCURVE",
"206 429 CURVE",
"206 -35 LINE SMOOTH",
"206 -147 OFFCURVE",
"175 -275 OFFCURVE",
"46 -275 CURVE SMOOTH",
"-15 -275 OFFCURVE",
"-48 -222 OFFCURVE",
"-48 -181 CURVE SMOOTH",
"-48 -134 OFFCURVE",
"-21 -110 OFFCURVE",
"12 -110 CURVE",
"16 -118 OFFCURVE",
"16 -127 OFFCURVE",
"12 -133 CURVE",
"-6 -139 OFFCURVE",
"-13 -151 OFFCURVE",
"-13 -177 CURVE SMOOTH",
"-13 -207 OFFCURVE",
"7 -243 OFFCURVE",
"50 -243 CURVE SMOOTH"
);
},
{
closed = 1;
nodes = (
"115 639 OFFCURVE",
"139 666 OFFCURVE",
"168 666 CURVE SMOOTH",
"197 666 OFFCURVE",
"221 639 OFFCURVE",
"221 606 CURVE SMOOTH",
"221 573 OFFCURVE",
"197 546 OFFCURVE",
"168 546 CURVE SMOOTH",
"139 546 OFFCURVE",
"115 573 OFFCURVE",
"115 606 CURVE SMOOTH"
);
},
{
closed = 1;
nodes = (
"131 686 OFFCURVE",
"95 650 OFFCURVE",
"95 606 CURVE SMOOTH",
"95 562 OFFCURVE",
"131 526 OFFCURVE",
"175 526 CURVE SMOOTH",
"259 526 OFFCURVE",
"285 560 OFFCURVE",
"285 606 CURVE SMOOTH",
"285 652 OFFCURVE",
"259 686 OFFCURVE",
"175 686 CURVE SMOOTH"
);
},
{
closed = 1;
nodes = (
"62 -210 OFFCURVE",
"78 -184 OFFCURVE",
"78 -153 CURVE SMOOTH",
"78 -113 OFFCURVE",
"55 -90 OFFCURVE",
"13 -90 CURVE SMOOTH",
"-38 -90 OFFCURVE",
"-70 -127 OFFCURVE",
"-70 -175 CURVE SMOOTH",
"-70 -243 OFFCURVE",
"-16 -295 OFFCURVE",
"84 -295 CURVE SMOOTH",
"224 -295 OFFCURVE",
"276 -155 OFFCURVE",
"275 -35 CURVE",
"275 434 LINE",
"258 452 OFFCURVE",
"232 463 OFFCURVE",
"196 466 CURVE",
"147 445 OFFCURVE",
"89 426 OFFCURVE",
"23 422 CURVE",
"17 405 OFFCURVE",
"16 378 OFFCURVE",
"23 360 CURVE",
"61 358 OFFCURVE",
"93 353 OFFCURVE",
"112 347 CURVE",
"112 -115 LINE SMOOTH",
"112 -177 OFFCURVE",
"100 -237 OFFCURVE",
"32 -220 CURVE"
);
}
);
width = 360;
}
);
unicode = 006A;
},
{
glyphname = k;
layers = (
{
hints = (
{
place = "{144, 89}";
},
{
horizontal = 1;
place = "{11, 21}";
},
{
horizontal = 1;
place = "{10, 21}";
},
{
horizontal = 1;
place = "{721, -20}";
target = down;
type = TopGhost;
}
);
layerId = UUID0;
paths = (
{
closed = 1;
nodes = (
"381 429 OFFCURVE",
"439 429 OFFCURVE",
"517 433 CURVE",
"520 425 OFFCURVE",
"520 418 OFFCURVE",
"517 410 CURVE",
"468 405 OFFCURVE",
"427 397 OFFCURVE",
"394 363 CURVE SMOOTH",
"308 276 LINE",
"474 67 LINE SMOOTH",
"505 27 OFFCURVE",
"553 24 OFFCURVE",
"586 20 CURVE",
"589 14 OFFCURVE",
"589 3 OFFCURVE",
"586 -3 CURVE",
"540 -1 OFFCURVE",
"503 0 OFFCURVE",
"462 0 CURVE SMOOTH",
"425 0 OFFCURVE",
"392 2 OFFCURVE",
"350 0 CURVE",
"345 9 OFFCURVE",
"346 15 OFFCURVE",
"350 23 CURVE",
"383 27 OFFCURVE",
"406 37 OFFCURVE",
"382 67 CURVE SMOOTH",
"249 238 LINE",
"211 238 LINE",
"211 164 OFFCURVE",
"212 103 OFFCURVE",
"214 67 CURVE",
"214 31 OFFCURVE",
"267 24 OFFCURVE",
"298 20 CURVE",
"302 12 OFFCURVE",
"303 6 OFFCURVE",
"298 -3 CURVE",
"255 -1 OFFCURVE",
"217 0 OFFCURVE",
"176 0 CURVE SMOOTH",
"136 0 OFFCURVE",
"95 -1 OFFCURVE",
"52 -3 CURVE",
"47 6 OFFCURVE",
"48 12 OFFCURVE",
"52 20 CURVE",
"82 24 OFFCURVE",
"134 31 OFFCURVE",
"135 67 CURVE SMOOTH",
"143 269 OFFCURVE",
"136 464 OFFCURVE",
"136 659 CURVE",
"116 671 OFFCURVE",
"84 677 OFFCURVE",
"42 679 CURVE",
"40 687 OFFCURVE",
"40 694 OFFCURVE",
"42 702 CURVE",
"99 708 OFFCURVE",
"151 722 OFFCURVE",
"193 742 CURVE",
"200 740 OFFCURVE",
"207 735 OFFCURVE",
"210 729 CURVE",
"210 596 OFFCURVE",
"210 414 OFFCURVE",
"211 269 CURVE",
"250 269 LINE",
"349 363 LINE SMOOTH",
"378 390 OFFCURVE",
"339 407 OFFCURVE",
"312 410 CURVE",
"308 417 OFFCURVE",
"309 426 OFFCURVE",
"312 433 CURVE"
);
},
{
closed = 1;
nodes = (
"292 432 OFFCURVE",
"292 413 OFFCURVE",
"302 394 CURVE",
"342 387 OFFCURVE",
"344 387 OFFCURVE",
"335 378 CURVE SMOOTH",
"279 325 LINE",
"279 734 LINE",
"262 752 OFFCURVE",
"236 763 OFFCURVE",
"200 766 CURVE",
"142 745 OFFCURVE",
"94 728 OFFCURVE",
"27 722 CURVE",
"21 705 OFFCURVE",
"20 678 OFFCURVE",
"27 660 CURVE",
"65 658 OFFCURVE",
"97 653 OFFCURVE",
"116 647 CURVE",
"116 524 LINE SMOOTH",
"116 450 OFFCURVE",
"117 363 OFFCURVE",
"117 283 CURVE SMOOTH",
"117 195 OFFCURVE",
"117 116 OFFCURVE",
"115 68 CURVE SMOOTH",
"114 49 OFFCURVE",
"66 42 OFFCURVE",
"36 38 CURVE",
"23 17 OFFCURVE",
"25 -2 OFFCURVE",
"38 -21 CURVE",
"131 -19 OFFCURVE",
"214 -19 OFFCURVE",
"306 -21 CURVE",
"313 -2 OFFCURVE",
"316 17 OFFCURVE",
"308 38 CURVE",
"292 42 OFFCURVE",
"284 52 OFFCURVE",
"283 67 CURVE SMOOTH",
"281 90 OFFCURVE",
"280 124 OFFCURVE",
"280 165 CURVE",
"357 67 LINE SMOOTH",
"367 46 OFFCURVE",
"353 41 OFFCURVE",
"339 38 CURVE",
"330 16 OFFCURVE",
"334 -3 OFFCURVE",
"343 -21 CURVE",
"426 -18 OFFCURVE",
"518 -16 OFFCURVE",
"604 -21 CURVE",
"612 -4 OFFCURVE",
"612 20 OFFCURVE",
"606 38 CURVE",
"571 45 OFFCURVE",
"560 53 OFFCURVE",
"539 79 CURVE SMOOTH",
"362 302 LINE",
"408 349 LINE SMOOTH",
"437 378 OFFCURVE",
"480 386 OFFCURVE",
"532 391 CURVE",
"539 412 OFFCURVE",
"539 434 OFFCURVE",
"531 454 CURVE",
"452 449 OFFCURVE",
"381 450 OFFCURVE",
"303 453 CURVE"
);
}
);
width = 598;
}
);
unicode = 006B;
},
{
glyphname = l;
layers = (
{
hints = (
{
place = "{91, 89}";
},
{
place = "{184, -93}";
},
{
horizontal = 1;
place = "{7, 21}";
},
{
horizontal = 1;
place = "{723, -20}";
target = down;
type = TopGhost;
}
);
layerId = UUID0;
paths = (
{
closed = 1;
nodes = (
"327 13 OFFCURVE",
"327 3 OFFCURVE",
"324 -4 CURVE",
"232 -2 OFFCURVE",
"139 -1 OFFCURVE",
"45 -4 CURVE",
"42 3 OFFCURVE",
"42 13 OFFCURVE",
"45 20 CURVE",
"75 24 OFFCURVE",
"127 31 OFFCURVE",
"128 67 CURVE SMOOTH",
"132 261 OFFCURVE",
"131 457 OFFCURVE",
"129 659 CURVE",
"109 671 OFFCURVE",
"87 677 OFFCURVE",
"45 679 CURVE",
"43 687 OFFCURVE",
"43 694 OFFCURVE",
"45 702 CURVE",
"102 708 OFFCURVE",
"144 722 OFFCURVE",
"186 742 CURVE",
"194 739 OFFCURVE",
"200 735 OFFCURVE",
"203 729 CURVE",
"202 466 OFFCURVE",
"203 266 OFFCURVE",
"207 67 CURVE SMOOTH",
"208 31 OFFCURVE",
"282 24 OFFCURVE",
"324 20 CURVE"
);
},
{
closed = 1;
nodes = (
"309 42 OFFCURVE",
"277 48 OFFCURVE",
"276 68 CURVE SMOOTH",
"271 267 OFFCURVE",
"271 493 OFFCURVE",
"272 734 CURVE",
"255 752 OFFCURVE",
"229 763 OFFCURVE",
"193 766 CURVE",
"144 745 OFFCURVE",
"93 726 OFFCURVE",
"27 722 CURVE",
"21 705 OFFCURVE",
"20 678 OFFCURVE",
"27 660 CURVE",
"65 658 OFFCURVE",
"90 653 OFFCURVE",
"109 647 CURVE",
"112 461 OFFCURVE",
"112 271 OFFCURVE",
"108 68 CURVE",
"107 49 OFFCURVE",
"67 42 OFFCURVE",
"27 38 CURVE",
"22 20 OFFCURVE",
"22 -4 OFFCURVE",
"27 -21 CURVE",
"133 -18 OFFCURVE",
"238 -19 OFFCURVE",
"342 -21 CURVE",
"347 -4 OFFCURVE",
"347 20 OFFCURVE",
"342 38 CURVE"
);
}
);
width = 376;
}
);
unicode = 006C;
},
{
glyphname = m;
layers = (
{
background = {
paths = (
{
closed = 1;
nodes = (
"645 24 OFFCURVE",
"677 31 OFFCURVE",
"677 67 CURVE SMOOTH",
"678 299 LINE SMOOTH",
"678 357 OFFCURVE",
"662 387 OFFCURVE",
"625 387 CURVE SMOOTH",
"587 387 OFFCURVE",
"545 360 OFFCURVE",
"494 321 CURVE",
"494 315 LINE",
"498 67 LINE SMOOTH",
"499 31 OFFCURVE",
"545 24 OFFCURVE",
"571 20 CURVE",
"572 15 OFFCURVE",
"573 11 OFFCURVE",
"573 7 CURVE SMOOTH",
"573 4 OFFCURVE",
"572 0 OFFCURVE",
"571 -3 CURVE",
"529 -1 OFFCURVE",
"494 0 OFFCURVE",
"456 0 CURVE SMOOTH",
"419 0 OFFCURVE",
"388 -1 OFFCURVE",
"346 -3 CURVE",
"345 1 OFFCURVE",
"344 5 OFFCURVE",
"344 9 CURVE SMOOTH",
"344 13 OFFCURVE",
"345 16 OFFCURVE",
"346 20 CURVE",
"372 24 OFFCURVE",
"404 31 OFFCURVE",
"404 67 CURVE SMOOTH",
"405 299 LINE SMOOTH",
"405 357 OFFCURVE",
"389 387 OFFCURVE",
"352 387 CURVE SMOOTH",
"314 387 OFFCURVE",
"273 360 OFFCURVE",
"222 322 CURVE",
"222 207 OFFCURVE",
"223 151 OFFCURVE",
"226 67 CURVE SMOOTH",
"227 31 OFFCURVE",
"268 24 OFFCURVE",
"294 20 CURVE",
"296 16 OFFCURVE",
"297 12 OFFCURVE",
"297 8 CURVE SMOOTH",
"297 5 OFFCURVE",
"296 1 OFFCURVE",
"294 -3 CURVE",
"251 -1 OFFCURVE",
"215 0 OFFCURVE",
"174 0 CURVE SMOOTH",
"134 0 OFFCURVE",
"93 -1 OFFCURVE",
"50 -3 CURVE",
"49 1 OFFCURVE",
"48 4 OFFCURVE",
"48 8 CURVE SMOOTH",
"48 12 OFFCURVE",
"49 15 OFFCURVE",
"50 20 CURVE",
"80 24 OFFCURVE",
"132 31 OFFCURVE",
"133 67 CURVE SMOOTH",
"135 115 OFFCURVE",
"135 151 OFFCURVE",
"135 184 CURVE SMOOTH",
"135 236 OFFCURVE",
"134 282 OFFCURVE",
"134 359 CURVE",
"114 371 OFFCURVE",
"82 377 OFFCURVE",
"40 379 CURVE",
"39 383 OFFCURVE",
"38 387 OFFCURVE",
"38 391 CURVE SMOOTH",
"38 395 OFFCURVE",
"39 398 OFFCURVE",
"40 402 CURVE",
"102 408 OFFCURVE",
"159 422 OFFCURVE",
"205 442 CURVE",
"213 439 OFFCURVE",
"219 435 OFFCURVE",
"222 429 CURVE",
"222 352 LINE",
"271 397 OFFCURVE",
"325 444 OFFCURVE",
"391 444 CURVE SMOOTH",
"456 444 OFFCURVE",
"484 413 OFFCURVE",
"492 350 CURVE",
"542 395 OFFCURVE",
"597 444 OFFCURVE",
"664 444 CURVE SMOOTH",
"740 444 OFFCURVE",
"766 401 OFFCURVE",
"767 315 CURVE",
"772 67 LINE SMOOTH",
"773 31 OFFCURVE",
"819 24 OFFCURVE",
"845 20 CURVE",
"846 15 OFFCURVE",
"847 11 OFFCURVE",
"847 7 CURVE SMOOTH",
"847 4 OFFCURVE",
"846 0 OFFCURVE",
"845 -3 CURVE",
"803 -1 OFFCURVE",
"767 0 OFFCURVE",
"729 0 CURVE SMOOTH",
"692 0 OFFCURVE",
"661 -1 OFFCURVE",
"619 -3 CURVE",
"618 1 OFFCURVE",
"617 5 OFFCURVE",
"617 9 CURVE SMOOTH",
"617 13 OFFCURVE",
"618 16 OFFCURVE",
"619 20 CURVE"
);
},
{
closed = 1;
nodes = (
"897 -21 LINE",
"897 35 LINE",
"871 41 OFFCURVE",
"828 48 OFFCURVE",
"827 67 CURVE",
"826 149 OFFCURVE",
"823 233 OFFCURVE",
"822 315 CURVE SMOOTH",
"821 414 OFFCURVE",
"790 464 OFFCURVE",
"699 464 CURVE SMOOTH",
"693 464 OFFCURVE",
"687 463 OFFCURVE",
"681 463 CURVE SMOOTH",
"676 463 OFFCURVE",
"670 464 OFFCURVE",
"664 464 CURVE SMOOTH",
"613 464 OFFCURVE",
"570 440 OFFCURVE",
"531 410 CURVE",
"512 444 OFFCURVE",
"478 464 OFFCURVE",
"426 464 CURVE SMOOTH",
"420 464 OFFCURVE",
"414 463 OFFCURVE",
"408 463 CURVE SMOOTH",
"403 463 OFFCURVE",
"397 464 OFFCURVE",
"391 464 CURVE SMOOTH",
"347 464 OFFCURVE",
"310 447 OFFCURVE",
"277 424 CURVE",
"277 434 LINE",
"269 449 OFFCURVE",
"257 458 OFFCURVE",
"240 464 CURVE",
"221 456 LINE",
"216 459 OFFCURVE",
"211 462 OFFCURVE",
"205 464 CURVE",
"156 443 OFFCURVE",
"94 428 OFFCURVE",
"26 421 CURVE",
"18 401 OFFCURVE",
"18 396 OFFCURVE",
"18 391 CURVE SMOOTH",
"18 388 OFFCURVE",
"21 374 OFFCURVE",
"25 360 CURVE",
"63 358 OFFCURVE",
"95 353 OFFCURVE",
"114 347 CURVE",
"114 305 OFFCURVE",
"115 284 OFFCURVE",
"115 254 CURVE SMOOTH",
"115 184 LINE SMOOTH",
"115 151 OFFCURVE",
"115 116 OFFCURVE",
"113 68 CURVE SMOOTH",
"112 49 OFFCURVE",
"60 42 OFFCURVE",
"30 38 CURVE",
"30 -21 LINE"
);
},
{
closed = 1;
nodes = (
"657 67 LINE SMOOTH",
"657 47 OFFCURVE",
"634 43 OFFCURVE",
"616 40 CURVE",
"613 37 LINE",
"588 42 OFFCURVE",
"554 50 OFFCURVE",
"553 67 CURVE",
"549 311 LINE",
"583 337 OFFCURVE",
"613 356 OFFCURVE",
"638 363 CURVE",
"652 355 OFFCURVE",
"658 334 OFFCURVE",
"658 299 CURVE"
);
},
{
closed = 1;
nodes = (
"384 67 LINE SMOOTH",
"384 48 OFFCURVE",
"359 42 OFFCURVE",
"336 38 CURVE",
"313 42 OFFCURVE",
"282 49 OFFCURVE",
"281 68 CURVE SMOOTH",
"278 150 OFFCURVE",
"277 203 OFFCURVE",
"277 312 CURVE",
"311 336 OFFCURVE",
"340 356 OFFCURVE",
"365 363 CURVE",
"379 355 OFFCURVE",
"385 334 OFFCURVE",
"385 299 CURVE"
);
}
);
};
hints = (
{
place = "{129, 92}";
},
{
place = "{393, 92}";
},
{
place = "{657, 92}";
},
{
horizontal = 1;
place = "{7, 21}";
},
{
horizontal = 1;
place = "{442, -20}";
target = down;
type = TopGhost;
}
);
layerId = UUID0;
paths = (
{
closed = 1;
nodes = (
"581 339 OFFCURVE",
"610 357 OFFCURVE",
"638 364 CURVE",
"652 356 OFFCURVE",
"659 334 OFFCURVE",
"659 299 CURVE SMOOTH",
"658 67 LINE SMOOTH",
"658 49 OFFCURVE",
"629 38 OFFCURVE",
"610 38 CURVE",
"603 20 OFFCURVE",
"603 -4 OFFCURVE",
"610 -21 CURVE",
"706 -19 OFFCURVE",
"799 -19 OFFCURVE",
"895 -21 CURVE",
"903 -4 OFFCURVE",
"903 20 OFFCURVE",
"897 38 CURVE",
"867 42 OFFCURVE",
"829 48 OFFCURVE",
"828 67 CURVE SMOOTH",
"824 149 OFFCURVE",
"823 233 OFFCURVE",
"823 315 CURVE SMOOTH",
"823 414 OFFCURVE",
"791 464 OFFCURVE",
"700 464 CURVE SMOOTH",
"626 464 OFFCURVE",
"596 452 OFFCURVE",
"533 406 CURVE",
"515 444 OFFCURVE",
"482 464 OFFCURVE",
"426 464 CURVE SMOOTH",
"352 464 OFFCURVE",
"318 447 OFFCURVE",
"277 418 CURVE",
"277 434 LINE",
"260 452 OFFCURVE",
"234 463 OFFCURVE",
"198 466 CURVE",
"149 445 OFFCURVE",
"98 426 OFFCURVE",
"32 422 CURVE",
"26 405 OFFCURVE",
"25 378 OFFCURVE",
"32 360 CURVE",
"70 358 OFFCURVE",
"94 353 OFFCURVE",
"113 347 CURVE",
"115 254 OFFCURVE",
"116 161 OFFCURVE",
"113 68 CURVE SMOOTH",
"112 49 OFFCURVE",
"62 42 OFFCURVE",
"32 38 CURVE",
"25 20 OFFCURVE",
"25 -4 OFFCURVE",
"32 -21 CURVE",
"128 -18 OFFCURVE",
"219 -18 OFFCURVE",
"314 -21 CURVE",
"321 -4 OFFCURVE",
"321 20 OFFCURVE",
"314 38 CURVE",
"287 44 OFFCURVE",
"282 51 OFFCURVE",
"281 68 CURVE SMOOTH",
"278 150 OFFCURVE",
"277 203 OFFCURVE",
"277 311 CURVE",
"305 338 OFFCURVE",
"336 357 OFFCURVE",
"364 364 CURVE",
"378 356 OFFCURVE",
"385 334 OFFCURVE",
"385 299 CURVE SMOOTH",
"384 67 LINE SMOOTH",
"384 49 OFFCURVE",
"365 42 OFFCURVE",
"336 38 CURVE",
"329 20 OFFCURVE",
"329 -4 OFFCURVE",
"336 -21 CURVE",
"432 -19 OFFCURVE",
"491 -19 OFFCURVE",
"587 -21 CURVE",
"594 -4 OFFCURVE",
"594 20 OFFCURVE",
"587 38 CURVE",
"567 40 OFFCURVE",
"555 48 OFFCURVE",
"554 67 CURVE",
"550 149 OFFCURVE",
"549 229 OFFCURVE",
"549 311 CURVE"
);
},
{
closed = 1;
nodes = (
"534 387 OFFCURVE",
"592 444 OFFCURVE",
"663 444 CURVE SMOOTH",
"729 444 OFFCURVE",
"750 401 OFFCURVE",
"752 315 CURVE SMOOTH",
"757 67 LINE SMOOTH",
"758 31 OFFCURVE",
"837 22 OFFCURVE",
"877 20 CURVE",
"881 13 OFFCURVE",
"881 3 OFFCURVE",
"877 -4 CURVE",
"792 -2 OFFCURVE",
"709 -2 OFFCURVE",
"624 -4 CURVE",
"621 3 OFFCURVE",
"621 14 OFFCURVE",
"624 20 CURVE",
"646 24 OFFCURVE",
"676 31 OFFCURVE",
"676 67 CURVE SMOOTH",
"677 299 LINE SMOOTH",
"677 357 OFFCURVE",
"661 387 OFFCURVE",
"624 387 CURVE SMOOTH",
"582 387 OFFCURVE",
"538 352 OFFCURVE",
"480 301 CURVE",
"485 67 LINE",
"485 31 OFFCURVE",
"529 24 OFFCURVE",
"571 20 CURVE",
"574 14 OFFCURVE",
"574 3 OFFCURVE",
"571 -4 CURVE",
"486 -2 OFFCURVE",
"437 -2 OFFCURVE",
"352 -4 CURVE",
"349 3 OFFCURVE",
"349 14 OFFCURVE",
"352 20 CURVE",
"374 24 OFFCURVE",
"404 31 OFFCURVE",
"404 67 CURVE SMOOTH",
"405 299 LINE SMOOTH",
"405 357 OFFCURVE",
"389 387 OFFCURVE",
"352 387 CURVE SMOOTH",
"310 387 OFFCURVE",
"266 352 OFFCURVE",
"208 301 CURVE",
"208 196 OFFCURVE",
"209 145 OFFCURVE",
"212 67 CURVE SMOOTH",
"213 31 OFFCURVE",
"263 24 OFFCURVE",
"298 20 CURVE",
"301 14 OFFCURVE",
"301 3 OFFCURVE",
"298 -4 CURVE",
"214 -1 OFFCURVE",
"133 -1 OFFCURVE",
"49 -4 CURVE",
"46 3 OFFCURVE",
"46 14 OFFCURVE",
"49 20 CURVE",
"79 24 OFFCURVE",
"132 31 OFFCURVE",
"133 67 CURVE SMOOTH",
"135 164 OFFCURVE",
"135 262 OFFCURVE",
"133 359 CURVE",
"114 371 OFFCURVE",
"92 377 OFFCURVE",
"50 379 CURVE",
"48 387 OFFCURVE",
"48 394 OFFCURVE",
"50 402 CURVE",
"107 408 OFFCURVE",
"149 422 OFFCURVE",
"191 442 CURVE",
"199 439 OFFCURVE",
"205 435 OFFCURVE",
"208 429 CURVE",
"208 332 LINE",
"263 387 OFFCURVE",
"320 444 OFFCURVE",
"391 444 CURVE SMOOTH",
"453 444 OFFCURVE",
"475 407 OFFCURVE",
"479 332 CURVE"
);
}
);
width = 921;
}
);
unicode = 006D;
},
{
glyphname = n;
layers = (
{
background = {
paths = (
{
closed = 1;
nodes = (
"88 12 OFFCURVE",
"88 3 OFFCURVE",
"92 -3 CURVE",
"180 1 OFFCURVE",
"267 1 OFFCURVE",
"371 -3 CURVE",
"375 3 OFFCURVE",
"375 12 OFFCURVE",
"371 20 CURVE",
"329 24 OFFCURVE",
"255 31 OFFCURVE",
"254 67 CURVE SMOOTH",
"250 176 OFFCURVE",
"249 286 OFFCURVE",
"250 429 CURVE",
"247 435 OFFCURVE",
"241 439 OFFCURVE",
"233 442 CURVE",
"191 422 OFFCURVE",
"139 408 OFFCURVE",
"82 402 CURVE",
"80 394 OFFCURVE",
"80 387 OFFCURVE",
"82 379 CURVE",
"124 377 OFFCURVE",
"156 371 OFFCURVE",
"176 359 CURVE",
"178 259 OFFCURVE",
"179 162 OFFCURVE",
"175 67 CURVE SMOOTH",
"174 31 OFFCURVE",
"122 24 OFFCURVE",
"92 20 CURVE"
);
},
{
closed = 1;
nodes = (
"60 2 OFFCURVE",
"60 15 OFFCURVE",
"72 38 CURVE",
"102 42 OFFCURVE",
"154 49 OFFCURVE",
"155 68 CURVE SMOOTH",
"159 166 OFFCURVE",
"159 257 OFFCURVE",
"156 347 CURVE",
"137 353 OFFCURVE",
"105 358 OFFCURVE",
"67 360 CURVE",
"60 378 OFFCURVE",
"61 405 OFFCURVE",
"67 422 CURVE",
"133 426 OFFCURVE",
"191 445 OFFCURVE",
"240 466 CURVE",
"276 463 OFFCURVE",
"302 452 OFFCURVE",
"319 434 CURVE",
"318 301 OFFCURVE",
"318 177 OFFCURVE",
"323 68 CURVE SMOOTH",
"324 48 OFFCURVE",
"366 42 OFFCURVE",
"389 38 CURVE",
"401 15 OFFCURVE",
"401 -1 OFFCURVE",
"387 -24 CURVE",
"275 -20 OFFCURVE",
"171 -17 OFFCURVE",
"74 -21 CURVE"
);
}
);
};
layerId = UUID0;
paths = (
{
closed = 1;
nodes = (
"383 24 OFFCURVE",
"414 31 OFFCURVE",
"414 67 CURVE SMOOTH",
"415 299 LINE SMOOTH",
"415 357 OFFCURVE",
"399 387 OFFCURVE",
"362 387 CURVE SMOOTH",
"320 387 OFFCURVE",
"266 352 OFFCURVE",
"208 301 CURVE",
"208 196 OFFCURVE",
"209 145 OFFCURVE",
"212 67 CURVE SMOOTH",
"213 31 OFFCURVE",
"269 24 OFFCURVE",
"304 20 CURVE",
"307 14 OFFCURVE",
"307 3 OFFCURVE",
"304 -4 CURVE",
"220 -1 OFFCURVE",
"133 -1 OFFCURVE",
"49 -4 CURVE",
"46 3 OFFCURVE",
"46 14 OFFCURVE",
"49 20 CURVE",
"79 24 OFFCURVE",
"132 31 OFFCURVE",
"133 67 CURVE SMOOTH",
"136 164 OFFCURVE",
"136 262 OFFCURVE",
"133 359 CURVE",
"114 371 OFFCURVE",
"92 377 OFFCURVE",
"50 379 CURVE",
"48 387 OFFCURVE",
"48 394 OFFCURVE",
"50 402 CURVE",
"107 408 OFFCURVE",
"149 422 OFFCURVE",
"191 442 CURVE",
"199 439 OFFCURVE",
"205 435 OFFCURVE",
"208 429 CURVE",
"208 332 LINE",
"263 387 OFFCURVE",
"330 444 OFFCURVE",
"401 444 CURVE SMOOTH",
"467 444 OFFCURVE",
"488 401 OFFCURVE",
"490 315 CURVE SMOOTH",
"495 67 LINE SMOOTH",
"496 31 OFFCURVE",
"575 22 OFFCURVE",
"615 20 CURVE",
"619 13 OFFCURVE",
"619 3 OFFCURVE",
"615 -4 CURVE",
"530 -2 OFFCURVE",
"446 -2 OFFCURVE",
"361 -4 CURVE",
"358 3 OFFCURVE",
"358 14 OFFCURVE",
"361 20 CURVE"
);
},
{
closed = 1;
nodes = (
"441 -19 OFFCURVE",
"535 -19 OFFCURVE",
"631 -21 CURVE",
"639 -4 OFFCURVE",
"639 20 OFFCURVE",
"633 38 CURVE",
"603 42 OFFCURVE",
"565 48 OFFCURVE",
"564 67 CURVE SMOOTH",
"560 149 OFFCURVE",
"560 233 OFFCURVE",
"559 315 CURVE SMOOTH",
"558 414 OFFCURVE",
"527 464 OFFCURVE",
"436 464 CURVE SMOOTH",
"360 464 OFFCURVE",
"319 446 OFFCURVE",
"277 418 CURVE",
"277 434 LINE",
"260 452 OFFCURVE",
"234 463 OFFCURVE",
"198 466 CURVE",
"149 445 OFFCURVE",
"98 426 OFFCURVE",
"32 422 CURVE",
"26 405 OFFCURVE",
"25 378 OFFCURVE",
"32 360 CURVE",
"70 358 OFFCURVE",
"94 353 OFFCURVE",
"113 347 CURVE",
"116 255 OFFCURVE",
"116 161 OFFCURVE",
"113 68 CURVE SMOOTH",
"112 49 OFFCURVE",
"62 42 OFFCURVE",
"32 38 CURVE",
"25 20 OFFCURVE",
"25 -4 OFFCURVE",
"32 -21 CURVE",
"128 -18 OFFCURVE",
"225 -18 OFFCURVE",
"320 -21 CURVE",
"327 -4 OFFCURVE",
"327 20 OFFCURVE",
"320 38 CURVE",
"293 41 OFFCURVE",
"282 51 OFFCURVE",
"281 68 CURVE SMOOTH",
"278 150 OFFCURVE",
"277 203 OFFCURVE",
"277 311 CURVE",
"313 337 OFFCURVE",
"346 357 OFFCURVE",
"374 364 CURVE",
"388 356 OFFCURVE",
"395 334 OFFCURVE",
"395 299 CURVE SMOOTH",
"394 67 LINE SMOOTH",
"394 49 OFFCURVE",
"364 38 OFFCURVE",
"345 38 CURVE",
"338 20 OFFCURVE",
"338 -4 OFFCURVE",
"345 -21 CURVE"
);
}
);
width = 658;
}
);
unicode = 006E;
},
{
glyphname = o;
layers = (
{
background = {
paths = (
{
closed = 1;
nodes = (
"171 74 OFFCURVE",
"218 18 OFFCURVE",
"280 18 CURVE SMOOTH",
"342 18 OFFCURVE",
"389 74 OFFCURVE",
"389 215 CURVE SMOOTH",
"389 356 OFFCURVE",
"342 412 OFFCURVE",
"280 412 CURVE SMOOTH",
"218 412 OFFCURVE",
"171 356 OFFCURVE",
"171 215 CURVE SMOOTH"
);
},
{
closed = 1;
nodes = (
"149 -14 OFFCURVE",
"70 83 OFFCURVE",
"70 215 CURVE SMOOTH",
"70 347 OFFCURVE",
"149 444 OFFCURVE",
"280 444 CURVE SMOOTH",
"411 444 OFFCURVE",
"490 347 OFFCURVE",
"490 215 CURVE SMOOTH",
"490 83 OFFCURVE",
"411 -14 OFFCURVE",
"280 -14 CURVE SMOOTH"
);
},
{
closed = 1;
nodes = (
"458 -34 OFFCURVE",
"545 71 OFFCURVE",
"545 215 CURVE SMOOTH",
"545 359 OFFCURVE",
"458 464 OFFCURVE",
"315 464 CURVE SMOOTH",
"309 464 OFFCURVE",
"303 464 OFFCURVE",
"297 463 CURVE",
"291 464 OFFCURVE",
"286 464 OFFCURVE",
"280 464 CURVE SMOOTH",
"137 464 OFFCURVE",
"50 359 OFFCURVE",
"50 215 CURVE SMOOTH",
"50 71 OFFCURVE",
"137 -34 OFFCURVE",
"280 -34 CURVE SMOOTH",
"286 -34 OFFCURVE",
"291 -34 OFFCURVE",
"297 -33 CURVE",
"303 -34 OFFCURVE",
"309 -34 OFFCURVE",
"315 -34 CURVE SMOOTH"
);
},
{
closed = 1;
nodes = (
"226 327 OFFCURVE",
"255 379 OFFCURVE",
"297 390 CURVE",
"339 379 OFFCURVE",
"369 327 OFFCURVE",
"369 215 CURVE SMOOTH",
"369 103 OFFCURVE",
"339 50 OFFCURVE",
"297 40 CURVE",
"255 50 OFFCURVE",
"226 103 OFFCURVE",
"226 215 CURVE SMOOTH"
);
}
);
};
hints = (
{
horizontal = 1;
place = "{-7, 21}";
},
{
horizontal = 1;
place = "{0, -20}";
target = down;
type = TopGhost;
},
{
horizontal = 1;
place = "{449, -20}";
target = down;
type = TopGhost;
}
);
layerId = UUID0;
paths = (
{
closed = 1;
nodes = (
"157 74 OFFCURVE",
"210 18 OFFCURVE",
"280 18 CURVE SMOOTH",
"342 18 OFFCURVE",
"389 74 OFFCURVE",
"389 215 CURVE SMOOTH",
"389 356 OFFCURVE",
"342 412 OFFCURVE",
"280 412 CURVE SMOOTH",
"210 412 OFFCURVE",
"157 356 OFFCURVE",
"157 215 CURVE SMOOTH"
);
},
{
closed = 1;
nodes = (
"149 -14 OFFCURVE",
"70 83 OFFCURVE",
"70 215 CURVE SMOOTH",
"70 347 OFFCURVE",
"149 444 OFFCURVE",
"280 444 CURVE SMOOTH",
"402 444 OFFCURVE",
"476 347 OFFCURVE",
"476 215 CURVE SMOOTH",
"476 83 OFFCURVE",
"402 -14 OFFCURVE",
"280 -14 CURVE SMOOTH"
);
},
{
closed = 1;
nodes = (
"50 71 OFFCURVE",
"137 -34 OFFCURVE",
"297 -34 CURVE SMOOTH",
"458 -34 OFFCURVE",
"545 71 OFFCURVE",
"545 215 CURVE SMOOTH",
"545 359 OFFCURVE",
"458 464 OFFCURVE",
"297 464 CURVE SMOOTH",
"137 464 OFFCURVE",
"50 359 OFFCURVE",
"50 215 CURVE SMOOTH"
);
},
{
closed = 1;
nodes = (
"226 327 OFFCURVE",
"255 379 OFFCURVE",
"297 390 CURVE",
"339 379 OFFCURVE",
"369 327 OFFCURVE",
"369 215 CURVE SMOOTH",
"369 103 OFFCURVE",
"339 50 OFFCURVE",
"297 40 CURVE",
"255 50 OFFCURVE",
"226 103 OFFCURVE",
"226 215 CURVE SMOOTH"
);
}
);
width = 592;
}
);
unicode = 006F;
},
{
glyphname = oslash;
layers = (
{
background = {
paths = (
{
closed = 1;
nodes = (
"300 41 LINE",
"230 41 OFFCURVE",
"177 97 OFFCURVE",
"177 238 CURVE"
);
},
{
closed = 1;
nodes = (
"260 398 LINE",
"322 398 OFFCURVE",
"369 342 OFFCURVE",
"369 201 CURVE"
);
}
);
};
hints = (
{
place = "{42, 95}";
},
{
place = "{376, 95}";
},
{
horizontal = 1;
place = "{-9, 35}";
},
{
horizontal = 1;
place = "{409, 35}";
},
{
horizontal = 1;
place = "{-7, 21}";
},
{
horizontal = 1;
place = "{0, -20}";
target = down;
type = TopGhost;
},
{
horizontal = 1;
place = "{449, -20}";
target = down;
type = TopGhost;
}
);
layerId = UUID0;
paths = (
{
closed = 1;
nodes = (
"157 178 OFFCURVE",
"160 142 OFFCURVE",
"171 109 CURVE",
"358 366 LINE",
"338 398 OFFCURVE",
"311 412 OFFCURVE",
"280 412 CURVE SMOOTH",
"210 412 OFFCURVE",
"157 356 OFFCURVE",
"157 215 CURVE SMOOTH"
);
},
{
closed = 1;
nodes = (
"342 18 OFFCURVE",
"389 74 OFFCURVE",
"389 215 CURVE SMOOTH",
"389 255 OFFCURVE",
"385 288 OFFCURVE",
"378 315 CURVE",
"193 62 LINE",
"219 29 OFFCURVE",
"247 18 OFFCURVE",
"280 18 CURVE SMOOTH"
);
},
{
closed = 1;
nodes = (
"128 49 LINE",
"90 90 OFFCURVE",
"70 148 OFFCURVE",
"70 215 CURVE SMOOTH",
"70 347 OFFCURVE",
"149 444 OFFCURVE",
"280 444 CURVE SMOOTH",
"323 444 OFFCURVE",
"362 433 OFFCURVE",
"393 414 CURVE",
"443 483 LINE",
"480 456 LINE",
"428 385 LINE",
"459 344 OFFCURVE",
"476 284 OFFCURVE",
"476 215 CURVE SMOOTH",
"476 83 OFFCURVE",
"402 -14 OFFCURVE",
"280 -14 CURVE SMOOTH",
"234 -14 OFFCURVE",
"194 -2 OFFCURVE",
"162 19 CURVE",
"114 -48 LINE",
"77 -21 LINE"
);
},
{
closed = 1;
nodes = (
"440 -34 OFFCURVE",
"545 71 OFFCURVE",
"545 215 CURVE SMOOTH",
"545 283 OFFCURVE",
"526 342 OFFCURVE",
"489 386 CURVE",
"543 460 LINE",
"474 511 LINE",
"439 511 LINE",
"395 451 LINE",
"370 460 OFFCURVE",
"344 464 OFFCURVE",
"281 464 CURVE SMOOTH",
"137 464 OFFCURVE",
"50 359 OFFCURVE",
"50 215 CURVE SMOOTH",
"50 148 OFFCURVE",
"68 91 OFFCURVE",
"102 48 CURVE",
"49 -25 LINE",
"118 -76 LINE",
"153 -76 LINE",
"193 -20 LINE",
"219 -29 OFFCURVE",
"238 -34 OFFCURVE",
"297 -34 CURVE SMOOTH"
);
},
{
closed = 1;
nodes = (
"282 44 OFFCURVE",
"254 73 OFFCURVE",
"248 106 CURVE",
"365 265 LINE",
"367 248 OFFCURVE",
"369 232 OFFCURVE",
"369 215 CURVE SMOOTH",
"369 103 OFFCURVE",
"339 50 OFFCURVE",
"297 40 CURVE"
);
},
{
closed = 1;
nodes = (
"294 314 OFFCURVE",
"261 268 OFFCURVE",
"226 219 CURVE",
"226 328 OFFCURVE",
"256 379 OFFCURVE",
"297 390 CURVE",
"310 386 OFFCURVE",
"323 379 OFFCURVE",
"333 367 CURVE"
);
}
);
width = 592;
}
);
unicode = 00F8;
},
{
glyphname = oe;
layers = (
{
hints = (
{
place = "{372, 92}";
},
{
place = "{643, 90}";
},
{
place = "{39, 95}";
},
{
horizontal = 1;
place = "{409, 35}";
},
{
horizontal = 1;
place = "{251, 35}";
},
{
horizontal = 1;
place = "{-9, 35}";
},
{
horizontal = 1;
place = "{-7, 21}";
},
{
horizontal = 1;
place = "{0, -20}";
target = down;
type = TopGhost;
},
{
horizontal = 1;
place = "{449, -20}";
target = down;
type = TopGhost;
},
{
horizontal = 1;
place = "{-7, 21}";
},
{
horizontal = 1;
place = "{442, -20}";
target = down;
type = TopGhost;
}
);
layerId = UUID0;
paths = (
{
closed = 1;
nodes = (
"550 412 OFFCURVE",
"495 379 OFFCURVE",
"474 292 CURVE",
"664 292 LINE",
"667 303 OFFCURVE",
"669 313 OFFCURVE",
"669 324 CURVE SMOOTH",
"669 369 OFFCURVE",
"651 412 OFFCURVE",
"595 412 CURVE SMOOTH"
);
},
{
closed = 1;
nodes = (
"157 74 OFFCURVE",
"210 18 OFFCURVE",
"280 18 CURVE SMOOTH",
"341 18 OFFCURVE",
"389 72 OFFCURVE",
"389 215 CURVE SMOOTH",
"389 356 OFFCURVE",
"342 412 OFFCURVE",
"280 412 CURVE SMOOTH",
"210 412 OFFCURVE",
"157 356 OFFCURVE",
"157 215 CURVE SMOOTH"
);
},
{
closed = 1;
nodes = (
"767 125 OFFCURVE",
"773 121 OFFCURVE",
"777 116 CURVE",
"743 24 OFFCURVE",
"664 -14 OFFCURVE",
"590 -14 CURVE SMOOTH",
"533 -14 OFFCURVE",
"474 7 OFFCURVE",
"434 57 CURVE",
"400 12 OFFCURVE",
"349 -14 OFFCURVE",
"280 -14 CURVE SMOOTH",
"149 -14 OFFCURVE",
"70 83 OFFCURVE",
"70 215 CURVE SMOOTH",
"70 347 OFFCURVE",
"149 444 OFFCURVE",
"280 444 CURVE SMOOTH",
"353 444 OFFCURVE",
"408 413 OFFCURVE",
"441 363 CURVE",
"480 411 OFFCURVE",
"535 444 OFFCURVE",
"607 444 CURVE SMOOTH",
"709 444 OFFCURVE",
"743 376 OFFCURVE",
"743 309 CURVE SMOOTH",
"743 291 OFFCURVE",
"740 274 OFFCURVE",
"735 259 CURVE",
"469 259 LINE",
"468 247 OFFCURVE",
"467 234 OFFCURVE",
"467 207 CURVE",
"469 111 OFFCURVE",
"533 47 OFFCURVE",
"633 47 CURVE SMOOTH",
"711 47 OFFCURVE",
"735 97 OFFCURVE",
"758 127 CURVE"
);
},
{
closed = 1;
nodes = (
"723 107 OFFCURVE",
"696 73 OFFCURVE",
"650 68 CURVE",
"580 76 OFFCURVE",
"538 129 OFFCURVE",
"536 207 CURVE",
"536 239 LINE",
"798 239 LINE",
"807 265 OFFCURVE",
"812 290 OFFCURVE",
"812 309 CURVE SMOOTH",
"812 386 OFFCURVE",
"769 464 OFFCURVE",
"607 464 CURVE SMOOTH",
"548 464 OFFCURVE",
"499 443 OFFCURVE",
"460 412 CURVE",
"414 450 OFFCURVE",
"351 463 OFFCURVE",
"297 463 CURVE SMOOTH",
"134 463 OFFCURVE",
"50 351 OFFCURVE",
"50 215 CURVE SMOOTH",
"50 64 OFFCURVE",
"131 -33 OFFCURVE",
"298 -33 CURVE SMOOTH",
"352 -33 OFFCURVE",
"411 -23 OFFCURVE",
"452 10 CURVE",
"492 -20 OFFCURVE",
"542 -34 OFFCURVE",
"590 -34 CURVE",
"671 -34 OFFCURVE",
"760 11 OFFCURVE",
"800 119 CURVE",
"789 133 OFFCURVE",
"767 145 OFFCURVE",
"748 147 CURVE"
);
},
{
closed = 1;
nodes = (
"226 327 OFFCURVE",
"255 379 OFFCURVE",
"297 390 CURVE",
"339 379 OFFCURVE",
"369 327 OFFCURVE",
"369 215 CURVE SMOOTH",
"369 102 OFFCURVE",
"338 51 OFFCURVE",
"297 40 CURVE",
"255 51 OFFCURVE",
"226 103 OFFCURVE",
"226 215 CURVE SMOOTH"
);
},
{
closed = 1;
nodes = (
"649 321 OFFCURVE",
"648 315 OFFCURVE",
"648 312 CURVE",
"549 312 LINE",
"564 358 OFFCURVE",
"589 382 OFFCURVE",
"613 389 CURVE",
"640 381 OFFCURVE",
"649 353 OFFCURVE",
"649 324 CURVE SMOOTH"
);
}
);
width = 866;
}
);
unicode = 0153;
},
{
glyphname = p;
layers = (
{
hints = (
{
place = "{107, 93}";
},
{
horizontal = 1;
place = "{-252, 21}";
},
{
horizontal = 1;
place = "{0, -20}";
target = down;
type = TopGhost;
},
{
horizontal = 1;
place = "{442, -20}";
target = down;
type = TopGhost;
}
);
layerId = UUID0;
paths = (
{
closed = 1;
nodes = (
"252 380 OFFCURVE",
"219 361 OFFCURVE",
"186 334 CURVE",
"186 80 LINE",
"212 31 OFFCURVE",
"255 18 OFFCURVE",
"303 18 CURVE SMOOTH",
"347 18 OFFCURVE",
"422 55 OFFCURVE",
"422 214 CURVE SMOOTH",
"422 304 OFFCURVE",
"385 380 OFFCURVE",
"304 380 CURVE SMOOTH"
);
},
{
closed = 1;
nodes = (
"402 87 OFFCURVE",
"353 47 OFFCURVE",
"316 39 CURVE",
"291 43 OFFCURVE",
"269 55 OFFCURVE",
"255 83 CURVE",
"255 325 LINE",
"274 342 OFFCURVE",
"294 354 OFFCURVE",
"320 358 CURVE",
"376 348 OFFCURVE",
"402 286 OFFCURVE",
"402 214 CURVE SMOOTH"
);
},
{
closed = 1;
nodes = (
"18 379 LINE",
"60 377 OFFCURVE",
"92 371 OFFCURVE",
"112 359 CURVE",
"112 282 OFFCURVE",
"113 163 OFFCURVE",
"111 -193 CURVE",
"110 -229 OFFCURVE",
"58 -236 OFFCURVE",
"28 -240 CURVE",
"26 -247 OFFCURVE",
"26 -255 OFFCURVE",
"28 -263 CURVE",
"116 -259 OFFCURVE",
"203 -259 OFFCURVE",
"307 -263 CURVE",
"310 -257 OFFCURVE",
"310 -246 OFFCURVE",
"307 -240 CURVE",
"265 -236 OFFCURVE",
"191 -229 OFFCURVE",
"190 -193 CURVE",
"187 3 LINE",
"218 -8 OFFCURVE",
"253 -14 OFFCURVE",
"289 -14 CURVE SMOOTH",
"447 -14 OFFCURVE",
"507 123 OFFCURVE",
"507 237 CURVE SMOOTH",
"507 366 OFFCURVE",
"441 444 OFFCURVE",
"351 444 CURVE SMOOTH",
"302 444 OFFCURVE",
"248 427 OFFCURVE",
"186 372 CURVE",
"186 429 LINE",
"183 435 OFFCURVE",
"177 439 OFFCURVE",
"169 442 CURVE",
"127 422 OFFCURVE",
"75 408 OFFCURVE",
"18 402 CURVE",
"15 394 OFFCURVE",
"15 387 OFFCURVE",
"17 379 CURVE"
);
},
{
closed = 1;
nodes = (
"64 427 OFFCURVE",
"129 446 OFFCURVE",
"174 469 CURVE",
"210 466 OFFCURVE",
"236 455 OFFCURVE",
"253 437 CURVE",
"287 457 OFFCURVE",
"354 464 OFFCURVE",
"386 464 CURVE",
"496 464 OFFCURVE",
"576 378 OFFCURVE",
"576 237 CURVE SMOOTH",
"576 114 OFFCURVE",
"506 -34 OFFCURVE",
"324 -34 CURVE SMOOTH",
"290 -34 OFFCURVE",
"282 -34 OFFCURVE",
"256 -32 CURVE",
"259 -192 LINE",
"260 -212 OFFCURVE",
"302 -218 OFFCURVE",
"325 -222 CURVE",
"333 -240 OFFCURVE",
"333 -263 OFFCURVE",
"325 -283 CURVE",
"213 -279 OFFCURVE",
"107 -277 OFFCURVE",
"13 -281 CURVE",
"6 -261 OFFCURVE",
"7 -238 OFFCURVE",
"13 -222 CURVE",
"43 -218 OFFCURVE",
"90 -211 OFFCURVE",
"91 -192 CURVE",
"92 347 LINE",
"73 353 OFFCURVE",
"41 358 OFFCURVE",
"3 360 CURVE",
"-5 378 OFFCURVE",
"-4 405 OFFCURVE",
"2 422 CURVE"
);
}
);
width = 622;
}
);
unicode = 0070;
},
{
glyphname = thorn;
layers = (
{
hints = (
{
place = "{67, 83}";
},
{
place = "{393, 95}";
},
{
place = "{99, 93}";
},
{
horizontal = 1;
place = "{-208, 33}";
},
{
horizontal = 1;
place = "{-9, 35}";
},
{
horizontal = 1;
place = "{409, 34}";
},
{
horizontal = 1;
place = "{791, -23}";
},
{
horizontal = 1;
place = "{-252, 21}";
},
{
horizontal = 1;
place = "{0, -20}";
target = down;
type = TopGhost;
},
{
horizontal = 1;
place = "{442, -20}";
target = down;
type = TopGhost;
}
);
layerId = UUID0;
paths = (
{
closed = 1;
nodes = (
"178 81 LINE",
"204 31 OFFCURVE",
"247 18 OFFCURVE",
"295 18 CURVE SMOOTH",
"339 18 OFFCURVE",
"414 55 OFFCURVE",
"414 214 CURVE SMOOTH",
"414 304 OFFCURVE",
"377 380 OFFCURVE",
"296 380 CURVE SMOOTH",
"244 380 OFFCURVE",
"211 361 OFFCURVE",
"177 333 CURVE"
);
},
{
closed = 1;
nodes = (
"84 671 OFFCURVE",
"62 677 OFFCURVE",
"20 679 CURVE",
"18 687 OFFCURVE",
"18 694 OFFCURVE",
"20 702 CURVE",
"77 708 OFFCURVE",
"119 722 OFFCURVE",
"161 742 CURVE",
"169 739 OFFCURVE",
"175 735 OFFCURVE",
"178 729 CURVE",
"177 371 LINE",
"240 427 OFFCURVE",
"294 444 OFFCURVE",
"343 444 CURVE SMOOTH",
"433 444 OFFCURVE",
"499 366 OFFCURVE",
"499 237 CURVE SMOOTH",
"499 123 OFFCURVE",
"439 -14 OFFCURVE",
"281 -14 CURVE SMOOTH",
"244 -14 OFFCURVE",
"209 -8 OFFCURVE",
"177 3 CURVE",
"178 -88 OFFCURVE",
"180 -161 OFFCURVE",
"182 -193 CURVE",
"182 -228 OFFCURVE",
"257 -237 OFFCURVE",
"299 -240 CURVE",
"302 -247 OFFCURVE",
"302 -257 OFFCURVE",
"299 -264 CURVE",
"207 -262 OFFCURVE",
"114 -261 OFFCURVE",
"20 -264 CURVE",
"17 -257 OFFCURVE",
"17 -247 OFFCURVE",
"20 -240 CURVE",
"50 -236 OFFCURVE",
"102 -229 OFFCURVE",
"103 -193 CURVE",
"106 91 OFFCURVE",
"107 375 OFFCURVE",
"104 659 CURVE"
);
},
{
closed = 1;
nodes = (
"249 -165 OFFCURVE",
"247 -106 OFFCURVE",
"246 -32 CURVE",
"257 -33 OFFCURVE",
"290 -34 OFFCURVE",
"316 -34 CURVE SMOOTH",
"498 -34 OFFCURVE",
"568 114 OFFCURVE",
"568 237 CURVE SMOOTH",
"568 378 OFFCURVE",
"488 464 OFFCURVE",
"378 464 CURVE SMOOTH",
"326 464 OFFCURVE",
"280 457 OFFCURVE",
"246 438 CURVE",
"247 734 LINE",
"230 752 OFFCURVE",
"204 763 OFFCURVE",
"168 766 CURVE",
"119 745 OFFCURVE",
"68 726 OFFCURVE",
"2 722 CURVE",
"-4 705 OFFCURVE",
"-5 678 OFFCURVE",
"2 660 CURVE",
"40 658 OFFCURVE",
"65 653 OFFCURVE",
"84 647 CURVE",
"88 366 OFFCURVE",
"87 87 OFFCURVE",
"83 -192 CURVE",
"82 -211 OFFCURVE",
"42 -218 OFFCURVE",
"2 -222 CURVE",
"-3 -240 OFFCURVE",
"-3 -264 OFFCURVE",
"2 -281 CURVE",
"108 -278 OFFCURVE",
"213 -279 OFFCURVE",
"317 -281 CURVE",
"322 -264 OFFCURVE",
"322 -240 OFFCURVE",
"317 -222 CURVE",
"284 -218 OFFCURVE",
"252 -212 OFFCURVE",
"251 -192 CURVE SMOOTH"
);
},
{
closed = 1;
nodes = (
"394 89 OFFCURVE",
"346 48 OFFCURVE",
"310 39 CURVE",
"283 43 OFFCURVE",
"260 56 OFFCURVE",
"246 87 CURVE",
"246 324 LINE",
"266 341 OFFCURVE",
"286 354 OFFCURVE",
"312 358 CURVE",
"368 348 OFFCURVE",
"394 286 OFFCURVE",
"394 214 CURVE SMOOTH"
);
}
);
width = 622;
}
);
unicode = 00FE;
},
{
glyphname = q;
layers = (
{
hints = (
{
place = "{391, 85}";
},
{
place = "{480, -89}";
},
{
horizontal = 1;
place = "{-252, 21}";
},
{
horizontal = 1;
place = "{443, -20}";
target = down;
type = TopGhost;
}
);
layerId = UUID0;
paths = (
{
closed = 1;
nodes = (
"325 50 OFFCURVE",
"361 79 OFFCURVE",
"392 111 CURVE",
"391 207 OFFCURVE",
"391 289 OFFCURVE",
"391 349 CURVE",
"364 399 OFFCURVE",
"325 412 OFFCURVE",
"288 412 CURVE SMOOTH",
"239 412 OFFCURVE",
"155 381 OFFCURVE",
"155 216 CURVE SMOOTH",
"155 126 OFFCURVE",
"196 50 OFFCURVE",
"287 50 CURVE SMOOTH"
);
},
{
closed = 1;
nodes = (
"392 -145 OFFCURVE",
"392 -65 OFFCURVE",
"392 73 CURVE",
"333 11 OFFCURVE",
"286 -14 OFFCURVE",
"240 -14 CURVE SMOOTH",
"142 -14 OFFCURVE",
"70 64 OFFCURVE",
"70 197 CURVE SMOOTH",
"70 305 OFFCURVE",
"134 444 OFFCURVE",
"305 444 CURVE SMOOTH",
"354 444 OFFCURVE",
"409 430 OFFCURVE",
"450 412 CURVE SMOOTH",
"458 409 OFFCURVE",
"465 402 OFFCURVE",
"465 393 CURVE SMOOTH",
"465 182 OFFCURVE",
"465 -84 OFFCURVE",
"469 -193 CURVE SMOOTH",
"470 -229 OFFCURVE",
"544 -236 OFFCURVE",
"586 -240 CURVE",
"589 -247 OFFCURVE",
"589 -257 OFFCURVE",
"586 -264 CURVE",
"493 -262 OFFCURVE",
"400 -262 OFFCURVE",
"307 -264 CURVE",
"304 -257 OFFCURVE",
"304 -247 OFFCURVE",
"307 -240 CURVE",
"337 -236 OFFCURVE",
"389 -229 OFFCURVE",
"390 -193 CURVE SMOOTH"
);
},
{
closed = 1;
nodes = (
"533 -63 OFFCURVE",
"534 207 OFFCURVE",
"534 398 CURVE",
"528 417 OFFCURVE",
"521 426 OFFCURVE",
"505 432 CURVE SMOOTH",
"451 453 OFFCURVE",
"370 464 OFFCURVE",
"316 464 CURVE SMOOTH",
"114 464 OFFCURVE",
"50 314 OFFCURVE",
"50 197 CURVE SMOOTH",
"50 51 OFFCURVE",
"128 -34 OFFCURVE",
"255 -34 CURVE SMOOTH",
"286 -34 OFFCURVE",
"338 -24 OFFCURVE",
"372 -1 CURVE",
"372 -63 OFFCURVE",
"372 -145 OFFCURVE",
"370 -192 CURVE SMOOTH",
"369 -211 OFFCURVE",
"329 -218 OFFCURVE",
"289 -222 CURVE",
"284 -240 OFFCURVE",
"284 -264 OFFCURVE",
"289 -281 CURVE",
"394 -278 OFFCURVE",
"499 -278 OFFCURVE",
"604 -281 CURVE",
"609 -264 OFFCURVE",
"609 -240 OFFCURVE",
"604 -222 CURVE",
"571 -218 OFFCURVE",
"539 -212 OFFCURVE",
"538 -192 CURVE SMOOTH"
);
},
{
closed = 1;
nodes = (
"371 284 OFFCURVE",
"371 213 OFFCURVE",
"372 119 CURVE",
"350 97 OFFCURVE",
"326 78 OFFCURVE",
"302 72 CURVE",
"249 84 OFFCURVE",
"224 145 OFFCURVE",
"224 216 CURVE SMOOTH",
"224 345 OFFCURVE",
"271 383 OFFCURVE",
"308 390 CURVE",
"331 386 OFFCURVE",
"353 374 OFFCURVE",
"371 343 CURVE"
);
}
);
width = 611;
}
);
unicode = 0071;
},
